<svg width="40" height="40" viewBox="0 0 40 40" fill="none" xmlns="http://www.w3.org/2000/svg">
<circle cx="20" cy="20" r="20" fill="#FDE14E"/>
<g clip-path="url(#clip0_589_580)">
<path d="M24.3795 28.5717V26.6669C24.3795 25.6566 23.9781 24.6876 23.2637 23.9732C22.5493 23.2588 21.5803 22.8574 20.5699 22.8574H13.9033C12.8929 22.8574 11.924 23.2588 11.2095 23.9732C10.4951 24.6876 10.0938 25.6566 10.0938 26.6669V28.5717" stroke="#121212" stroke-width="2" stroke-linecap="round" stroke-linejoin="round"/>
<path d="M17.2373 19.0478C19.3412 19.0478 21.0468 17.3422 21.0468 15.2382C21.0468 13.1343 19.3412 11.4287 17.2373 11.4287C15.1333 11.4287 13.4277 13.1343 13.4277 15.2382C13.4277 17.3422 15.1333 19.0478 17.2373 19.0478Z" stroke="#121212" stroke-width="2" stroke-linecap="round" stroke-linejoin="round"/>
<path d="M25.334 19.0473L27.2387 20.9521L31.0483 17.1426" stroke="#121212" stroke-width="2" stroke-linecap="round" stroke-linejoin="round"/>
</g>
<defs>
<clipPath id="clip0_589_580">
<rect width="22.8571" height="22.8571" fill="white" transform="translate(9.14258 8.57129)"/>
</clipPath>
</defs>
</svg>
