<svg width="40" height="41" viewBox="0 0 40 41" fill="none" xmlns="http://www.w3.org/2000/svg">
<circle cx="20" cy="20.5" r="20" fill="#FDE14E"/>
<g clip-path="url(#clip0_589_519)">
<path d="M21.9047 10.9756H14.2856C13.7804 10.9756 13.296 11.1763 12.9388 11.5335C12.5815 11.8907 12.3809 12.3752 12.3809 12.8803V28.1184C12.3809 28.6236 12.5815 29.1081 12.9388 29.4653C13.296 29.8225 13.7804 30.0232 14.2856 30.0232H25.7142C26.2194 30.0232 26.7039 29.8225 27.0611 29.4653C27.4183 29.1081 27.619 28.6236 27.619 28.1184V16.6899L21.9047 10.9756Z" stroke="#121212" stroke-width="2" stroke-linecap="round" stroke-linejoin="round"/>
<path d="M21.9062 10.9756V16.6899H27.6205" stroke="#121212" stroke-width="2" stroke-linecap="round" stroke-linejoin="round"/>
<path d="M23.8124 21.4521H16.1934" stroke="#121212" stroke-width="2" stroke-linecap="round" stroke-linejoin="round"/>
<path d="M23.8124 25.2617H16.1934" stroke="#121212" stroke-width="2" stroke-linecap="round" stroke-linejoin="round"/>
<path d="M18.0981 17.6426H17.1457H16.1934" stroke="#121212" stroke-width="2" stroke-linecap="round" stroke-linejoin="round"/>
</g>
<defs>
<clipPath id="clip0_589_519">
<rect width="22.8571" height="22.8571" fill="white" transform="translate(8.57227 9.07129)"/>
</clipPath>
</defs>
</svg>
