<svg width="40" height="40" viewBox="0 0 40 40" fill="none" xmlns="http://www.w3.org/2000/svg">
<circle cx="20" cy="20" r="20" fill="#FDE14E"/>
<path d="M10.5876 19.7926C10.6376 17.3702 11.6234 15.0614 13.3385 13.35C14.2022 12.4862 15.2069 11.8058 16.3258 11.3328C17.4846 10.8437 18.7152 10.5939 19.9829 10.5939C21.2534 10.5939 22.4839 10.8411 23.6401 11.3328C24.759 11.8058 25.7636 12.4862 26.6274 13.35C26.654 13.3766 26.6804 13.4033 26.7066 13.4302C27.0936 13.8266 27.0142 14.462 26.5778 14.8033L26.04 15.2238C26.0084 15.2483 25.9843 15.2812 25.9705 15.3188C25.9567 15.3564 25.9538 15.3971 25.9622 15.4362C25.9705 15.4754 25.9897 15.5114 26.0176 15.5401C26.0455 15.5688 26.0809 15.5891 26.1198 15.5985L30.2872 16.6165C30.4201 16.6484 30.5503 16.5474 30.5503 16.4118L30.5716 12.1195C30.5716 11.9414 30.3669 11.8404 30.2287 11.952L29.7463 12.3295C29.3111 12.67 28.6854 12.5896 28.3084 12.1857C26.2304 9.9597 23.27 8.57129 19.9856 8.57129C13.7531 8.57129 8.68466 13.5706 8.57038 19.7819C8.56967 19.8103 8.57464 19.8385 8.58501 19.8649C8.59538 19.8913 8.61093 19.9154 8.63074 19.9357C8.65056 19.956 8.67424 19.9722 8.70039 19.9832C8.72654 19.9942 8.75463 19.9999 8.783 19.9999H10.3777C10.492 19.9999 10.585 19.9068 10.5876 19.7926ZM31.2148 19.9999H29.6201C29.5058 19.9999 29.4101 20.0929 29.4075 20.2072C29.3575 22.6295 28.3717 24.9384 26.6567 26.6497C25.8008 27.5091 24.7862 28.1942 23.6693 28.667C22.5105 29.156 21.2799 29.4058 20.0122 29.4058C18.7444 29.4058 17.5112 29.1587 16.3551 28.667C15.2381 28.1942 14.2235 27.5091 13.3677 26.6497C13.3409 26.6229 13.3142 26.5959 13.2878 26.5688C12.9011 26.1727 12.9802 25.5377 13.4159 25.1963L13.9524 24.7759C13.9841 24.7515 14.0082 24.7185 14.0219 24.6809C14.0357 24.6434 14.0386 24.6027 14.0303 24.5635C14.0219 24.5244 14.0027 24.4884 13.9749 24.4597C13.947 24.4309 13.9116 24.4107 13.8727 24.4012L9.70526 23.3833C9.57237 23.3514 9.44213 23.4524 9.44213 23.5879L9.42087 27.8856C9.42087 28.0637 9.62552 28.1646 9.76373 28.053L10.2479 27.6742C10.6824 27.3342 11.307 27.4138 11.6841 27.8164C13.766 30.0394 16.7271 31.4284 20.0122 31.4284C26.2447 31.4284 31.3131 26.4291 31.4274 20.2178C31.4281 20.1894 31.4231 20.1612 31.4128 20.1348C31.4024 20.1084 31.3868 20.0843 31.367 20.064C31.3472 20.0437 31.3235 20.0276 31.2974 20.0165C31.2712 20.0055 31.2431 19.9999 31.2148 19.9999Z" fill="#121212"/>
<path d="M19.2048 26.2853V25.0311C18.4595 24.9727 17.8319 24.7929 17.322 24.4915C16.812 24.1901 16.3707 23.8206 15.998 23.3831L17.0719 22.4205C17.3759 22.79 17.7044 23.0865 18.0575 23.3102C18.4203 23.5338 18.8371 23.6748 19.3078 23.7331V20.4663C18.2487 20.2426 17.4838 19.9072 17.013 19.46C16.5423 19.003 16.307 18.4051 16.307 17.6661C16.307 16.8883 16.5668 16.2709 17.0866 15.814C17.6063 15.357 18.3124 15.0799 19.2048 14.9827V13.7139H20.4552V14.9827C21.0828 15.041 21.6271 15.1966 22.088 15.4494C22.5587 15.7022 22.9657 16.0473 23.3089 16.4848L22.2204 17.3745C22.0046 17.0925 21.7448 16.8592 21.4408 16.6744C21.1466 16.48 20.7886 16.3487 20.3669 16.2807V19.2704C20.9455 19.3968 21.4261 19.5475 21.8085 19.7225C22.191 19.8975 22.4999 20.0968 22.7352 20.3204C22.9804 20.5343 23.1569 20.7871 23.2648 21.0788C23.3727 21.3608 23.4266 21.6913 23.4266 22.0705C23.4266 22.8581 23.1667 23.5143 22.647 24.0394C22.137 24.5644 21.4064 24.8852 20.4552 25.0019V26.2853H19.2048ZM21.8821 22.1726C21.8821 21.8031 21.7742 21.5017 21.5584 21.2684C21.3427 21.0253 20.9455 20.8309 20.3669 20.685V23.7185C20.8475 23.6407 21.2201 23.4657 21.4849 23.1935C21.7497 22.9212 21.8821 22.581 21.8821 22.1726ZM17.8368 17.5932C17.8368 18.0016 17.9545 18.3127 18.1898 18.5266C18.435 18.7308 18.8077 18.9009 19.3078 19.037V16.2661C18.8371 16.3341 18.4742 16.48 18.2193 16.7036C17.9643 16.9272 17.8368 17.2238 17.8368 17.5932Z" fill="#121212"/>
</svg>
