<svg width="40" height="41" viewBox="0 0 40 41" fill="none" xmlns="http://www.w3.org/2000/svg">
<circle cx="20" cy="20.5" r="20" fill="#FDE14E"/>
<g clip-path="url(#clip0_589_529)">
<path d="M22.0961 10.9756H14.477C13.9719 10.9756 13.4874 11.1763 13.1302 11.5335C12.7729 11.8907 12.5723 12.3752 12.5723 12.8803V28.1184C12.5723 28.6236 12.7729 29.1081 13.1302 29.4653C13.4874 29.8225 13.9719 30.0232 14.477 30.0232H25.9056C26.4108 30.0232 26.8953 29.8225 27.2525 29.4653C27.6097 29.1081 27.8104 28.6236 27.8104 28.1184V16.6899L22.0961 10.9756Z" stroke="#121212" stroke-width="2" stroke-linecap="round" stroke-linejoin="round"/>
<path d="M21.9062 10.9756V16.6899H27.6205" stroke="#121212" stroke-width="2" stroke-linecap="round" stroke-linejoin="round"/>
<path d="M17.1445 23.3574H22.8588" stroke="#121212" stroke-width="2" stroke-linecap="round" stroke-linejoin="round"/>
<mask id="path-5-outside-1_589_529" maskUnits="userSpaceOnUse" x="8.26172" y="9.33203" width="23" height="23" fill="black">
<rect fill="white" x="8.26172" y="9.33203" width="23" height="23"/>
<path fill-rule="evenodd" clip-rule="evenodd" d="M9.71582 10.5831C9.38109 10.9178 9.38109 11.4605 9.71582 11.7953L18.538 20.6174L9.51277 29.6426C9.17804 29.9773 9.17803 30.52 9.51277 30.8548C9.8475 31.1895 10.3902 31.1895 10.725 30.8548L19.7501 21.8296L28.7067 30.7861C29.0414 31.1209 29.5841 31.1209 29.9189 30.7861C30.2536 30.4514 30.2536 29.9087 29.9189 29.574L20.9623 20.6174L29.7158 11.8639C30.0506 11.5292 30.0506 10.9864 29.7158 10.6517C29.3811 10.317 28.8384 10.317 28.5036 10.6517L19.7501 19.4052L10.928 10.5831C10.5933 10.2483 10.0506 10.2483 9.71582 10.5831Z"/>
</mask>
<path fill-rule="evenodd" clip-rule="evenodd" d="M9.71582 10.5831C9.38109 10.9178 9.38109 11.4605 9.71582 11.7953L18.538 20.6174L9.51277 29.6426C9.17804 29.9773 9.17803 30.52 9.51277 30.8548C9.8475 31.1895 10.3902 31.1895 10.725 30.8548L19.7501 21.8296L28.7067 30.7861C29.0414 31.1209 29.5841 31.1209 29.9189 30.7861C30.2536 30.4514 30.2536 29.9087 29.9189 29.574L20.9623 20.6174L29.7158 11.8639C30.0506 11.5292 30.0506 10.9864 29.7158 10.6517C29.3811 10.317 28.8384 10.317 28.5036 10.6517L19.7501 19.4052L10.928 10.5831C10.5933 10.2483 10.0506 10.2483 9.71582 10.5831Z" fill="#121212"/>
<path d="M9.71582 11.7953L9.00872 12.5024L9.00872 12.5024L9.71582 11.7953ZM9.71582 10.5831L9.00872 9.87598L9.00872 9.87598L9.71582 10.5831ZM18.538 20.6174L19.2451 21.3245L19.9522 20.6174L19.2451 19.9103L18.538 20.6174ZM9.51277 29.6426L8.80566 28.9355L8.80566 28.9355L9.51277 29.6426ZM9.51277 30.8548L10.2199 30.1477L10.2199 30.1477L9.51277 30.8548ZM10.725 30.8548L10.0178 30.1477L10.0178 30.1477L10.725 30.8548ZM19.7501 21.8296L20.4572 21.1225L19.7501 20.4154L19.043 21.1225L19.7501 21.8296ZM28.7067 30.7861L29.4138 30.079L28.7067 30.7861ZM20.9623 20.6174L20.2552 19.9103L19.5481 20.6174L20.2552 21.3245L20.9623 20.6174ZM29.7158 11.8639L29.0087 11.1568V11.1568L29.7158 11.8639ZM29.7158 10.6517L30.4229 9.94461L30.4229 9.9446L29.7158 10.6517ZM28.5036 10.6517L27.7965 9.9446V9.9446L28.5036 10.6517ZM19.7501 19.4052L19.043 20.1123L19.7501 20.8194L20.4572 20.1123L19.7501 19.4052ZM10.928 10.5831L10.2209 11.2902V11.2902L10.928 10.5831ZM10.4229 11.0882C10.4787 11.1439 10.4787 11.2344 10.4229 11.2902L9.00872 9.87598C8.28346 10.6012 8.28346 11.7771 9.00872 12.5024L10.4229 11.0882ZM19.2451 19.9103L10.4229 11.0882L9.00872 12.5024L17.8308 21.3245L19.2451 19.9103ZM10.2199 30.3497L19.2451 21.3245L17.8308 19.9103L8.80566 28.9355L10.2199 30.3497ZM10.2199 30.1477C10.2757 30.2034 10.2757 30.2939 10.2199 30.3497L8.80566 28.9355C8.08041 29.6607 8.0804 30.8366 8.80566 31.5619L10.2199 30.1477ZM10.0178 30.1477C10.0736 30.0919 10.1641 30.0919 10.2199 30.1477L8.80566 31.5619C9.53092 32.2871 10.7068 32.2871 11.4321 31.5619L10.0178 30.1477ZM19.043 21.1225L10.0178 30.1477L11.4321 31.5619L20.4572 22.5367L19.043 21.1225ZM29.4138 30.079L20.4572 21.1225L19.043 22.5367L27.9996 31.4932L29.4138 30.079ZM29.2118 30.079C29.2676 30.0232 29.358 30.0232 29.4138 30.079L27.9996 31.4932C28.7248 32.2185 29.9007 32.2185 30.626 31.4932L29.2118 30.079ZM29.2118 30.2811C29.156 30.2253 29.156 30.1348 29.2118 30.079L30.626 31.4932C31.3512 30.768 31.3512 29.5921 30.626 28.8668L29.2118 30.2811ZM20.2552 21.3245L29.2118 30.2811L30.626 28.8668L21.6694 19.9103L20.2552 21.3245ZM29.0087 11.1568L20.2552 19.9103L21.6694 21.3245L30.4229 12.571L29.0087 11.1568ZM29.0087 11.3588C28.9529 11.303 28.9529 11.2126 29.0087 11.1568L30.4229 12.571C31.1482 11.8457 31.1482 10.6699 30.4229 9.94461L29.0087 11.3588ZM29.2107 11.3588C29.155 11.4146 29.0645 11.4146 29.0087 11.3588L30.4229 9.9446C29.6977 9.21934 28.5218 9.21935 27.7965 9.9446L29.2107 11.3588ZM20.4572 20.1123L29.2107 11.3588L27.7965 9.9446L19.043 18.6981L20.4572 20.1123ZM10.2209 11.2902L19.043 20.1123L20.4572 18.6981L11.6351 9.87598L10.2209 11.2902ZM10.4229 11.2902C10.3671 11.346 10.2767 11.346 10.2209 11.2902L11.6351 9.87598C10.9099 9.15072 9.73398 9.15072 9.00872 9.87598L10.4229 11.2902Z" fill="#FDE14E" mask="url(#path-5-outside-1_589_529)"/>
</g>
<defs>
<clipPath id="clip0_589_529">
<rect width="22.8571" height="22.8571" fill="white" transform="translate(8.57227 9.07129)"/>
</clipPath>
</defs>
</svg>
