<svg width="40" height="41" viewBox="0 0 40 41" fill="none" xmlns="http://www.w3.org/2000/svg">
<circle cx="20" cy="20.5" r="20" fill="#FDE14E"/>
<g clip-path="url(#clip0_589_561)">
<path d="M24.2863 18.0239L15.7148 13.0811" stroke="#121212" stroke-width="2" stroke-linecap="round" stroke-linejoin="round"/>
<path d="M28.5725 24.3089V16.6899C28.5722 16.3558 28.484 16.0278 28.3169 15.7386C28.1497 15.4494 27.9094 15.2093 27.6202 15.0423L20.9535 11.2327C20.6639 11.0656 20.3355 10.9775 20.0011 10.9775C19.6668 10.9775 19.3383 11.0656 19.0487 11.2327L12.3821 15.0423C12.0928 15.2093 11.8525 15.4494 11.6854 15.7386C11.5182 16.0278 11.43 16.3558 11.4297 16.6899V24.3089C11.43 24.6429 11.5182 24.971 11.6854 25.2602C11.8525 25.5494 12.0928 25.7895 12.3821 25.9565L19.0487 29.7661C19.3383 29.9332 19.6668 30.0213 20.0011 30.0213C20.3355 30.0213 20.6639 29.9332 20.9535 29.7661L27.6202 25.9565C27.9094 25.7895 28.1497 25.5494 28.3169 25.2602C28.484 24.971 28.5722 24.6429 28.5725 24.3089Z" stroke="#121212" stroke-width="2" stroke-linecap="round" stroke-linejoin="round"/>
<path d="M11.6875 15.6992L20.0018 20.5087L28.3161 15.6992" stroke="#121212" stroke-width="2" stroke-linecap="round" stroke-linejoin="round"/>
<path d="M20 30.1V20.5" stroke="#121212" stroke-width="2" stroke-linecap="round" stroke-linejoin="round"/>
<mask id="path-6-outside-1_589_561" maskUnits="userSpaceOnUse" x="8.83203" y="8.76367" width="23" height="24" fill="black">
<rect fill="white" x="8.83203" y="8.76367" width="23" height="24"/>
<path fill-rule="evenodd" clip-rule="evenodd" d="M10.0783 10.0194C9.74993 10.3604 9.74994 10.9132 10.0783 11.2542L18.9335 20.4487L10.2586 29.4561C9.93021 29.797 9.93021 30.3498 10.2586 30.6908C10.587 31.0318 11.1194 31.0318 11.4478 30.6908L20.1227 21.6834L28.7089 30.5986C29.0372 30.9396 29.5697 30.9396 29.898 30.5986C30.2264 30.2577 30.2264 29.7048 29.898 29.3639L21.3119 20.4487L30.0783 11.3463C30.4067 11.0054 30.4067 10.4525 30.0783 10.1116C29.7499 9.77061 29.2175 9.77061 28.8891 10.1116L20.1227 19.2139L11.2675 10.0194C10.9391 9.67843 10.4067 9.67843 10.0783 10.0194Z"/>
</mask>
<path fill-rule="evenodd" clip-rule="evenodd" d="M10.0783 10.0194C9.74993 10.3604 9.74994 10.9132 10.0783 11.2542L18.9335 20.4487L10.2586 29.4561C9.93021 29.797 9.93021 30.3498 10.2586 30.6908C10.587 31.0318 11.1194 31.0318 11.4478 30.6908L20.1227 21.6834L28.7089 30.5986C29.0372 30.9396 29.5697 30.9396 29.898 30.5986C30.2264 30.2577 30.2264 29.7048 29.898 29.3639L21.3119 20.4487L30.0783 11.3463C30.4067 11.0054 30.4067 10.4525 30.0783 10.1116C29.7499 9.77061 29.2175 9.77061 28.8891 10.1116L20.1227 19.2139L11.2675 10.0194C10.9391 9.67843 10.4067 9.67843 10.0783 10.0194Z" fill="#121212"/>
<path d="M10.0783 11.2542L9.35805 11.9478L9.35805 11.9478L10.0783 11.2542ZM10.0783 10.0194L10.7986 10.7131L10.7986 10.7131L10.0783 10.0194ZM18.9335 20.4487L19.6538 21.1424L20.3219 20.4487L19.6538 19.755L18.9335 20.4487ZM10.2586 29.4561L10.9789 30.1497H10.9789L10.2586 29.4561ZM10.2586 30.6908L9.53832 31.3845L9.53832 31.3845L10.2586 30.6908ZM11.4478 30.6908L10.7275 29.9971L10.7275 29.9971L11.4478 30.6908ZM20.1227 21.6834L20.843 20.9898L20.1227 20.2419L19.4024 20.9898L20.1227 21.6834ZM28.7089 30.5986L29.4291 29.9049L29.4291 29.9049L28.7089 30.5986ZM29.898 30.5986L30.6183 31.2923L30.6183 31.2923L29.898 30.5986ZM29.898 29.3639L30.6183 28.6702L29.898 29.3639ZM21.3119 20.4487L20.5916 19.755L19.9235 20.4487L20.5916 21.1424L21.3119 20.4487ZM30.0783 11.3463L29.358 10.6526V10.6526L30.0783 11.3463ZM30.0783 10.1116L29.358 10.8053L29.358 10.8053L30.0783 10.1116ZM28.8891 10.1116L28.1689 9.41788V9.41788L28.8891 10.1116ZM20.1227 19.2139L19.4024 19.9076L20.1227 20.6555L20.843 19.9076L20.1227 19.2139ZM11.2675 10.0194L10.5472 10.7131L11.2675 10.0194ZM10.7986 10.5605C10.8247 10.5875 10.832 10.6175 10.832 10.6368C10.832 10.6561 10.8247 10.686 10.7986 10.7131L9.35805 9.32571C8.65669 10.0539 8.65669 11.2196 9.35805 11.9478L10.7986 10.5605ZM19.6538 19.755L10.7986 10.5605L9.35805 11.9478L18.2132 21.1424L19.6538 19.755ZM10.9789 30.1497L19.6538 21.1424L18.2132 19.755L9.53832 28.7624L10.9789 30.1497ZM10.9789 29.9971C11.0049 30.0242 11.0123 30.0542 11.0123 30.0734C11.0123 30.0927 11.0049 30.1227 10.9789 30.1497L9.53832 28.7624C8.83696 29.4906 8.83697 30.6563 9.53832 31.3845L10.9789 29.9971ZM10.7275 29.9971C10.7554 29.9682 10.8018 29.9465 10.8532 29.9465C10.9045 29.9465 10.951 29.9682 10.9789 29.9971L9.53832 31.3845C10.26 32.1339 11.4463 32.1339 12.168 31.3845L10.7275 29.9971ZM19.4024 20.9898L10.7275 29.9971L12.168 31.3845L20.843 22.3771L19.4024 20.9898ZM29.4291 29.9049L20.843 20.9898L19.4024 22.3771L27.9886 31.2923L29.4291 29.9049ZM29.1778 29.9049C29.2057 29.876 29.2521 29.8544 29.3035 29.8544C29.3548 29.8544 29.4013 29.876 29.4291 29.9049L27.9886 31.2923C28.7103 32.0417 29.8966 32.0417 30.6183 31.2923L29.1778 29.9049ZM29.1778 30.0576C29.1517 30.0305 29.1443 30.0005 29.1443 29.9813C29.1443 29.962 29.1517 29.932 29.1778 29.9049L30.6183 31.2923C31.3197 30.5641 31.3197 29.3984 30.6183 28.6702L29.1778 30.0576ZM20.5916 21.1424L29.1778 30.0576L30.6183 28.6702L22.0322 19.755L20.5916 21.1424ZM29.358 10.6526L20.5916 19.755L22.0322 21.1424L30.7986 12.04L29.358 10.6526ZM29.358 10.8053C29.332 10.7782 29.3246 10.7482 29.3246 10.729C29.3246 10.7097 29.332 10.6797 29.358 10.6526L30.7986 12.04C31.4999 11.3118 31.4999 10.1461 30.7986 9.41788L29.358 10.8053ZM29.6094 10.8053C29.5815 10.8342 29.5351 10.8558 29.4837 10.8558C29.4324 10.8558 29.3859 10.8342 29.358 10.8053L30.7986 9.41789C30.0769 8.6685 28.8906 8.66851 28.1689 9.41788L29.6094 10.8053ZM20.843 19.9076L29.6094 10.8053L28.1689 9.41788L19.4024 18.5203L20.843 19.9076ZM10.5472 10.7131L19.4024 19.9076L20.843 18.5203L11.9878 9.32571L10.5472 10.7131ZM10.7986 10.7131C10.7707 10.742 10.7242 10.7637 10.6729 10.7637C10.6216 10.7637 10.5751 10.742 10.5472 10.7131L11.9878 9.32571C11.2661 8.57633 10.0798 8.57633 9.35805 9.32571L10.7986 10.7131Z" fill="#FDE14E" mask="url(#path-6-outside-1_589_561)"/>
</g>
<defs>
<clipPath id="clip0_589_561">
<rect width="22.8571" height="22.8571" fill="white" transform="translate(8.57227 9.07129)"/>
</clipPath>
</defs>
</svg>
