<svg width="40" height="41" viewBox="0 0 40 41" fill="none" xmlns="http://www.w3.org/2000/svg">
<circle cx="20" cy="20.5" r="20" fill="#FDE14E"/>
<path d="M27.6214 15.7383H12.3833C11.3313 15.7383 10.4785 16.5911 10.4785 17.643V27.1669C10.4785 28.2188 11.3313 29.0716 12.3833 29.0716H27.6214C28.6733 29.0716 29.5261 28.2188 29.5261 27.1669V17.643C29.5261 16.5911 28.6733 15.7383 27.6214 15.7383Z" stroke="#121212" stroke-width="2" stroke-linecap="round" stroke-linejoin="round"/>
<path d="M23.8124 29.0716V13.8335C23.8124 13.3283 23.6117 12.8438 23.2545 12.4866C22.8973 12.1294 22.4128 11.9287 21.9076 11.9287H18.0981C17.5929 11.9287 17.1085 12.1294 16.7513 12.4866C16.394 12.8438 16.1934 13.3283 16.1934 13.8335V29.0716" stroke="#121212" stroke-width="2" stroke-linecap="round" stroke-linejoin="round"/>
</svg>
