<svg width="510" height="418" viewBox="0 0 510 418" fill="none" xmlns="http://www.w3.org/2000/svg">
<g clip-path="url(#clip0_615_283)">
<path d="M449.209 311.691H443.402V328.928H449.209V311.691Z" fill="#F2F2F2"/>
<path d="M478.651 324.949H413.969C409.16 324.949 405.262 321.053 405.262 316.246C405.262 311.44 409.16 307.543 413.969 307.543H478.651C483.46 307.543 487.359 311.44 487.359 316.246C487.359 321.053 483.46 324.949 478.651 324.949Z" fill="#F2F2F2"/>
<path d="M483.626 324.95C487.519 324.95 490.675 321.796 490.675 317.905V234.188C490.675 230.297 487.519 227.143 483.626 227.143C479.733 227.143 476.577 230.297 476.577 234.188C455.169 250.564 463.87 283.156 476.577 317.905C476.577 321.796 479.733 324.95 483.626 324.95Z" fill="#F2F2F2"/>
<path d="M474.985 288.154C474.028 292.44 472.224 295.825 469.961 298.492C465.351 303.946 458.817 306.42 453.664 307.543C449.035 308.554 445.52 308.471 445.52 308.471L423.757 310.265L406.559 311.682L389.277 313.107C390.262 317.246 391.2 322.001 392.093 327.088C392.194 327.695 392.305 328.311 392.415 328.927H357.319L356.73 327.088L353.122 315.912L345.807 299.936C344.473 297.333 343.801 294.491 343.801 291.63C343.801 289.726 344.104 287.832 344.703 285.992C344.712 285.964 344.712 285.937 344.721 285.909C346.129 281.66 349.607 278.404 353.914 277.107L359.113 275.534C373.855 272.094 394.513 266.732 410.267 262.574C423.426 259.098 433.153 256.449 433.153 256.449L433.18 256.265L435.904 237.648L463.059 235.266L471.884 234.484C471.884 234.484 471.691 235.404 471.764 238.706C471.764 238.909 471.764 239.12 471.774 239.332C471.792 239.975 471.82 240.711 471.856 241.53C471.866 241.806 471.884 242.091 471.902 242.385C471.93 242.956 471.967 243.563 472.013 244.216C472.013 244.262 472.013 244.308 472.022 244.354C472.068 245.172 472.132 246.064 472.215 247.021C472.234 247.416 472.271 247.821 472.307 248.235C472.482 250.323 472.703 252.714 472.988 255.437C473.007 255.713 473.034 255.989 473.071 256.265C473.108 256.697 473.154 257.129 473.2 257.571C473.292 258.343 473.375 259.134 473.467 259.962C473.476 260.045 473.485 260.119 473.494 260.201C473.577 260.928 473.669 261.673 473.752 262.446C473.853 263.283 473.955 264.138 474.065 265.012C474.129 265.6 474.203 266.208 474.286 266.833C474.323 267.127 474.359 267.431 474.396 267.734C474.442 268.056 474.479 268.387 474.525 268.719C474.599 269.307 474.672 269.914 474.755 270.531C474.93 271.901 475.123 273.317 475.316 274.789C476.025 280.004 475.822 284.428 474.985 288.154Z" fill="#121212"/>
<path d="M474.986 288.154L467.873 291.226L430.062 307.542L423.759 310.265L408.281 316.943C408.723 319.27 409.192 321.569 409.698 323.832C409.937 324.926 410.176 326.012 410.434 327.088C410.581 327.704 410.719 328.311 410.876 328.927H379.552L379.313 327.088L378.402 319.886C376.589 318.267 375.522 315.167 374.877 311.875C374.233 308.591 374.003 305.087 373.847 302.658C373.847 302.631 373.847 302.594 373.838 302.566C373.58 298.078 382.349 295.098 385.855 292.302L390.162 290.876C399.06 284.704 412.284 275.359 425.084 266.281C429.933 262.841 434.727 259.438 439.19 256.265C453.067 246.386 463.87 238.669 463.87 238.669L463.061 235.266L471.885 234.484C471.885 234.484 471.692 235.404 471.766 238.706C471.766 238.909 471.766 239.12 471.775 239.332C471.793 239.985 471.821 240.711 471.858 241.53C471.867 241.806 471.885 242.091 471.904 242.385C471.931 242.956 471.968 243.563 472.014 244.216C472.014 244.262 472.014 244.308 472.023 244.354C472.069 245.172 472.134 246.064 472.217 247.021C472.235 247.416 472.272 247.821 472.309 248.235C472.474 250.323 472.695 252.705 472.99 255.437C473.008 255.713 473.036 255.989 473.072 256.265C473.109 256.697 473.155 257.129 473.201 257.571C473.293 258.343 473.376 259.144 473.468 259.962C473.477 260.045 473.487 260.119 473.496 260.201C473.579 260.928 473.671 261.673 473.753 262.446C473.855 263.283 473.956 264.138 474.066 265.012C474.14 265.61 474.213 266.217 474.287 266.833C474.324 267.127 474.361 267.431 474.398 267.734C474.444 268.056 474.48 268.387 474.526 268.719C474.6 269.307 474.674 269.914 474.756 270.531C474.931 271.901 475.124 273.317 475.318 274.789C476.026 280.004 475.824 284.428 474.986 288.154Z" fill="#121212"/>
<path d="M480.649 243.934C482.094 250.106 481.514 254.337 480.944 260.37C480.732 262.596 481.459 265.797 479.296 267.296C477.447 268.556 410.907 267.959 410.29 262.808C409.591 256.986 410.953 250.878 413.796 245.626C418.94 236.116 421.885 224.471 423.394 216.203C426.587 198.828 419.391 189.391 422.078 172.062C422.538 169.11 422.63 166.314 422.52 163.637C422.152 154.338 419.281 146.446 420.192 138.435C420.569 135.142 421.581 131.831 423.67 128.391C424.287 127.37 424.995 126.34 425.814 125.301C430.562 119.249 431.805 114.686 440.05 114.696C441.31 114.696 442.654 114.613 444.016 114.548C446.197 114.429 448.424 114.346 450.393 114.696C455.123 115.533 454.074 118.504 457.129 121.76L458.307 122.937C461.251 125.255 463.8 127.067 466.377 129.863C471.548 135.473 477.686 141.783 480.732 148.792C482.793 153.547 481.542 160.813 481.486 166.001C481.422 172.669 479.361 178.271 477.64 184.627C476.14 190.145 475.744 195.94 474.723 201.578C473.407 208.872 472.211 216.065 471.604 223.414C471.134 229.181 479.269 219.643 479.287 225.419C479.306 231.407 479.287 238.139 480.649 243.934Z" fill="#3F3D56"/>
<path d="M365.384 132.844L385.875 136.511L385.413 148.503L363.886 143.856C363.3 144.185 362.656 144.435 361.965 144.586C358.205 145.407 354.492 143.027 353.67 139.269C352.848 135.511 355.23 131.799 358.989 130.978C361.387 130.454 363.762 131.236 365.384 132.844Z" fill="#FFB6B6"/>
<path d="M447.453 160.996C446.551 162.835 445.153 164.427 443.358 165.585C440.708 167.296 437.598 167.765 434.717 167.14C434.368 167.066 433.181 166.735 431.359 166.202C431.046 166.11 430.715 166.018 430.365 165.917C428.294 165.319 425.598 164.528 422.516 163.636C419.46 162.743 416 161.741 412.421 160.711L412.402 160.72C411.317 160.389 410.194 160.067 409.081 159.745H409.062C400.734 157.381 392.02 154.971 385.671 153.426C385.376 153.343 383.849 154.806 383.563 154.732C383.122 154.622 383.039 152.938 382.625 152.837C381.732 152.617 380.563 154.005 379.827 153.821C377.149 153.168 376.082 147.475 376.082 147.475L376.202 146.518L377.545 135.021L377.564 134.819L385.137 132.437L387.658 134.874L391.155 133.421L394.412 135.858L401.066 136.52L403.937 136.815L404.13 136.824L420.187 138.434L424.917 138.912C424.54 136.999 424.246 135.104 424.034 133.237C423.979 132.713 423.923 132.197 423.887 131.682L423.877 131.673C423.776 130.569 423.712 129.484 423.666 128.39C424.282 127.369 424.991 126.338 425.81 125.299C430.558 119.247 431.8 114.685 440.045 114.694C441.306 114.694 442.65 114.611 444.012 114.547L446.137 133.366L448.475 154.061L448.548 154.732C448.787 156.94 448.392 159.101 447.453 160.996Z" fill="#3F3D56"/>
<path d="M407.664 126.878C406.615 126.124 405.271 125.986 404.084 126.51L368.325 142.266C365.068 143.701 361.387 143.958 357.964 142.993L357.439 142.846C358.928 129.622 355.128 115.391 347.666 100.462C346.7 100.333 345.734 100.591 344.952 101.198C344.032 101.915 343.516 103.001 343.553 104.178L344.676 145.623L345.053 159.383C336.898 169.148 333.949 178.183 345.752 185.146C345.789 186.443 346.498 187.602 347.639 188.227C348.78 188.862 350.133 188.844 351.255 188.181L351.982 187.749L361.801 201.5C362.454 201.242 363.135 201.114 363.825 201.114C364.773 201.114 365.721 201.353 366.567 201.84L384.429 212.114L396.594 219.114C397.68 219.739 398.996 219.767 400.109 219.187C401.222 218.599 401.94 217.504 402.051 216.253L402.391 212.114L403.523 198.501L405.382 176.04L406.265 165.325L406.403 163.725L409.182 130.143C409.293 128.846 408.722 127.623 407.664 126.878Z" fill="#F2F2F2"/>
<path d="M410.426 131.476C409.377 130.722 408.033 130.584 406.846 131.108C393.91 141.062 381.401 149.042 371.087 146.864C367.829 148.299 364.149 148.556 360.725 147.59L360.201 147.443C361.69 134.219 357.89 119.988 350.428 105.06C349.462 104.931 348.496 105.188 347.714 105.796C346.793 106.513 346.278 107.598 346.315 108.776L347.438 150.221L347.815 163.981C339.66 173.746 336.71 182.78 348.514 189.744C348.551 191.041 349.26 192.2 350.401 192.825C351.542 193.46 352.894 193.441 354.017 192.779L354.744 192.347L364.563 206.098C365.216 205.84 365.897 205.711 366.587 205.711C367.535 205.711 368.483 205.95 369.329 206.438L387.19 216.712L399.355 223.711C400.441 224.337 401.757 224.364 402.871 223.785C403.984 223.196 404.702 222.102 404.812 220.851L405.153 216.712L406.285 203.099L408.143 180.638L409.027 169.923L409.165 168.322L411.944 134.741C412.054 133.444 411.484 132.221 410.426 131.476Z" fill="#E6E6E6"/>
<path d="M403.795 150.132L376.352 156.803L376.743 158.413L404.187 151.742L403.795 150.132Z" fill="white"/>
<path d="M403.795 162.563L376.352 169.234L376.743 170.845L404.187 164.174L403.795 162.563Z" fill="white"/>
<path d="M376.168 178.841L376.133 180.498L404.37 181.093L404.405 179.436L376.168 178.841Z" fill="white"/>
<path d="M376.217 190.754L376.121 192.408L404.317 194.047L404.413 192.392L376.217 190.754Z" fill="white"/>
<path d="M374.798 202.608L374.535 204.244L402.422 208.718L402.685 207.082L374.798 202.608Z" fill="white"/>
<path d="M290.409 216.715H503.063C504.892 216.715 506.374 220.912 506.374 226.09V246.89C506.374 252.068 504.892 256.265 503.063 256.265H321.696C319.867 256.265 318.385 252.068 318.385 246.89L287.098 226.09C287.098 220.912 288.58 216.715 290.409 216.715Z" fill="#F2F2F2"/>
<path d="M443.136 83.8864C442.989 83.6288 442.832 83.3805 442.667 83.1414C442.51 82.893 442.335 82.6539 442.161 82.4239C442.078 82.3043 441.995 82.194 441.903 82.0928C441.075 81.035 440.154 80.1796 439.216 79.6646C439.151 79.6278 439.087 79.591 439.023 79.5634C438.875 79.4807 438.728 79.4163 438.572 79.3611C438.286 79.2507 438.001 79.1679 437.707 79.1311C437.569 79.1127 437.431 79.1035 437.293 79.1035C437.191 79.1035 437.09 79.1127 436.989 79.1219C436.934 79.1311 436.869 79.1403 436.805 79.1495C436.731 79.1587 436.649 79.1771 436.575 79.1955C436.492 79.2139 436.409 79.2415 436.336 79.2691C436.262 79.2967 436.179 79.3243 436.106 79.3611C436.023 79.3979 435.94 79.4346 435.866 79.4807C435.784 79.5266 435.71 79.5726 435.636 79.6186C435.553 79.6738 435.48 79.729 435.406 79.7841C438.222 81.3754 440.983 83.0678 443.67 84.8429C443.504 84.5118 443.329 84.1991 443.136 83.8864Z" fill="#3F3D56"/>
<path d="M443.136 83.8864C442.989 83.6288 442.832 83.3805 442.667 83.1414C442.51 82.893 442.335 82.6539 442.161 82.4239C442.078 82.3043 441.995 82.194 441.903 82.0928C441.075 81.035 440.154 80.1796 439.216 79.6646C439.151 79.6278 439.087 79.591 439.023 79.5634C438.875 79.4807 438.728 79.4163 438.572 79.3611C438.286 79.2507 438.001 79.1679 437.707 79.1311C437.569 79.1127 437.431 79.1035 437.293 79.1035C437.191 79.1035 437.09 79.1127 436.989 79.1219C436.934 79.1311 436.869 79.1403 436.805 79.1495C436.731 79.1587 436.649 79.1771 436.575 79.1955C436.492 79.2139 436.409 79.2415 436.336 79.2691C436.262 79.2967 436.179 79.3243 436.106 79.3611C436.023 79.3979 435.94 79.4346 435.866 79.4807C435.784 79.5266 435.71 79.5726 435.636 79.6186C435.553 79.6738 435.48 79.729 435.406 79.7841C438.222 81.3754 440.983 83.0678 443.67 84.8429C443.504 84.5118 443.329 84.1991 443.136 83.8864Z" fill="#3F3D56"/>
<path d="M489.12 59.4297H191.148V61.2692H364.901C382.542 61.2692 399.428 64.4517 415.034 70.2831H415.043C417.187 71.0833 419.295 71.9295 421.384 72.8309C426.205 74.8912 430.88 77.2183 435.408 79.7844C438.223 81.3757 440.984 83.068 443.671 84.8432C449.413 88.6235 454.861 92.8085 459.977 97.3614L459.986 97.3706C460.216 97.5638 460.437 97.757 460.658 97.9685C489.819 124.173 508.159 162.178 508.159 204.461V308.055C508.159 318.339 500.006 326.709 490.675 317.023C490.463 316.802 490.252 316.582 490.04 316.343H311.695V328.925H489.12C500.632 328.925 509.999 319.562 509.999 308.055V80.2995C509.999 68.793 500.632 59.4297 489.12 59.4297Z" fill="#3F3D56"/>
<path d="M443.136 83.8864C442.989 83.6288 442.832 83.3805 442.667 83.1414C442.51 82.893 442.335 82.6539 442.161 82.4239C442.078 82.3043 441.995 82.194 441.903 82.0928C441.075 81.035 440.154 80.1796 439.216 79.6646C439.151 79.6278 439.087 79.591 439.023 79.5634C438.875 79.4807 438.728 79.4163 438.572 79.3611C438.286 79.2507 438.001 79.1679 437.707 79.1311C437.569 79.1127 437.431 79.1035 437.293 79.1035C437.191 79.1035 437.09 79.1127 436.989 79.1219C436.934 79.1311 436.869 79.1403 436.805 79.1495C436.731 79.1587 436.649 79.1771 436.575 79.1955C436.492 79.2139 436.409 79.2415 436.336 79.2691C436.262 79.2967 436.179 79.3243 436.106 79.3611C436.023 79.3979 435.94 79.4346 435.866 79.4807C435.784 79.5266 435.71 79.5726 435.636 79.6186C435.553 79.6738 435.48 79.729 435.406 79.7841C438.222 81.3754 440.983 83.0678 443.67 84.8429C443.504 84.5118 443.329 84.1991 443.136 83.8864Z" fill="#3F3D56"/>
<path d="M443.136 83.8864C442.989 83.6288 442.832 83.3805 442.667 83.1414C442.51 82.893 442.335 82.6539 442.161 82.4239C442.078 82.3043 441.995 82.194 441.903 82.0928C441.075 81.035 440.154 80.1796 439.216 79.6646C439.151 79.6278 439.087 79.591 439.023 79.5634C438.875 79.4807 438.728 79.4163 438.572 79.3611C438.286 79.2507 438.001 79.1679 437.707 79.1311C437.569 79.1127 437.431 79.1035 437.293 79.1035C437.191 79.1035 437.09 79.1127 436.989 79.1219C436.934 79.1311 436.869 79.1403 436.805 79.1495C436.731 79.1587 436.649 79.1771 436.575 79.1955C436.492 79.2139 436.409 79.2415 436.336 79.2691C436.262 79.2967 436.179 79.3243 436.106 79.3611C436.023 79.3979 435.94 79.4346 435.866 79.4807C435.784 79.5266 435.71 79.5726 435.636 79.6186C435.553 79.6738 435.48 79.729 435.406 79.7841C438.222 81.3754 440.983 83.0678 443.67 84.8429C443.504 84.5118 443.329 84.1991 443.136 83.8864Z" fill="#3F3D56"/>
<path d="M443.136 83.8864C442.989 83.6288 442.832 83.3805 442.667 83.1414C442.51 82.893 442.335 82.6539 442.161 82.4239C442.078 82.3043 441.995 82.194 441.903 82.0928C441.075 81.035 440.154 80.1796 439.216 79.6646C439.151 79.6278 439.087 79.591 439.023 79.5634C438.875 79.4807 438.728 79.4163 438.572 79.3611C438.286 79.2507 438.001 79.1679 437.707 79.1311C437.569 79.1127 437.431 79.1035 437.293 79.1035C437.191 79.1035 437.09 79.1127 436.989 79.1219C436.934 79.1311 436.869 79.1403 436.805 79.1495C436.731 79.1587 436.649 79.1771 436.575 79.1955C436.492 79.2139 436.409 79.2415 436.336 79.2691C436.262 79.2967 436.179 79.3243 436.106 79.3611C436.023 79.3979 435.94 79.4346 435.866 79.4807C435.784 79.5266 435.71 79.5726 435.636 79.6186C435.553 79.6738 435.48 79.729 435.406 79.7841C438.222 81.3754 440.983 83.0678 443.67 84.8429C443.504 84.5118 443.329 84.1991 443.136 83.8864Z" fill="#3F3D56"/>
<path d="M436.426 110.244C436.964 110.308 437.5 110.357 438.033 110.381C439.692 110.472 441.332 110.377 442.912 110.11C447.712 109.341 452.073 107.068 455.438 103.735C458.995 100.219 461.43 95.5254 462.088 90.1821C463.63 77.5696 454.645 66.0805 442.026 64.5394C429.589 63.0114 418.252 71.7064 416.442 84.0293C416.413 84.2201 416.384 84.4028 416.364 84.5927C414.823 97.2133 423.799 108.695 436.426 110.244Z" fill="#FFB6B6"/>
<path d="M411.253 83.1858C414.522 84.8015 419.863 79.7221 421.908 82.6445C422.241 82.013 422.608 81.4022 422.97 80.8246C423.298 80.3077 423.767 79.2044 424.311 79.0155C423.623 80.6727 423.775 82.9172 424.488 84.8402C427.712 86.0444 431.933 83.3789 434.917 80.226C439.603 75.2823 447.255 87.9594 445.445 94.5201C447.748 91.7098 452.744 93.2949 454.437 96.5082C456.13 99.7135 453.27 102.282 452.659 105.857L457.275 105.271C460.187 102.436 459.983 97.6587 462.381 94.3728C466.387 88.8738 467.939 83.263 464.928 77.5878C462.257 72.5697 462.007 66.0753 457.107 63.1822C459.248 62.1359 451.634 63.7705 453.668 60.3606C455.71 56.9579 444.822 56.5449 444.112 58.3679C441 54.6459 437.862 52.1919 434.035 55.1743C430.276 58.1085 430.665 61.1926 426.25 60.9163C424.179 60.788 424.406 64.6485 423.175 66.3317C421.95 68.0058 417.191 69.0806 416.959 68.9014C415.702 67.9184 411.426 76.2869 411.426 76.2869C411.426 76.2869 407.958 81.5486 411.253 83.1858Z" fill="#121212"/>
<path d="M353.493 3.22266H306.111C301.924 3.22266 298.52 6.63506 298.52 10.82V58.1795C298.52 58.6026 298.556 59.0257 298.621 59.4304C298.731 60.0743 298.915 60.6905 299.173 61.27C300.36 63.9189 303.029 65.7677 306.111 65.7677H353.493C356.575 65.7677 359.244 63.9189 360.431 61.27C360.698 60.6905 360.882 60.0743 360.983 59.4304C361.057 59.0257 361.093 58.6026 361.093 58.1795V10.8201C361.093 6.63507 357.679 3.22266 353.493 3.22266ZM359.428 61.27C358.314 63.4131 356.078 64.8755 353.493 64.8755H306.111C303.525 64.8755 301.289 63.4131 300.176 61.27C299.872 60.6997 299.651 60.0835 299.532 59.4304C299.449 59.0257 299.412 58.6026 299.412 58.1795V10.8201C299.412 10.7189 299.412 10.6269 299.431 10.5349V10.5257C299.578 6.95697 302.513 4.11488 306.111 4.11488H330C338.788 4.11488 346.701 7.87675 352.223 13.8737C352.25 13.9105 352.278 13.9381 352.305 13.9657L352.351 14.0117C356.106 18.1323 358.728 23.3198 359.732 29.0501C359.768 29.2709 359.814 29.4824 359.842 29.7031C359.851 29.7492 359.851 29.7951 359.86 29.8319C360.081 31.2944 360.192 32.7844 360.192 34.302V58.1795C360.192 58.6026 360.155 59.0257 360.072 59.4304C359.952 60.0835 359.732 60.6997 359.428 61.27Z" fill="#E6E6E6"/>
<path d="M360.25 34.4986C360.25 17.6895 345.186 2.98589 328.572 0.382891C307.542 -2.91193 288.208 15.6127 290.99 34.5978C293.428 51.2294 321.988 75.3521 329.8 60.4667C338.739 43.4336 360.25 51.3077 360.25 34.4986Z" fill="#FDE14E"/>
<path d="M336.106 21.168H320.813C320.426 21.168 320.113 21.4807 320.113 21.867C320.113 22.2533 320.426 22.5661 320.813 22.5661H336.106C336.493 22.5661 336.806 22.2533 336.806 21.867C336.806 21.4807 336.493 21.168 336.106 21.168Z" fill="white"/>
<path d="M336.106 36.0781H320.813C320.426 36.0781 320.113 36.3908 320.113 36.768C320.113 37.1542 320.426 37.4762 320.813 37.4762H336.106C336.493 37.4762 336.806 37.1542 336.806 36.768C336.806 36.3908 336.493 36.0781 336.106 36.0781Z" fill="white"/>
<path d="M344.316 28.627H312.606C312.219 28.627 311.906 28.9397 311.906 29.326C311.906 29.7123 312.219 30.025 312.606 30.025H344.316C344.702 30.025 345.015 29.7123 345.015 29.326C345.015 28.9397 344.702 28.627 344.316 28.627Z" fill="white"/>
<path d="M401.907 164.806L420.643 173.875L416.954 185.295L397.486 175.003C396.832 175.161 396.145 175.228 395.439 175.187C391.597 174.962 388.666 171.666 388.891 167.826C389.117 163.987 392.413 161.056 396.255 161.282C398.705 161.425 400.78 162.82 401.907 164.806Z" fill="#FFB6B6"/>
<path d="M481.806 153.561V153.551C480.039 150.783 477.177 148.732 473.708 148.079L471.094 147.582C464.653 159.594 458.699 171.864 457.586 186.746L430.274 176.031L429.041 175.553L426.566 172.324L422.802 172.775L422.14 171.634V171.625L421.035 169.758L413.103 170.006L413.03 170.181L413.02 170.19L409.155 179.59L409.146 179.6L408.622 180.887L408.254 181.779C408.254 181.779 408.024 184.318 408.585 186.434V186.452C408.861 187.51 409.34 188.457 410.14 188.908C410.803 189.276 412.303 188.255 413.103 188.705C413.471 188.917 413.094 190.573 413.49 190.793C413.747 190.94 415.606 189.947 415.873 190.094C417.989 191.281 420.382 192.679 422.931 194.187C424.228 194.96 425.563 195.751 426.925 196.579C441.114 205.105 457.982 215.83 459.38 216.566C459.481 216.621 459.583 216.667 459.684 216.713C462.224 217.973 465.224 218.285 468.122 217.403C468.73 217.219 469.309 216.989 469.852 216.713C470.855 216.225 471.766 215.591 472.558 214.846C474.38 213.172 475.622 210.909 476.054 208.361L483.582 162.17C484.088 159.061 483.379 156.026 481.806 153.561Z" fill="#3F3D56"/>
<path d="M340.443 196.348C339.578 192.834 336.992 190.231 333.974 189.44C332.769 189.109 331.489 189.072 330.22 189.385C328.858 189.716 327.634 190.406 326.649 191.39C324.137 190.213 320.64 190.038 316.757 190.038H310.315C302.696 190.038 296.512 196.476 296.512 203.835C294.525 210.31 296.982 214.753 301.5 216.712C303.957 217.779 307.021 218.11 310.315 217.631H316.757C318.993 218.055 321.128 217.687 323.033 216.712C326.391 215.001 329.032 211.414 330.201 207.008C331.039 207.302 331.913 207.468 332.805 207.468C333.394 207.468 333.992 207.394 334.581 207.256C336.753 206.723 338.557 205.279 339.661 203.2C340.747 201.149 341.023 198.721 340.443 196.348ZM333.431 201.416C332.796 202.621 331.867 203.54 330.744 204.102C330.707 204.469 330.652 204.837 330.597 205.196C331.011 205.362 330.818 205.352 330.468 205.27C329.861 205.122 328.784 204.727 329.548 204.543C329.962 204.442 330.367 204.295 330.744 204.102C330.946 202.244 330.91 200.294 330.56 198.316C330.56 195.502 329.713 193.644 328.269 192.411C328.959 191.813 329.759 191.39 330.652 191.169C331.103 191.059 331.554 191.004 331.996 191.004C332.557 191.004 333.091 191.041 333.587 191.133C335.732 191.51 337.241 192.77 337.922 195.557C338.391 197.488 334.305 199.769 333.431 201.416Z" fill="#F2F2F2"/>
<path d="M220.848 213.655C220.848 206.297 214.664 199.859 207.045 199.859H200.604C196.941 199.859 193.619 200.015 191.153 201.018C190.997 201.082 190.859 201.146 190.711 201.211C189.717 200.227 188.503 199.537 187.141 199.206C184.684 198.608 182.181 199.298 180.23 200.88C178.666 202.14 177.451 203.97 176.917 206.168C176.338 208.541 176.614 210.97 177.7 213.021C178.261 214.078 178.997 214.961 179.88 215.651C180.727 216.323 181.712 216.81 182.779 217.077C183.368 217.215 183.966 217.288 184.555 217.288C185.448 217.288 186.322 217.123 187.159 216.829C187.923 219.726 189.331 222.265 191.153 224.15C193.684 226.771 197.015 228.133 200.604 227.452H207.045C216.413 228.804 223.912 223.644 220.848 213.655ZM186.8 208.137C186.451 210.114 186.414 212.064 186.616 213.922C186.994 214.115 187.399 214.262 187.813 214.364C189.018 214.658 185.641 215.458 186.764 215.017C186.708 214.658 186.653 214.29 186.616 213.922C185.843 213.536 185.172 212.984 184.62 212.285C184.362 211.963 184.132 211.613 183.929 211.236C183.055 209.59 178.97 207.309 179.439 205.377C179.908 203.473 180.764 202.278 181.942 201.597C181.942 201.588 181.951 201.588 181.951 201.588C182.89 201.045 184.031 200.824 185.356 200.824C185.807 200.824 186.258 200.88 186.708 200.99C187.601 201.211 188.402 201.634 189.092 202.232C187.647 203.464 186.8 205.322 186.8 208.137Z" fill="#F2F2F2"/>
<path d="M19.3112 297.969H231.965C233.794 297.969 235.276 302.166 235.276 307.344L207.67 328.144C207.67 333.322 206.188 337.519 204.359 337.519H19.3112C17.4825 337.519 16 333.322 16 328.144V307.344C16 302.166 17.4825 297.969 19.3112 297.969Z" fill="#F2F2F2"/>
<path d="M107.214 204.88L110.961 229.791L97.0226 233.916L93.9989 207.437C93.3939 206.892 92.857 206.252 92.4154 205.518C90.0138 201.527 91.3034 196.347 95.2957 193.946C99.288 191.546 104.471 192.835 106.873 196.825C108.404 199.37 108.429 202.396 107.214 204.88Z" fill="#FFB6B6"/>
<path d="M114.944 240.188C115.937 251.437 109.248 246.516 103.984 257.498C101.987 261.665 96.061 261.048 93.8617 264.856C90.5121 270.651 93.5948 296.671 87.6503 299.872C81.6782 303.091 78.8716 293.783 74.1509 288.991C69.5315 284.3 64.1207 286.14 60.173 280.906C56.1977 275.654 51.6979 270.973 47.7226 265.748C47.6398 265.647 47.5662 265.537 47.4926 265.436C45.6706 251.105 39.7353 234.228 42.2198 226.612C45.505 225.416 49.0477 224.616 51.8175 224.643C56.9155 224.708 54.7622 227.486 59.1424 229.675C62.8232 231.514 67.369 241.135 70.921 243.278C73.4516 244.796 79.6997 256.854 82.9664 255.815C88.3128 254.113 93.5764 229.509 92.325 225.002C91.2667 221.24 85.9847 216.531 85.8375 212.741C85.8283 212.603 85.8283 212.456 85.8375 212.318C91.1471 214.222 101.012 209.366 106.45 211.123C110.333 212.383 114.916 217.12 115.183 221.157C115.459 225.296 114.576 236.039 114.944 240.188Z" fill="#FDE14E"/>
<path d="M177.526 197.785C176.56 196.672 175.115 196.157 173.661 196.415L130.973 204.04C127.117 204.739 123.096 204.058 119.682 202.136L113.351 198.576L101.499 191.908L99.1985 190.62L89.5547 185.193L86.5273 183.492C85.3678 182.839 83.9967 182.774 82.782 183.326C81.5673 183.869 80.7116 184.936 80.4355 186.233L77.4448 200.204L77.224 201.207L75.54 209.089L71.3255 228.727L70.6629 231.845L70.3685 233.197L68.2152 243.268L67.8103 245.126L62.0958 271.809L61.5989 274.118C61.3228 275.415 61.6542 276.721 62.5191 277.696C62.6112 277.815 62.7216 277.926 62.8412 278.036C63.9362 279.048 65.4362 279.388 66.8533 278.956L68.0495 278.588L77.0584 275.856L97.6986 269.602L102.116 268.259L107.545 266.612C108.115 266.438 108.695 266.355 109.275 266.355C110.793 266.355 112.284 266.925 113.406 268.001L140.092 293.369L141.27 294.491C142.301 295.475 143.746 295.852 145.126 295.503C146.313 295.208 147.279 294.436 147.813 293.369C147.914 293.185 147.997 292.992 148.061 292.789L155.524 270.347L156.803 266.502L160.963 253.993L161.294 253C179.546 264.652 176.587 227.863 178.327 201.805C178.796 200.407 178.492 198.898 177.526 197.785Z" fill="#F2F2F2"/>
<path d="M172.003 202.383C171.037 201.27 169.592 200.755 168.138 201.012L125.45 208.637C121.594 209.336 117.573 208.656 114.159 206.733L107.828 203.174L95.9756 196.506L93.6751 195.218L84.0313 189.791L81.0038 188.09C79.8444 187.436 78.4733 187.372 77.2586 187.924C76.0439 188.467 75.1881 189.534 74.9121 190.83L71.9214 204.802L71.7006 205.804L70.0166 213.687L65.802 233.324L65.1395 236.442L64.845 237.794L62.6917 247.866L62.2868 249.724L56.5724 276.407L56.0755 278.715C55.7994 280.012 56.1307 281.318 56.9957 282.293C57.0877 282.413 57.1981 282.523 57.3178 282.634C58.4128 283.645 59.9128 283.986 61.3298 283.553L62.5261 283.186L71.5349 280.454L92.1751 274.199L96.5921 272.856L102.021 271.21C102.592 271.035 103.172 270.952 103.751 270.952C105.27 270.952 106.76 271.523 107.883 272.599L134.569 297.966L135.747 299.089C136.777 300.073 138.222 300.45 139.602 300.1C140.79 299.806 141.756 299.033 142.289 297.966C142.391 297.783 142.473 297.589 142.538 297.387L150.001 274.944L151.28 271.1L155.439 258.591L155.77 257.597C174.022 269.249 171.064 232.461 172.803 206.402C173.273 205.004 172.969 203.496 172.003 202.383Z" fill="#E6E6E6"/>
<path d="M51.5234 282.987L52.3974 319.969L104.838 318.526L94.2404 277.594L51.5234 282.987Z" fill="#FFB6B6"/>
<path d="M113.665 410.182C114.3 407.184 112.257 409.612 110.876 408.343L110.766 408.233C109.266 406.568 107.38 405.823 107.407 403.753C107.435 401.684 103.828 403.532 101.803 401.509C101.371 401.077 100.138 400.24 98.4536 399.191C93.2177 395.935 83.6751 390.619 80.8133 389.028C80.2796 388.733 79.9759 388.568 79.9759 388.568C79.9759 388.568 79.9668 388.724 79.9391 389.028C79.7827 390.95 79.1385 398.74 78.3564 408.343C78.3103 408.95 78.2643 409.566 78.2091 410.182H44.3088C44.3456 409.557 44.364 408.941 44.3732 408.343C44.4285 405.473 44.1892 402.797 43.5266 400.562C42.3304 396.542 41.263 392.716 40.4255 389.028C37.3612 375.59 37.3981 363.945 45.9192 351.261C47.4927 348.925 47.7964 341.484 47.7964 341.484C47.7964 341.484 50.695 344.354 51.4404 345.071C51.2564 344.878 50.8882 344.51 50.2809 343.903C46.8394 340.463 46.9498 339.424 48.7166 337.52C49.0295 337.189 49.3883 336.83 49.7932 336.425C52.4894 333.73 49.7932 336.425 48.4405 334.843C47.097 333.252 50.465 329.003 50.465 329.003L49.1859 322.601L48.4405 318.885L52.3514 318.204L62.8233 316.374L102.245 309.494L102.99 311.398L109.671 328.386C111.318 329.334 113.039 333.059 114.585 337.52C117.474 345.844 119.738 356.706 119.738 356.706L163.3 408.343L163.724 408.849C164.092 409.281 164.432 409.732 164.754 410.182H113.665Z" fill="#121212"/>
<path d="M56.1328 393.625H49.6914V410.181H56.1328V393.625Z" fill="#E6E6E6"/>
<path d="M17.0215 389.027H88.7975C94.1337 389.027 98.4596 393.351 98.4596 398.685C98.4596 404.019 94.1337 408.343 88.7975 408.343H17.0215C11.6853 408.343 7.35938 404.019 7.35938 398.685C7.35938 393.351 11.6853 389.027 17.0215 389.027Z" fill="#F2F2F2"/>
<path d="M11.5014 408.343C7.18161 408.343 3.67969 404.842 3.67969 400.525V307.627C3.67969 303.309 7.1816 299.809 11.5014 299.809C15.8212 299.809 19.3232 303.309 19.3232 307.627C43.0796 325.799 33.4239 361.965 19.3232 400.524C19.3232 404.842 15.8213 408.343 11.5014 408.343Z" fill="#F2F2F2"/>
<path d="M105.824 306.247C104.308 317.364 93.6868 307.572 83.0033 305.723C73.0651 304.012 61.2496 321.341 50.6121 322.803C43.7382 323.751 49.1581 318.048 51.5323 293.37C51.836 290.197 47.9619 269.162 47.4926 265.437C45.6706 251.106 39.7353 234.228 42.2198 226.613C42.6431 225.288 43.3241 224.249 44.3271 223.55C49.0477 220.248 51.155 217.59 54.3297 212.844C57.0167 208.815 58.9676 205.706 63.9735 205.384C68.6941 205.081 74.0405 206.111 78.5955 207.104C83.5738 208.199 77.9237 207.812 79.1384 210.59C79.7273 211.951 80.7396 216.973 81.899 218.868C85.4185 217.858 89.2043 218.99 91.5935 221.763C94.3729 224.99 96.8767 227.953 98.6008 232.554C101.196 239.434 94.6531 251.677 97.5425 258.419C100.147 264.508 93.7789 277.486 96.6223 282.333C100.229 288.505 108.585 286.012 105.824 306.247Z" fill="#FDE14E"/>
<path d="M127.131 216.055L126.898 217.879L157.988 221.84L158.221 220.015L127.131 216.055Z" fill="white"/>
<path d="M125.436 225.094L125.203 226.918L156.293 230.879L156.525 229.054L125.436 225.094Z" fill="white"/>
<path d="M124.514 232.453L124.281 234.277L155.371 238.238L155.603 236.414L124.514 232.453Z" fill="white"/>
<path d="M79.2765 206.275C89.8557 206.275 98.4318 197.703 98.4318 187.129C98.4318 176.555 89.8557 167.982 79.2765 167.982C68.6972 167.982 60.1211 176.555 60.1211 187.129C60.1211 197.703 68.6972 206.275 79.2765 206.275Z" fill="#FFB6B6"/>
<path d="M171.191 206.318L150.418 215.744L154.15 228.356L175.757 217.609C176.469 217.8 177.22 217.892 177.995 217.866C182.21 217.723 185.511 214.193 185.368 209.98C185.226 205.767 181.693 202.467 177.478 202.61C174.79 202.701 172.479 204.173 171.191 206.318Z" fill="#FFB6B6"/>
<path d="M153.364 213.283L145.357 217.243L131.049 220.049L111.652 228.009L108.71 229.212L95.135 226.634L85.7355 224.839L82.6377 224.251L71.3621 222.102L69.12 221.962C68.5063 221.787 67.8438 221.62 67.1166 221.471C64.9509 221.015 62.3568 220.669 59.6981 220.535C58.8977 220.496 58.0863 220.474 57.2815 220.48C50.4023 220.497 43.804 222.122 43.6419 227.027C43.5154 231.038 44.3155 234.871 45.856 238.328C46.0906 238.853 46.336 239.361 46.6019 239.867C49.862 246.067 55.5854 250.829 62.5478 252.766C64.0661 253.186 65.6386 253.466 67.2573 253.609L67.5932 253.576L68.8517 253.466L70.9177 253.282L74.7091 252.94L104.475 250.269L108.033 249.951L111.332 249.651L111.407 249.616C115.62 247.81 127.248 242.824 138.986 237.664C149.744 232.93 154.283 232.347 157.485 231.093C158.12 230.845 158.7 230.577 159.271 230.24C159.781 229.928 169.12 223.56 169.171 223.431C169.34 223.037 169.154 222.203 168.73 221.103C167.528 217.936 164.442 212.674 162.885 210.09L162.175 208.928L153.364 213.283Z" fill="#FDE14E"/>
<path d="M20.8794 140.684C9.34804 140.684 0 150.027 0 161.553V389.309C0 393.706 1.3711 397.799 3.70845 401.165C5.84328 404.256 8.79715 406.739 12.2479 408.303H12.2756C14.9073 409.508 17.8059 410.179 20.8794 410.179H178.17V397.597H21.7996C18.8734 408.34 16.9318 408.027 15.1189 407.447C12.9473 406.767 10.9412 405.7 9.19283 404.32C9.17441 404.32 9.17441 404.311 9.17441 404.302C6.83711 402.499 4.95991 400.172 3.68082 397.477C2.50293 395.003 1.84041 392.234 1.84041 389.309V238.795C1.84041 185.625 44.9625 142.523 98.1563 142.523H279.392V140.684L20.8794 140.684Z" fill="#3F3D56"/>
<path d="M101.122 176.869C101.112 178.838 101.103 182.71 99.4009 183.685L98.9592 183.473C98.6647 183.289 98.2966 183.004 97.901 182.682C96.6863 181.689 95.1403 180.319 94.0821 180.135C94.0269 178.479 94.0729 176.823 94.2386 175.177C94.2846 174.781 94.3306 174.386 94.3858 173.99C94.2293 174.257 94.0821 174.524 93.9349 174.8C93.0607 176.437 92.3429 178.166 91.8184 179.941C90.07 179.96 87.7327 179.721 86.7849 181.183C85.4138 183.308 87.3738 187.833 84.0335 189.792C83.3249 190.206 82.3771 190.51 81.1164 190.648C82.4415 190.859 84.1255 191.503 84.9721 193.195C86.7205 196.691 88.2112 200.738 87.4199 204.463C87.3002 205.015 87.1345 205.557 86.9137 206.091C85.5702 209.328 82.4599 211.407 80.1778 214.074C80.1318 214.12 80.095 214.166 80.0582 214.212C78.3006 216.31 77.7117 218.03 77.8957 219.658C78.227 222.647 81.1441 225.314 84.1531 229.324C85.2666 230.814 81.9446 238.55 82.8924 240.15C83.8586 241.751 84.3739 243.774 83.6102 245.485C82.7912 247.306 80.9508 248.116 78.908 248.428C73.0738 244.427 68.0587 239.332 65.8042 233.325C63.8534 228.138 63.9546 222.288 67.3593 215.868C64.0926 221.515 62.8596 228.303 63.927 234.742C63.9546 234.972 63.9914 235.193 64.0374 235.413C64.2031 236.278 64.4791 237.06 64.8472 237.796C66.4944 241.079 69.9175 243.25 72.4389 246.276C71.3806 247.343 69.6507 248.971 67.9667 250.47C66.5312 251.758 65.114 252.935 64.1847 253.588C63.5589 253.009 62.9056 251.583 62.289 249.725C62.0406 248.98 61.7921 248.162 61.5621 247.306C60.1173 242.128 58.9395 235.45 58.6358 233.399C57.7985 234.972 57.5592 239.414 57.6788 243.986C57.6972 244.657 57.7248 245.329 57.7524 245.991C58.0193 251.749 50.8877 254.582 47.1333 250.213C46.3603 249.302 45.5689 248.281 44.7591 247.131C44.6579 242.735 45.2836 238.32 46.664 234.153C46.7008 234.034 46.7192 233.979 46.7192 233.96C46.5351 234.227 44.6027 239.028 43.0843 242.726C42.3022 244.62 41.6305 246.221 41.3452 246.782C41.6305 245.08 42.1734 242.983 42.7439 240.932C44.0414 236.324 45.5045 231.992 44.5935 233.187C43.6641 234.411 42.8267 235.717 42.1089 237.078C40.6734 239.755 39.6704 242.67 39.1643 245.669C39.1183 245.936 39.0723 246.202 39.0447 246.478C38.2073 246.267 37.3975 245.972 36.6246 245.586C34.186 244.326 32.8701 241.686 32.7321 238.936C32.5112 234.632 34.4161 230.732 38.3361 231.339C39.8269 231.569 40.4526 230.686 40.5354 229.242C40.7379 226.252 38.6674 220.844 37.4619 217.938C36.9466 216.696 36.4129 215.408 35.9528 214.111C38.5018 210.864 39.8545 206.67 39.56 202.55C38.6858 205.622 37.1307 208.491 35.0418 210.91C34.5909 208.74 34.5541 206.569 35.3547 204.5C38.0325 197.62 43.747 200.535 47.7867 194.354C52.5073 187.134 51.1178 183.363 53.86 175.177C55.0379 171.645 57.8261 168.683 61.2861 167.285C64.746 165.896 69.6783 157.057 82.7544 166.761C82.9661 166.568 83.1777 166.384 83.3985 166.218C87.107 163.422 91.6712 165.207 96.5575 165.841C101.729 166.513 100.017 165.528 102.806 169.934C103.855 171.599 101.14 174.901 101.122 176.869Z" fill="#121212"/>
<path d="M213.158 112.695C213.158 112.689 213.155 112.686 213.148 112.686C212.127 111.564 210.765 110.755 209.228 110.414H209.219C208.686 110.295 208.143 110.23 207.572 110.23H160.191C156.004 110.23 152.59 113.643 152.59 117.828V165.187C152.59 169.372 156.004 172.775 160.191 172.775H207.572C211.759 172.775 215.164 169.372 215.164 165.187V117.828C215.164 115.85 214.409 114.048 213.158 112.695ZM214.271 165.187C214.271 168.885 211.271 171.883 207.572 171.883H160.191C156.492 171.883 153.492 168.885 153.492 165.187V141.31C153.492 141.098 153.492 140.896 153.501 140.684C153.528 139.342 153.639 138.017 153.841 136.711C153.869 136.49 153.915 136.279 153.952 136.058C154.955 130.328 157.577 125.14 161.332 121.019L161.378 120.973C166.899 114.921 174.85 111.123 183.684 111.123H207.572C211.271 111.123 214.271 114.13 214.271 117.828V165.187Z" fill="#E6E6E6"/>
<path d="M153.43 141.507C153.43 124.698 168.493 109.995 185.107 107.392C206.137 104.097 225.471 115.263 222.689 134.248C220.252 150.88 191.691 182.361 183.879 167.475C174.94 150.442 153.43 158.316 153.43 141.507Z" fill="#FDE14E"/>
<path d="M192.864 128.176H177.57C177.184 128.176 176.871 128.489 176.871 128.875C176.871 129.261 177.184 129.574 177.57 129.574H192.864C193.251 129.574 193.564 129.261 193.564 128.875C193.564 128.489 193.251 128.176 192.864 128.176Z" fill="white"/>
<path d="M192.864 143.086H177.57C177.184 143.086 176.871 143.399 176.871 143.776C176.871 144.162 177.184 144.484 177.57 144.484H192.864C193.251 144.484 193.564 144.162 193.564 143.776C193.564 143.399 193.251 143.086 192.864 143.086Z" fill="white"/>
<path d="M201.074 135.635H169.363C168.977 135.635 168.664 135.948 168.664 136.334C168.664 136.72 168.977 137.033 169.363 137.033H201.074C201.46 137.033 201.773 136.72 201.773 136.334C201.773 135.948 201.46 135.635 201.074 135.635Z" fill="white"/>
<path d="M46.8209 39.6543C45.8059 39.6543 44.9805 40.4793 44.9805 41.4939V70.007C44.9805 71.0216 45.8059 71.8466 46.8209 71.8466C47.8359 71.8466 48.6613 71.0216 48.6613 70.007V41.4939C48.6613 40.4793 47.8359 39.6543 46.8209 39.6543Z" fill="#3F3D56"/>
<path d="M64.8594 67.1294C71.1934 67.1294 76.3281 62.1052 76.3281 55.9075C76.3281 49.7098 71.1934 44.6855 64.8594 44.6855C58.5254 44.6855 53.3906 49.7098 53.3906 55.9075C53.3906 62.1052 58.5254 67.1294 64.8594 67.1294Z" fill="#FDE14E"/>
<path d="M156.799 52.0688H95.0674C92.9496 52.0688 91.2266 50.3465 91.2266 48.2297C91.2266 46.1129 92.9496 44.3906 95.0674 44.3906H156.799C158.917 44.3906 160.64 46.1129 160.64 48.2297C160.64 50.3465 158.917 52.0688 156.799 52.0688Z" fill="#F2F2F2"/>
<path d="M204.975 65.0629H95.0674C92.9496 65.0629 91.2266 63.3407 91.2266 61.2239C91.2266 59.107 92.9496 57.3848 95.0674 57.3848H204.975C207.093 57.3848 208.816 59.107 208.816 61.2239C208.816 63.3407 207.093 65.0629 204.975 65.0629Z" fill="#F2F2F2"/>
<path d="M199.317 385.809C198.302 385.809 197.477 386.634 197.477 387.648V416.161C197.477 417.176 198.302 418.001 199.317 418.001C200.332 418.001 201.157 417.176 201.157 416.161V387.648C201.157 386.634 200.332 385.809 199.317 385.809Z" fill="#3F3D56"/>
<path d="M217.355 413.284C223.689 413.284 228.824 408.259 228.824 402.062C228.824 395.864 223.689 390.84 217.355 390.84C211.021 390.84 205.887 395.864 205.887 402.062C205.887 408.259 211.021 413.284 217.355 413.284Z" fill="#FDE14E"/>
<path d="M309.295 398.223H247.564C245.446 398.223 243.723 396.501 243.723 394.384C243.723 392.267 245.446 390.545 247.564 390.545H309.295C311.413 390.545 313.136 392.267 313.136 394.384C313.136 396.501 311.413 398.223 309.295 398.223Z" fill="#F2F2F2"/>
<path d="M357.471 411.217H247.564C245.446 411.217 243.723 409.495 243.723 407.378C243.723 405.261 245.446 403.539 247.564 403.539H357.471C359.589 403.539 361.312 405.261 361.312 407.378C361.312 409.495 359.589 411.217 357.471 411.217Z" fill="#F2F2F2"/>
<path d="M92.93 158.248C95.0789 158.248 96.8209 156.468 96.8209 154.273C96.8209 152.077 95.0789 150.297 92.93 150.297C90.7811 150.297 89.0391 152.077 89.0391 154.273C89.0391 156.468 90.7811 158.248 92.93 158.248Z" fill="#3F3D56"/>
<path d="M106.371 158.248C108.52 158.248 110.262 156.468 110.262 154.273C110.262 152.077 108.52 150.297 106.371 150.297C104.222 150.297 102.48 152.077 102.48 154.273C102.48 156.468 104.222 158.248 106.371 158.248Z" fill="#3F3D56"/>
<path d="M119.813 158.248C121.962 158.248 123.704 156.468 123.704 154.273C123.704 152.077 121.962 150.297 119.813 150.297C117.664 150.297 115.922 152.077 115.922 154.273C115.922 156.468 117.664 158.248 119.813 158.248Z" fill="#3F3D56"/>
<path d="M362.91 79.7992C365.059 79.7992 366.801 78.0192 366.801 75.8234C366.801 73.6277 365.059 71.8477 362.91 71.8477C360.762 71.8477 359.02 73.6277 359.02 75.8234C359.02 78.0192 360.762 79.7992 362.91 79.7992Z" fill="#3F3D56"/>
<path d="M376.352 79.7992C378.501 79.7992 380.243 78.0192 380.243 75.8234C380.243 73.6277 378.501 71.8477 376.352 71.8477C374.203 71.8477 372.461 73.6277 372.461 75.8234C372.461 78.0192 374.203 79.7992 376.352 79.7992Z" fill="#3F3D56"/>
<path d="M389.793 79.7992C391.942 79.7992 393.684 78.0192 393.684 75.8234C393.684 73.6277 391.942 71.8477 389.793 71.8477C387.644 71.8477 385.902 73.6277 385.902 75.8234C385.902 78.0192 387.644 79.7992 389.793 79.7992Z" fill="#3F3D56"/>
<path d="M245.186 236.891C245.032 237.416 245.589 237.859 246.066 237.589C249.394 235.71 253.463 233.876 257.091 232.887C257.672 232.728 257.691 231.915 257.12 231.724L252.312 230.109L270.674 206.998L269.424 206.006L251.061 229.117L248.398 224.8C248.082 224.288 247.294 224.49 247.271 225.091C247.128 228.848 246.263 233.225 245.186 236.891Z" fill="#3F3D56"/>
<path d="M271.263 282.377C271.765 282.597 272.275 282.101 272.068 281.594C270.629 278.054 269.331 273.786 268.813 270.063C268.73 269.467 267.926 269.344 267.663 269.885L265.446 274.445L244.864 253.285L243.719 254.398L264.301 275.558L259.677 277.646C259.128 277.893 259.228 278.7 259.822 278.8C263.531 279.422 267.763 280.84 271.263 282.377Z" fill="#3F3D56"/>
</g>
<defs>
<clipPath id="clip0_615_283">
<rect width="510" height="418" fill="white"/>
</clipPath>
</defs>
</svg>
