<svg width="510" height="463" viewBox="0 0 510 463" fill="none" xmlns="http://www.w3.org/2000/svg">
<g clip-path="url(#clip0_615_372)">
<path d="M258.463 115.207H71.7031C59.5507 115.207 49.6992 125.071 49.6992 137.239V321.854C49.6992 334.022 59.5507 343.886 71.7031 343.886H258.463C270.615 343.886 280.467 334.022 280.467 321.854V137.239C280.467 125.071 270.615 115.207 258.463 115.207Z" fill="#F2F2F2"/>
<path d="M110.924 119.738C95.8869 119.738 81.4657 125.719 70.8329 136.366C60.2 147.012 54.2266 161.451 54.2266 176.508V321.854C54.2266 324.153 54.6787 326.428 55.5571 328.552C56.4355 330.675 57.7229 332.604 59.346 334.229C60.969 335.855 62.8959 337.144 65.0165 338.023C67.1371 338.903 69.41 339.355 71.7053 339.355H190.9C213.455 339.355 235.086 330.384 251.035 314.415C266.984 298.446 275.943 276.788 275.943 254.204V137.239C275.943 132.598 274.102 128.146 270.824 124.864C267.546 121.582 263.1 119.738 258.465 119.738H110.924Z" fill="white"/>
<path d="M483.525 39.7316H17.2446C17.0264 39.7316 16.8171 39.6448 16.6628 39.4903C16.5085 39.3358 16.4219 39.1263 16.4219 38.9078C16.4219 38.6893 16.5085 38.4798 16.6628 38.3253C16.8171 38.1708 17.0264 38.084 17.2446 38.084H483.525C483.743 38.084 483.953 38.1708 484.107 38.3253C484.261 38.4798 484.348 38.6893 484.348 38.9078C484.348 39.1263 484.261 39.3358 484.107 39.4903C483.953 39.6448 483.743 39.7316 483.525 39.7316Z" fill="#E6E6E6"/>
<path d="M40.5749 15.0014C44.4176 15.0014 47.5326 11.8129 47.5326 7.87961C47.5326 3.94635 44.4176 0.757812 40.5749 0.757812C36.7323 0.757812 33.6172 3.94635 33.6172 7.87961C33.6172 11.8129 36.7323 15.0014 40.5749 15.0014Z" fill="#E6E6E6"/>
<path d="M64.6101 15.0014C68.4527 15.0014 71.5678 11.8129 71.5678 7.87961C71.5678 3.94635 68.4527 0.757812 64.6101 0.757812C60.7674 0.757812 57.6523 3.94635 57.6523 7.87961C57.6523 11.8129 60.7674 15.0014 64.6101 15.0014Z" fill="#E6E6E6"/>
<path d="M88.6452 15.0014C92.4879 15.0014 95.6029 11.8129 95.6029 7.87961C95.6029 3.94635 92.4879 0.757812 88.6452 0.757812C84.8026 0.757812 81.6875 3.94635 81.6875 7.87961C81.6875 11.8129 84.8026 15.0014 88.6452 15.0014Z" fill="#E6E6E6"/>
<path d="M116.053 13.5075C115.943 13.5077 115.835 13.4858 115.734 13.4432C115.633 13.4007 115.541 13.3383 115.465 13.2597L110.77 8.45451C110.619 8.30063 110.535 8.09386 110.535 7.87851C110.535 7.66316 110.619 7.45638 110.77 7.30249L115.465 2.49767C115.54 2.41911 115.63 2.35626 115.73 2.31277C115.829 2.26927 115.937 2.24598 116.045 2.24425C116.154 2.24251 116.262 2.26237 116.363 2.30267C116.464 2.34297 116.556 2.40291 116.634 2.47903C116.711 2.55515 116.773 2.64594 116.816 2.74615C116.858 2.84636 116.88 2.954 116.881 3.06285C116.882 3.17171 116.861 3.27962 116.82 3.38035C116.778 3.48108 116.718 3.57262 116.641 3.64969L112.509 7.87849L116.641 12.1077C116.754 12.2236 116.831 12.3704 116.861 12.5297C116.891 12.689 116.874 12.8537 116.811 13.0032C116.748 13.1526 116.643 13.2802 116.508 13.3699C116.373 13.4597 116.215 13.5075 116.053 13.5075Z" fill="#E6E6E6"/>
<path d="M123.942 13.5075C123.78 13.5075 123.621 13.4596 123.486 13.3699C123.352 13.2802 123.246 13.1526 123.183 13.0032C123.121 12.8537 123.103 12.689 123.133 12.5297C123.164 12.3704 123.24 12.2236 123.353 12.1077L127.485 7.87849L123.353 3.64969C123.277 3.57262 123.216 3.48106 123.175 3.38034C123.134 3.27961 123.113 3.1717 123.113 3.06284C123.114 2.95398 123.136 2.84634 123.179 2.74613C123.221 2.64592 123.283 2.55514 123.361 2.47902C123.438 2.4029 123.53 2.34296 123.631 2.30266C123.732 2.26236 123.84 2.24251 123.949 2.24425C124.058 2.24598 124.165 2.26927 124.265 2.31277C124.364 2.35626 124.455 2.4191 124.53 2.49766L129.224 7.30248C129.375 7.45636 129.459 7.66315 129.459 7.87849C129.459 8.09384 129.375 8.30062 129.224 8.45451L124.53 13.2597C124.453 13.3383 124.362 13.4007 124.261 13.4432C124.16 13.4858 124.051 13.5077 123.942 13.5075Z" fill="#E6E6E6"/>
<path d="M441.945 1.58203H433.216C432.979 1.58196 432.745 1.62858 432.526 1.71922C432.308 1.80986 432.109 1.94275 431.942 2.11029C431.774 2.27784 431.642 2.47674 431.551 2.69566C431.461 2.91458 431.414 3.14921 431.414 3.38615V12.1349C431.414 12.3718 431.461 12.6065 431.551 12.8254C431.642 13.0443 431.774 13.2432 431.942 13.4108C432.109 13.5783 432.308 13.7112 432.526 13.8018C432.745 13.8925 432.979 13.9391 433.216 13.939H441.945C442.424 13.9395 442.884 13.7498 443.223 13.4116C443.562 13.0734 443.754 12.6143 443.755 12.1349V3.38615C443.754 2.90677 443.562 2.44764 443.223 2.10944C442.884 1.77124 442.424 1.58157 441.945 1.58203Z" fill="#E6E6E6"/>
<path d="M420.555 1.58203H411.825C411.589 1.58196 411.354 1.62858 411.136 1.71922C410.917 1.80986 410.718 1.94275 410.551 2.11029C410.384 2.27784 410.251 2.47674 410.16 2.69566C410.07 2.91458 410.023 3.14921 410.023 3.38615V12.1349C410.023 12.3718 410.07 12.6065 410.16 12.8254C410.251 13.0443 410.384 13.2432 410.551 13.4108C410.718 13.5783 410.917 13.7112 411.136 13.8018C411.354 13.8925 411.589 13.9391 411.825 13.939H420.555C421.034 13.9395 421.493 13.7498 421.832 13.4116C422.172 13.0734 422.363 12.6143 422.365 12.1349V3.38615C422.363 2.90677 422.172 2.44764 421.832 2.10944C421.493 1.77124 421.034 1.58157 420.555 1.58203Z" fill="#E6E6E6"/>
<path d="M462.102 1.99414H453.372C453.136 1.99407 452.901 2.04069 452.683 2.13133C452.464 2.22197 452.265 2.35486 452.098 2.5224C451.931 2.68994 451.798 2.88885 451.707 3.10777C451.617 3.32669 451.57 3.56132 451.57 3.79826V12.547C451.57 12.7839 451.617 13.0186 451.707 13.2375C451.798 13.4564 451.931 13.6553 452.098 13.8229C452.265 13.9904 452.464 14.1233 452.683 14.2139C452.901 14.3046 453.136 14.3512 453.372 14.3511H462.102C462.58 14.3516 463.04 14.1619 463.379 13.8237C463.718 13.4855 463.91 13.0264 463.912 12.547V3.79826C463.91 3.31888 463.718 2.85975 463.379 2.52155C463.04 2.18335 462.58 1.99368 462.102 1.99414Z" fill="#E6E6E6"/>
<path d="M287.042 14.8284H230.272C228.308 14.8284 226.425 14.0472 225.036 12.6568C223.647 11.2664 222.867 9.38055 222.867 7.41418C222.867 5.44782 223.647 3.562 225.036 2.17157C226.425 0.781142 228.308 0 230.272 0H287.042C289.006 0 290.889 0.781142 292.278 2.17157C293.667 3.562 294.447 5.44782 294.447 7.41418C294.447 9.38055 293.667 11.2664 292.278 12.6568C290.889 14.0472 289.006 14.8284 287.042 14.8284Z" fill="#E6E6E6"/>
<path d="M193.567 261.473H66.869C66.1443 261.473 65.4494 261.185 64.937 260.672C64.4246 260.159 64.1367 259.463 64.1367 258.738C64.1367 258.012 64.4246 257.316 64.937 256.803C65.4494 256.29 66.1443 256.002 66.869 256.002H193.567C194.292 256.002 194.987 256.29 195.499 256.803C196.012 257.316 196.3 258.012 196.3 258.738C196.3 259.463 196.012 260.159 195.499 260.672C194.987 261.185 194.292 261.473 193.567 261.473Z" fill="#F2F2F2"/>
<path d="M193.568 183.44H2.7331C2.37389 183.441 2.01809 183.371 1.68605 183.233C1.35401 183.096 1.05225 182.895 0.798034 182.641C0.543818 182.387 0.34215 182.085 0.204545 181.752C0.0669392 181.42 -0.00390625 181.064 -0.00390625 180.704C-0.00390625 180.345 0.0669392 179.989 0.204545 179.656C0.34215 179.324 0.543818 179.022 0.798034 178.768C1.05225 178.514 1.35401 178.313 1.68605 178.176C2.01809 178.038 2.37389 177.968 2.7331 177.969H193.568C194.292 177.97 194.986 178.259 195.497 178.772C196.009 179.285 196.296 179.98 196.296 180.704C196.296 181.429 196.009 182.124 195.497 182.637C194.986 183.15 194.292 183.439 193.568 183.44Z" fill="#F2F2F2"/>
<path d="M193.573 202.977H2.72962C2.00524 202.978 1.31097 203.267 0.799204 203.78C0.287434 204.293 0 204.989 0 205.714C0 206.44 0.287434 207.135 0.799204 207.649C1.31097 208.162 2.00524 208.451 2.72962 208.452H193.573C194.297 208.451 194.992 208.162 195.503 207.649C196.015 207.135 196.303 206.44 196.303 205.714C196.303 204.989 196.015 204.293 195.503 203.78C194.992 203.267 194.297 202.978 193.573 202.977Z" fill="#F2F2F2"/>
<path d="M193.568 233.464H2.73226C2.00762 233.464 1.31266 233.175 0.800258 232.662C0.287861 232.149 0 231.453 0 230.728C0 230.002 0.287861 229.307 0.800258 228.793C1.31266 228.28 2.00762 227.992 2.73226 227.992H193.568C194.292 227.992 194.987 228.28 195.5 228.793C196.012 229.307 196.3 230.002 196.3 230.728C196.3 231.453 196.012 232.149 195.5 232.662C194.987 233.175 194.292 233.464 193.568 233.464Z" fill="#F2F2F2"/>
<path d="M354.265 452.03L345.503 452.029L341.336 418.193L354.266 418.194L354.265 452.03Z" fill="#A0616A"/>
<path d="M354.571 461.182L327.629 461.181V460.839C327.629 458.055 328.734 455.384 330.701 453.415C332.667 451.446 335.334 450.34 338.115 450.34L343.037 446.602L352.219 450.34L354.571 450.34L354.571 461.182Z" fill="#121212"/>
<path d="M442.417 452.03L433.656 452.029L429.488 418.193L442.42 418.194L442.417 452.03Z" fill="#A0616A"/>
<path d="M442.723 461.182L415.781 461.181V460.839C415.781 458.055 416.886 455.384 418.853 453.415C420.819 451.446 423.487 450.34 426.268 450.34L431.19 446.602L440.372 450.34L442.723 450.34L442.723 461.182Z" fill="#121212"/>
<path d="M361.413 257.641C361.413 257.641 355.659 263.755 355.416 267.722C355.173 271.689 358.171 264.483 355.173 271.689C352.174 278.894 352.174 274.09 352.174 278.894C352.174 283.698 345.821 288.388 345.821 288.388L335.344 331.549L341.38 432.607H354.573C366.834 395.186 372.538 366.289 365.967 353.349L384.289 312.575C384.289 312.575 418.909 421.044 420.323 422.322C421.737 423.6 421.737 421.799 421.737 423.6C421.737 425.402 419.938 423.6 421.737 425.402L430.133 433.808L442.726 432.607C442.726 432.607 444.411 354.074 430.376 340.502C430.376 340.502 433.617 298.473 430.376 298.591C427.134 298.709 427.134 304.113 427.134 298.709C427.134 293.305 430.976 291.863 430.976 291.863L420.181 253.904L361.413 257.641Z" fill="#121212"/>
<path d="M429.39 173.974L417.196 225.091L420.076 244.104L423.532 266.882L411.585 266.108L393.098 264.905L358.773 262.681L355.77 161.807L371.517 145.331L374.331 137.331L397.097 137.191L402.543 146.797L416.546 150.784C418.346 151.928 420.038 153.235 421.598 154.689C425.054 157.893 428.114 161.963 429.546 166.131C429.978 167.346 430.251 168.612 430.361 169.896L429.39 173.974Z" fill="#E6E6E6"/>
<path d="M323.42 303.671C324.337 303.163 325.133 302.462 325.753 301.616C326.373 300.77 326.803 299.799 327.011 298.77C327.22 297.742 327.202 296.68 326.961 295.659C326.719 294.638 326.259 293.681 325.612 292.856L342.978 261.2L335.414 254.238L315.063 291.987C313.756 293.181 312.932 294.813 312.747 296.575C312.562 298.336 313.028 300.105 314.058 301.545C315.088 302.985 316.61 303.997 318.336 304.389C320.061 304.781 321.87 304.525 323.42 303.671Z" fill="#E6E6E6"/>
<path d="M365.777 155.639L361.729 228.244L342.227 273.871L329.534 290.725L330.977 283.088L322.228 278.705L321.406 278.297L338.203 213.029L339.75 187.666C340.017 183.302 341.186 179.04 343.182 175.151C345.178 171.262 347.959 167.829 351.348 165.072L361.063 157.17L365.777 155.639Z" fill="#E6E6E6"/>
<path d="M323.42 303.671C324.337 303.163 325.133 302.462 325.753 301.616C326.373 300.77 326.803 299.799 327.011 298.77C327.22 297.742 327.202 296.68 326.961 295.659C326.719 294.638 326.259 293.681 325.612 292.856L342.978 261.2L335.414 254.238L315.063 291.987C313.756 293.181 312.932 294.813 312.747 296.575C312.562 298.336 313.028 300.105 314.058 301.545C315.088 302.985 316.61 303.997 318.336 304.389C320.061 304.781 321.87 304.525 323.42 303.671Z" fill="#A0616A"/>
<path d="M365.777 155.639L361.729 228.244L342.227 273.871L329.534 290.725L330.977 283.088L322.228 278.705L321.406 278.297L338.203 213.029L339.75 187.666C340.017 183.302 341.186 179.04 343.182 175.151C345.178 171.262 347.959 167.829 351.348 165.072L361.063 157.17L365.777 155.639Z" fill="#E6E6E6"/>
<path d="M384.572 158.143H197.812C185.66 158.143 175.809 168.007 175.809 180.174V276.643C175.809 288.811 185.66 298.675 197.812 298.675H384.572C396.725 298.675 406.576 288.811 406.576 276.643V180.174C406.576 168.007 396.725 158.143 384.572 158.143Z" fill="white"/>
<path d="M384.571 299.498H197.811C191.759 299.491 185.957 297.081 181.678 292.797C177.398 288.512 174.991 282.702 174.984 276.643V180.174C174.991 174.114 177.398 168.305 181.678 164.02C185.957 159.735 191.759 157.325 197.811 157.318H384.571C390.623 157.325 396.425 159.736 400.704 164.02C404.983 168.305 407.39 174.114 407.397 180.174V276.643C407.39 282.702 404.983 288.512 400.704 292.796C396.425 297.081 390.623 299.491 384.571 299.498ZM197.811 158.966C192.193 158.966 186.806 161.2 182.834 165.178C178.861 169.155 176.63 174.549 176.63 180.174V216.231C176.63 237.878 185.218 258.638 200.505 273.945C215.793 289.252 236.527 297.851 258.146 297.851H384.571C390.188 297.851 395.576 295.616 399.548 291.639C403.52 287.662 405.752 282.268 405.752 276.643V180.174C405.752 177.389 405.204 174.631 404.139 172.058C403.075 169.485 401.515 167.147 399.548 165.178C397.581 163.208 395.246 161.646 392.676 160.58C390.106 159.515 387.352 158.966 384.57 158.966L197.811 158.966Z" fill="#3F3D56"/>
<path d="M247.173 260.537H203.567C201.977 260.537 200.688 261.828 200.688 263.42C200.688 265.013 201.977 266.304 203.567 266.304H247.173C248.764 266.304 250.053 265.013 250.053 263.42C250.053 261.828 248.764 260.537 247.173 260.537Z" fill="#FDE14E"/>
<path d="M378.814 252.711H348.372C346.781 252.711 345.492 254.002 345.492 255.594V271.246C345.492 272.839 346.781 274.13 348.372 274.13H378.814C380.404 274.13 381.693 272.839 381.693 271.246V255.594C381.693 254.002 380.404 252.711 378.814 252.711Z" fill="#FDE14E"/>
<path d="M215.497 212.344C223.676 212.344 230.307 205.705 230.307 197.516C230.307 189.326 223.676 182.688 215.497 182.688C207.318 182.688 200.688 189.326 200.688 197.516C200.688 205.705 207.318 212.344 215.497 212.344Z" fill="#FDE14E"/>
<path d="M384.881 132.945C395.151 132.945 403.476 124.609 403.476 114.326C403.476 104.043 395.151 95.707 384.881 95.707C374.611 95.707 366.285 104.043 366.285 114.326C366.285 124.609 374.611 132.945 384.881 132.945Z" fill="#A0616A"/>
<path d="M400.137 123.951C400.282 125.063 398.272 125.181 397.819 124.155C397.366 123.129 397.954 121.966 398.525 121.001L399.852 118.762C400.101 118.34 400.247 117.865 400.276 117.375C400.305 116.885 400.217 116.396 400.019 115.948C399.821 115.499 399.519 115.105 399.137 114.797C398.756 114.489 398.307 114.277 397.827 114.178C399.041 111.445 397.724 108.033 395.305 106.277C392.887 104.52 389.288 107.807 386.354 108.37C383.42 108.934 381.071 106.685 378.397 108.018L380.004 104.309L371.11 108.146L373.176 103.974C370.931 104.096 369.975 106.834 369.528 109.04C369.052 111.39 367.801 114.328 365.249 113.841C364.644 113.706 364.089 113.402 363.649 112.965C363.208 112.529 362.9 111.976 362.759 111.371C360.788 103.758 366.512 95.436 374.101 94.1008C374.913 91.8572 376.421 89.9328 378.404 88.6095C380.387 87.2862 382.741 86.6335 385.122 86.747C387.502 86.8605 389.784 87.7342 391.633 89.2402C393.481 90.7462 394.8 92.8053 395.395 95.1159L397.883 92.0656L398.368 96.3875C400.156 96.1972 401.846 97.4612 402.714 99.0374C403.583 100.614 403.173 102.649 404.007 104.244C407.746 111.392 406.509 119.439 400.735 124.921" fill="#121212"/>
<path d="M465.357 448.721C465.739 448.738 466.118 448.638 466.441 448.433C466.765 448.228 467.017 447.928 467.165 447.574C467.313 447.221 467.348 446.83 467.267 446.456C467.186 446.081 466.991 445.741 466.71 445.48L466.582 444.971C466.599 444.93 466.616 444.89 466.633 444.849C467.018 443.938 467.664 443.161 468.489 442.616C469.313 442.071 470.281 441.782 471.269 441.786C472.257 441.789 473.222 442.085 474.043 442.637C474.863 443.188 475.503 443.969 475.882 444.883C477.394 448.531 479.32 452.185 479.795 456.042C480.003 457.747 479.915 459.476 479.534 461.15C483.087 453.39 484.932 444.956 484.944 436.419C484.945 434.277 484.826 432.137 484.588 430.008C484.391 428.262 484.119 426.53 483.77 424.809C481.865 415.475 477.777 406.725 471.839 399.28C468.966 397.71 466.642 395.296 465.181 392.363C464.652 391.309 464.278 390.183 464.07 389.022C464.394 389.064 465.293 384.121 465.048 383.818C465.5 383.131 466.308 382.79 466.802 382.12C469.255 378.79 472.636 379.371 474.401 383.898C478.171 385.803 478.207 388.962 475.894 392.001C474.422 393.934 474.22 396.55 472.929 398.62C473.062 398.791 473.2 398.955 473.333 399.126C475.761 402.252 477.878 405.61 479.652 409.15C479.221 405.184 479.736 401.172 481.155 397.444C482.593 393.97 485.289 391.044 487.663 388.041C488.291 387.234 489.144 386.632 490.114 386.31C491.084 385.988 492.127 385.962 493.112 386.234C494.096 386.505 494.979 387.063 495.647 387.837C496.315 388.611 496.739 389.566 496.865 390.581C496.87 390.625 496.875 390.669 496.879 390.714C496.527 390.913 496.182 391.124 495.844 391.348C495.42 391.632 495.091 392.037 494.901 392.511C494.71 392.985 494.668 393.506 494.778 394.005C494.888 394.504 495.147 394.957 495.519 395.307C495.892 395.656 496.361 395.885 496.865 395.963L496.917 395.97C496.791 397.243 496.569 398.504 496.252 399.743C499.298 411.536 492.723 415.832 483.334 416.025C483.127 416.131 482.925 416.237 482.717 416.339C484.5 421.397 485.618 426.666 486.044 432.014C486.285 435.168 486.271 438.337 486.001 441.49L486.017 441.378C486.698 437.873 488.565 434.71 491.305 432.423C495.374 429.077 501.123 427.844 505.512 425.154C505.979 424.854 506.521 424.694 507.076 424.693C507.63 424.691 508.173 424.849 508.641 425.146C509.109 425.444 509.483 425.869 509.717 426.372C509.952 426.875 510.037 427.435 509.965 427.985L509.947 428.103C509.292 428.37 508.655 428.677 508.039 429.023C507.686 429.223 507.341 429.434 507.003 429.658C506.579 429.941 506.25 430.347 506.06 430.821C505.87 431.295 505.827 431.816 505.938 432.315C506.048 432.813 506.306 433.267 506.679 433.617C507.051 433.966 507.52 434.194 508.024 434.272L508.076 434.28C508.113 434.286 508.145 434.291 508.182 434.296C507.064 436.969 505.495 439.43 503.543 441.57C501.639 451.865 493.46 452.842 484.71 449.844H484.705C483.745 454.02 482.354 458.086 480.554 461.975H465.728C465.675 461.81 465.627 461.64 465.579 461.475C466.952 461.561 468.33 461.479 469.682 461.23C468.582 459.879 467.482 458.517 466.382 457.165C466.357 457.14 466.334 457.113 466.313 457.085C465.755 456.394 465.192 455.707 464.634 455.015L464.633 455.015C464.604 452.894 464.847 450.779 465.357 448.721Z" fill="#F2F2F2"/>
<path d="M236.18 462.019C236.179 462.148 236.204 462.276 236.253 462.395C236.302 462.514 236.375 462.622 236.466 462.713C236.557 462.805 236.665 462.877 236.784 462.926C236.903 462.975 237.03 463 237.159 463H508.907C509.166 463 509.415 462.896 509.599 462.713C509.783 462.529 509.886 462.279 509.886 462.019C509.886 461.759 509.783 461.51 509.599 461.326C509.415 461.142 509.166 461.039 508.907 461.039H237.159C237.03 461.039 236.903 461.064 236.784 461.113C236.665 461.162 236.557 461.234 236.466 461.325C236.375 461.416 236.302 461.525 236.253 461.644C236.204 461.763 236.179 461.891 236.18 462.019Z" fill="#CCCCCC"/>
<path d="M392.802 299.263C393.701 298.723 394.472 297.994 395.062 297.127C395.651 296.259 396.046 295.274 396.218 294.238C396.39 293.203 396.335 292.143 396.057 291.131C395.78 290.119 395.286 289.179 394.61 288.377L410.841 256.124L403.035 249.436L384.037 287.884C382.773 289.124 382.007 290.784 381.885 292.552C381.762 294.319 382.291 296.069 383.372 297.472C384.452 298.875 386.009 299.832 387.747 300.162C389.485 300.492 391.284 300.172 392.802 299.263Z" fill="#A0616A"/>
<path d="M429.547 166.132L430.362 169.897L428.412 222.521L420.078 244.104L411.587 266.108L410.542 268.818L398.455 286.11L399.624 278.424L390.722 274.354L389.891 273.984L393.099 264.905L400.479 244.047L403.672 235.018L404.363 208.154L405.005 182.756C405.116 178.385 406.133 174.085 407.989 170.127C409.846 166.17 412.502 162.641 415.791 159.764L421.6 154.689C425.055 157.894 428.116 161.964 429.547 166.132Z" fill="#E6E6E6"/>
<path d="M235.367 297.595L196.798 296.771C192 296.764 187.401 294.852 184.009 291.455C180.617 288.057 178.709 283.452 178.704 278.648L177.059 238.271C181.794 271.189 199.994 292.07 235.367 297.595Z" fill="#FDE14E"/>
</g>
<defs>
<clipPath id="clip0_615_372">
<rect width="510" height="463" fill="white"/>
</clipPath>
</defs>
</svg>
