<svg width="510" height="430" viewBox="0 0 510 430" fill="none" xmlns="http://www.w3.org/2000/svg">
<g clip-path="url(#clip0_615_411)">
<path d="M503.135 147.127C503.733 149.461 504.294 151.808 504.817 154.166H326.762V147.127H503.135Z" fill="#E6E6E6"/>
<path d="M497.459 128.572C494.592 120.492 491.25 112.587 487.448 104.901C486.279 102.531 485.065 100.184 483.805 97.8617C483.598 97.4632 483.377 97.0646 483.156 96.666V149.049H498.543V131.69L497.459 128.572Z" fill="#E6E6E6"/>
<path d="M487.448 104.9H483.156V97.8613H483.805C485.067 100.182 486.282 102.528 487.448 104.9Z" fill="#CCCCCC"/>
<path d="M497.459 128.572H483.156V135.611H498.543V131.69L497.459 128.572Z" fill="#CCCCCC"/>
<path d="M474.825 88.2656H459.441V149.049H474.825V88.2656Z" fill="#E6E6E6"/>
<path d="M474.825 97.8633H459.441V104.901H474.825V97.8633Z" fill="#CCCCCC"/>
<path d="M474.825 128.574H459.441V135.612H474.825V128.574Z" fill="#CCCCCC"/>
<path d="M404.671 87.9121H349.486C348.635 87.9134 347.82 88.2512 347.218 88.8516C346.617 89.4519 346.279 90.2658 346.277 91.1149V146.202C346.278 146.515 346.324 146.827 346.413 147.127C346.613 147.785 347.02 148.362 347.573 148.772C348.126 149.182 348.797 149.404 349.486 149.405H404.671C405.36 149.404 406.031 149.182 406.584 148.772C407.138 148.362 407.544 147.785 407.744 147.127C407.833 146.827 407.879 146.515 407.88 146.202V91.1149C407.878 90.2658 407.54 89.4519 406.939 88.8516C406.337 88.2512 405.522 87.9134 404.671 87.9121Z" fill="#E6E6E6"/>
<path d="M400.746 91.8262H353.404C352.553 91.8275 351.738 92.1653 351.136 92.7656C350.535 93.366 350.197 94.1799 350.195 95.0289V142.287C350.197 143.136 350.535 143.95 351.136 144.55C351.738 145.151 352.553 145.489 353.404 145.49H400.746C401.597 145.489 402.412 145.151 403.014 144.55C403.615 143.95 403.954 143.136 403.955 142.287V95.0289C403.954 94.1799 403.615 93.366 403.014 92.7656C402.412 92.1653 401.597 91.8275 400.746 91.8262Z" fill="white"/>
<path d="M392.492 100.068H361.662C360.811 100.07 359.996 100.407 359.394 101.008C358.793 101.608 358.454 102.422 358.453 103.271V134.046C358.454 134.895 358.793 135.709 359.394 136.309C359.996 136.909 360.811 137.247 361.662 137.249H392.492C393.341 137.244 394.155 136.905 394.755 136.306C395.356 135.706 395.696 134.894 395.7 134.046V103.271C395.699 102.422 395.36 101.608 394.759 101.008C394.157 100.407 393.342 100.07 392.492 100.068Z" fill="#CCCCCC"/>
<path d="M390.591 128.618L384.08 117.359C383.954 117.143 383.774 116.963 383.558 116.838C383.341 116.713 383.095 116.647 382.845 116.647C382.594 116.647 382.348 116.713 382.132 116.838C381.915 116.963 381.735 117.143 381.61 117.359L376.855 125.58L370.619 114.8C370.494 114.583 370.314 114.404 370.097 114.279C369.88 114.154 369.634 114.088 369.384 114.088C369.134 114.088 368.888 114.154 368.671 114.279C368.454 114.404 368.274 114.583 368.149 114.8L361.637 126.058L353.891 139.452H368.831L367.351 142.012H398.338L390.591 128.618Z" fill="white"/>
<path d="M388.291 111.299C390.769 111.299 392.778 109.294 392.778 106.821C392.778 104.347 390.769 102.342 388.291 102.342C385.813 102.342 383.805 104.347 383.805 106.821C383.805 109.294 385.813 111.299 388.291 111.299Z" fill="white"/>
<path d="M509.942 196.861C509.892 194.1 509.783 191.353 509.614 188.62C509.543 187.31 509.457 186.008 509.35 184.705H479.248C478.397 184.706 477.582 185.044 476.98 185.645C476.379 186.245 476.04 187.059 476.039 187.908V242.995C476.037 243.247 476.069 243.498 476.132 243.742C476.3 244.441 476.699 245.063 477.264 245.508C477.829 245.953 478.528 246.196 479.248 246.198H506.997C507.14 245.386 507.275 244.561 507.396 243.742C507.475 243.258 507.554 242.767 507.625 242.283C507.796 241.123 507.96 239.963 508.109 238.803C508.324 237.223 508.516 235.636 508.687 234.042C509.314 228.326 509.718 222.55 509.899 216.711V216.704C509.963 214.505 509.997 212.296 509.999 210.078V201.537C509.999 199.971 509.985 198.413 509.942 196.861Z" fill="#E6E6E6"/>
<path d="M509.942 196.861C509.892 194.099 509.783 191.352 509.614 188.619H483.169C482.319 188.62 481.504 188.958 480.902 189.559C480.301 190.159 479.962 190.973 479.961 191.822V239.08C479.962 239.929 480.301 240.743 480.902 241.343C481.504 241.944 482.319 242.282 483.169 242.283H507.625C507.796 241.123 507.96 239.963 508.11 238.803C508.324 237.223 508.516 235.635 508.687 234.041C509.315 228.326 509.719 222.549 509.9 216.711V216.704C509.964 214.504 509.997 212.296 509.999 210.078V201.537C509.999 199.971 509.985 198.412 509.942 196.861Z" fill="white"/>
<path d="M509.944 196.861H491.427C490.577 196.863 489.761 197.2 489.16 197.801C488.558 198.401 488.22 199.215 488.219 200.064V230.839C488.22 231.688 488.558 232.502 489.16 233.102C489.761 233.702 490.577 234.04 491.427 234.042H508.689C509.316 228.326 509.72 222.55 509.901 216.711V216.704C509.965 214.505 509.998 212.296 510.001 210.078V201.537C510 199.972 509.987 198.413 509.944 196.861Z" fill="#CCCCCC"/>
<path d="M509.902 216.712C509.723 222.548 509.319 228.324 508.689 234.042C508.518 235.636 508.326 237.223 508.112 238.803H497.117L498.601 236.248H483.656L488.219 228.355L491.399 222.854L497.916 211.594C498.04 211.377 498.22 211.196 498.436 211.071C498.653 210.945 498.899 210.879 499.15 210.879C499.4 210.879 499.646 210.945 499.863 211.071C500.079 211.196 500.259 211.377 500.383 211.594L506.622 222.377L509.902 216.712Z" fill="white"/>
<path d="M455.878 57.5565H326.762V50.5176H449.475C451.657 52.8164 453.791 55.1627 455.878 57.5565Z" fill="#E6E6E6"/>
<path d="M395.344 8.74023C400.606 11.6298 405.734 14.7258 410.73 18.0282V52.4327H395.344V8.74023Z" fill="#E6E6E6"/>
<path d="M410.727 31.9609H395.344V38.9991H410.727V31.9609Z" fill="#CCCCCC"/>
<path d="M434.445 36.1059V52.4327H419.059V23.8145C422.645 26.4265 426.151 29.1429 429.575 31.9636C431.215 33.3159 432.838 34.6967 434.445 36.1059Z" fill="#E6E6E6"/>
<path d="M434.445 36.1051V38.9947H419.059V31.9629H429.575C431.215 33.3152 432.838 34.6959 434.445 36.1051Z" fill="#CCCCCC"/>
<path d="M379.637 0.896774C383.708 2.72585 387.71 4.67597 391.644 6.74712L388.478 13.1241L377.961 34.3405L374.832 40.6463L369.933 50.5179L368.856 52.6887L364.472 50.5179L355.074 45.8704L361.042 33.8281H361.049L364.172 27.5222L374.696 6.30584L377.79 0.0711764L377.826 0L379.637 0.896774Z" fill="#E6E6E6"/>
<path d="M391.607 6.81116L388.477 13.1241L374.695 6.30584L377.79 0.071172L377.825 0L379.636 0.896767L391.607 6.81116Z" fill="#CCCCCC"/>
<path d="M364.171 27.5246L361.043 33.832L374.829 40.6453L377.958 34.3379L364.171 27.5246Z" fill="#CCCCCC"/>
<path d="M507.398 243.742C507.277 244.561 507.142 245.386 506.999 246.198C506.75 247.735 506.478 249.258 506.186 250.781H326.762V243.742H507.398Z" fill="#E6E6E6"/>
<path d="M410.727 184.879H395.344V245.663H410.727V184.879Z" fill="#E6E6E6"/>
<path d="M410.727 194.477H395.344V201.515H410.727V194.477Z" fill="#CCCCCC"/>
<path d="M410.727 225.189H395.344V232.228H410.727V225.189Z" fill="#CCCCCC"/>
<path d="M434.442 184.879H419.059V245.663H434.442V184.879Z" fill="#E6E6E6"/>
<path d="M434.442 194.477H419.059V201.515H434.442V194.477Z" fill="#CCCCCC"/>
<path d="M434.442 225.189H419.059V232.228H434.442V225.189Z" fill="#CCCCCC"/>
<path d="M382.088 184.628L355.07 239.102L368.857 245.915L395.874 191.442L382.088 184.628Z" fill="#E6E6E6"/>
<path d="M377.824 193.23L374.695 199.537L388.482 206.35L391.61 200.043L377.824 193.23Z" fill="#CCCCCC"/>
<path d="M364.171 220.753L361.043 227.061L374.829 233.874L377.958 227.566L364.171 220.753Z" fill="#CCCCCC"/>
<path d="M208.761 270.867C209.404 271.236 210.017 271.656 210.594 272.121L274.071 252.402L277.65 236.682L302.124 238.973L298.496 267.418C298.203 269.716 297.171 271.857 295.556 273.52C293.94 275.182 291.827 276.277 289.535 276.639L214.833 288.445C213.743 291.082 211.875 293.325 209.477 294.876C207.079 296.427 204.264 297.213 201.408 297.128C198.552 297.044 195.789 296.093 193.487 294.403C191.186 292.713 189.454 290.363 188.522 287.667C187.591 284.97 187.504 282.054 188.273 279.307C189.043 276.56 190.631 274.112 192.828 272.288C195.026 270.464 197.727 269.352 200.573 269.098C203.419 268.844 206.275 269.461 208.761 270.867Z" fill="#FFB8B8"/>
<path d="M313.436 248.405L313.015 241.231V241.223L312.901 239.259L311.66 218.135C312.032 213.732 310.64 209.36 307.789 205.979C304.939 202.597 300.862 200.481 296.452 200.093C295.184 199.98 293.906 200.013 292.645 200.193C288.899 200.722 285.441 202.498 282.834 205.234C280.226 207.971 278.62 211.506 278.278 215.267L275.704 225.957L271.205 244.654C270.886 245.962 271.018 247.339 271.58 248.563C272.141 249.787 273.099 250.787 274.3 251.401C274.993 251.765 275.751 251.988 276.531 252.056L284.032 252.725L291.254 253.365L299.589 254.106L300.188 254.155L301.728 254.298L306.883 254.753H306.897C307.759 254.823 308.624 254.709 309.438 254.419C310.252 254.13 310.995 253.671 311.618 253.074C312.071 252.632 312.454 252.123 312.751 251.565C313.271 250.596 313.508 249.501 313.436 248.405Z" fill="#FDE14E"/>
<path d="M383.092 161.414C383.092 185.773 360.529 182.088 332.695 182.088C304.861 182.088 282.297 185.773 282.297 161.414C282.297 137.055 293.319 93.877 332.695 93.877C373.427 93.877 383.092 137.055 383.092 161.414Z" fill="#121212"/>
<path d="M356.507 172.131C369.75 158.91 369.75 137.476 356.507 124.256C343.263 111.036 321.79 111.036 308.546 124.256C295.303 137.476 295.303 158.91 308.546 172.131C321.79 185.351 343.263 185.351 356.507 172.131Z" fill="#FFB8B8"/>
<path d="M380.263 196.278C379.61 195.651 378.917 195.066 378.188 194.528C373.578 191.05 367.784 189.52 362.053 190.264L299.56 198.157C293.835 198.867 288.613 201.774 284.999 206.262C281.385 210.75 279.665 216.466 280.202 222.199C280.38 224.192 280.58 226.292 280.801 228.477C281.086 231.217 281.407 234.092 281.778 237.067C282.391 242.07 283.14 247.351 284.031 252.725C284.808 257.351 285.692 262.041 286.704 266.675C286.997 268.013 287.301 269.346 287.617 270.674C287.616 270.678 287.617 270.682 287.618 270.686C287.619 270.69 287.622 270.693 287.624 270.696C287.66 270.86 287.695 271.023 287.738 271.18C287.736 271.192 287.739 271.205 287.745 271.215C288.188 273.066 288.651 274.895 289.136 276.703C289.321 277.372 289.499 278.034 289.685 278.688C290.184 280.468 290.712 282.211 291.253 283.927C295.324 296.688 300.707 307.556 307.816 313.335C307.909 313.42 308.002 313.492 308.101 313.57L308.387 313.79L308.8 313.662L310.554 313.143L312.051 312.687L331.559 306.83L336.414 305.371L352.015 300.681H352.022L366.289 296.396L368.028 295.869L380.285 292.19L380.677 287.621L381.205 281.557L381.518 277.913L383.999 249.173L385.447 232.405L387.015 214.199C387.307 210.898 386.851 207.574 385.683 204.472C384.514 201.37 382.662 198.57 380.263 196.278Z" fill="#121212"/>
<path d="M415.207 335.34C415.043 334.863 414.886 334.387 414.722 333.917C407.392 312.565 396.583 296.416 380.676 287.619C380.669 287.619 380.669 287.612 380.662 287.612L380.391 287.463L366.531 292.253L364.82 292.843L363.037 293.463L363.016 293.47L350.039 297.954L350.018 297.961L339.836 301.477H339.829L330.41 304.729H330.403L328.214 305.491L311.752 311.177L309.841 311.839L308.129 312.43L307.866 312.523L307.816 313.334L306.639 333.917L306.561 335.34L305.092 361.026L256.316 429.999H289.684C300.865 430.002 312.03 429.152 323.081 427.458L354.388 393.78C354.651 393.508 354.982 393.314 355.347 393.217C355.712 393.12 356.097 393.125 356.459 393.231C356.822 393.336 357.149 393.538 357.405 393.816C357.66 394.093 357.835 394.435 357.911 394.805L362.509 417.58C385.165 409.582 406.359 397.942 425.253 383.118C423.057 365.432 419.848 349.311 415.207 335.34Z" fill="#121212"/>
<path d="M293.344 144.873H306.757L312.674 128.333L313.858 144.873H320.269L323.721 135.225L324.411 144.873H372.047C372.047 140.167 371.119 135.507 369.315 131.159C367.51 126.811 364.866 122.861 361.532 119.533C358.199 116.206 354.241 113.566 349.886 111.765C345.53 109.964 340.862 109.037 336.147 109.037H329.244C319.722 109.037 310.591 112.813 303.859 119.533C297.126 126.254 293.344 135.369 293.344 144.873Z" fill="#121212"/>
<path d="M210.837 324.23C208.647 325.148 206.282 325.576 203.908 325.483C201.535 325.391 199.211 324.78 197.099 323.694C194.988 322.607 193.141 321.072 191.688 319.196C190.236 317.32 189.213 315.149 188.692 312.836L131.32 306.35L150.552 283.361L202.084 293.045C206.035 292.429 210.076 293.28 213.44 295.439C216.804 297.597 219.258 300.913 220.336 304.757C221.415 308.601 221.044 312.706 219.293 316.295C217.542 319.884 214.534 322.707 210.837 324.23Z" fill="#A0616A"/>
<path d="M179.908 281.677L155.659 277.349L153.898 277.036C152.491 276.785 151.153 276.24 149.971 275.436C148.79 274.632 147.793 273.588 147.045 272.372C146.297 271.156 145.815 269.796 145.631 268.381C145.447 266.966 145.564 265.528 145.977 264.161L157.883 224.668L158.24 223.494C159.727 218.474 159.462 213.099 157.489 208.249C155.516 203.399 151.953 199.361 147.381 196.797C144.287 195.082 140.838 194.102 137.302 193.934C133.767 193.766 130.24 194.415 126.996 195.829C123.753 197.243 120.88 199.386 118.601 202.089C116.322 204.792 114.698 207.984 113.856 211.416L98.6696 273.286L98.1064 275.577C97.0456 279.894 96.93 284.389 97.7672 288.755C98.6045 293.12 100.375 297.255 102.958 300.875C105.541 304.496 108.876 307.518 112.735 309.736C116.594 311.953 120.887 313.314 125.321 313.725C125.371 313.733 125.414 313.733 125.464 313.74L134.555 314.544L146.347 315.59L161.178 316.907L175.017 318.138C176.83 318.302 178.638 317.78 180.083 316.675C181.528 315.57 182.504 313.964 182.817 312.174C182.838 312.074 182.852 311.975 182.867 311.875L185.804 289.982L185.833 289.783C186.086 287.93 185.611 286.05 184.506 284.539C183.401 283.027 181.754 282.002 179.908 281.677Z" fill="#CCCCCC"/>
<path d="M142.545 115.797C132.865 134.795 125.236 154.39 103.884 154.39C93.6304 154.39 83.7967 150.324 76.5463 143.086C69.2959 135.849 65.2227 126.033 65.2227 115.797C65.2227 94.4833 82.5334 77.4718 103.884 77.2049C125.584 76.9337 160.563 80.4365 142.545 115.797Z" fill="#121212"/>
<path d="M166.829 364.33L165.951 355.59L165.295 355.625L50.0117 361.17L50.3111 370.016L50.8177 385.169C68.6561 398.733 88.4656 409.498 109.561 417.09L110.31 411.296C110.375 410.824 110.602 410.389 110.952 410.065C111.302 409.741 111.753 409.547 112.23 409.517C112.706 409.487 113.178 409.622 113.566 409.899C113.955 410.177 114.235 410.58 114.359 411.04L116.634 419.502C135.01 425.418 154.093 428.867 173.381 429.758L166.829 364.33Z" fill="#121212"/>
<path d="M129.768 145.226C143.012 132.006 143.012 110.572 129.768 97.3517C116.525 84.1315 95.052 84.1315 81.8082 97.3517C68.5644 110.572 68.5644 132.006 81.8082 145.226C95.052 158.447 116.525 158.447 129.768 145.226Z" fill="#A0616A"/>
<path d="M173.454 356.181L166.731 335.342L166.616 334.986L166.274 333.918L164.356 327.982C163.736 326.054 163.144 324.118 162.595 322.175C162.089 320.424 161.616 318.668 161.176 316.908C160.549 314.46 159.979 312.002 159.465 309.535C157.725 301.243 156.565 292.841 155.993 284.389C155.836 282.048 155.724 279.702 155.658 277.351C155.24 262.94 156.54 248.531 159.529 234.427C162.132 222.23 160.742 209.521 155.564 198.173C150.386 186.824 141.693 177.436 130.767 171.39C123.598 167.434 115.662 165.058 107.495 164.422C106.932 164.379 106.369 164.344 105.798 164.308C97.1712 163.764 88.5317 165.161 80.5178 168.396C72.5038 171.63 65.32 176.621 59.4966 182.998C56.3776 186.389 53.6686 190.135 51.4254 194.158C45.2013 205.352 42.8647 218.287 44.7804 230.946L52.7942 284.66L50.9693 307.271L48.8161 333.918L48.7019 335.342L46.4059 363.753C46.2971 365.078 46.6184 366.402 47.322 367.53C48.0257 368.658 49.0744 369.53 50.3131 370.017C51.0385 370.307 51.8133 370.454 52.5948 370.451C52.709 370.451 52.8159 370.451 52.93 370.444L166.83 364.33L167.871 364.273C168.822 364.224 169.748 363.957 170.578 363.494C171.408 363.03 172.121 362.382 172.66 361.6C173.2 360.818 173.552 359.922 173.69 358.983C173.827 358.043 173.747 357.084 173.454 356.181Z" fill="#CCCCCC"/>
<path d="M141.775 102.157C134.026 107.489 124.828 110.326 115.416 110.289C118.773 112.613 122.595 114.182 126.619 114.89C114.105 117.569 101.172 117.642 88.6285 115.103C85.8404 114.656 83.1501 113.734 80.6756 112.376C78.2672 110.917 76.2525 108.593 75.7667 105.823C74.9333 101.07 78.6435 96.7514 82.4993 93.8411C88.4029 89.4532 95.2096 86.4301 102.427 84.9904C109.645 83.5507 117.093 83.7304 124.232 85.5166C128.894 86.7195 133.564 88.7518 136.592 92.4889C139.62 96.2261 140.517 101.987 137.632 105.836L141.775 102.157Z" fill="#121212"/>
<path d="M143.511 317.187C141.341 318.152 138.986 318.631 136.611 318.59C134.236 318.549 131.899 317.988 129.765 316.948C127.63 315.907 125.751 314.412 124.258 312.568C122.765 310.724 121.695 308.576 121.124 306.274L63.625 301.03L82.3534 277.631L134.084 286.198C138.021 285.497 142.078 286.261 145.489 288.346C148.899 290.432 151.424 293.693 152.586 297.513C153.748 301.333 153.466 305.445 151.793 309.071C150.121 312.697 147.173 315.585 143.511 317.187Z" fill="#A0616A"/>
<path d="M111.667 275.316L98.6691 273.287L85.5571 271.237C84.145 271.017 82.7955 270.501 81.5973 269.723C80.3991 268.946 79.3793 267.924 78.6049 266.724C77.8305 265.525 77.3191 264.176 77.1041 262.766C76.8892 261.355 76.9756 259.915 77.3577 258.54L88.737 217.616C90.114 212.566 89.7325 207.198 87.6549 202.392C85.5773 197.586 81.9266 193.627 77.3006 191.162C74.1756 189.498 70.7052 188.583 67.1645 188.49C63.6238 188.398 60.1101 189.13 56.9021 190.628C53.6841 192.103 50.8532 194.303 48.6323 197.056C46.4114 199.809 44.8611 203.039 44.1037 206.492L29.7513 270.981C28.7844 275.331 28.7705 279.839 29.7103 284.195C30.6501 288.551 32.5216 292.653 35.1967 296.22C37.8718 299.787 41.2873 302.735 45.2095 304.862C49.1317 306.99 53.468 308.246 57.9218 308.546L107.567 311.87C109.383 311.993 111.178 311.432 112.599 310.297C114.02 309.163 114.962 307.537 115.239 305.742C115.26 305.642 115.267 305.542 115.282 305.443L117.742 283.493L117.763 283.294C117.975 281.436 117.459 279.568 116.323 278.081C115.186 276.594 113.518 275.603 111.667 275.316Z" fill="#CCCCCC"/>
<path d="M331.608 241.294L328.632 242.914L291.976 262.879L289.001 264.499C287.557 265.288 286.486 266.615 286.022 268.191C285.558 269.767 285.739 271.463 286.525 272.906L313.822 322.846C314.612 324.287 315.942 325.356 317.521 325.82C319.1 326.283 320.798 326.102 322.244 325.317L322.252 325.313L364.843 302.116L364.851 302.111C366.294 301.323 367.366 299.995 367.83 298.419C368.294 296.843 368.113 295.148 367.326 293.705L340.029 243.765C339.24 242.324 337.909 241.254 336.331 240.791C334.752 240.328 333.053 240.508 331.608 241.294Z" fill="#E6E6E6"/>
<path d="M332.463 242.86L328.939 244.779L293.38 264.146L289.856 266.065C288.828 266.627 288.065 267.572 287.734 268.695C287.404 269.817 287.533 271.024 288.093 272.052L315.39 321.992C315.952 323.018 316.9 323.779 318.024 324.109C319.148 324.439 320.358 324.311 321.387 323.751L321.395 323.747L363.986 300.55L363.994 300.546C365.022 299.984 365.785 299.039 366.115 297.916C366.446 296.794 366.317 295.587 365.757 294.559L338.46 244.619C337.897 243.593 336.95 242.832 335.826 242.502C334.702 242.172 333.492 242.3 332.463 242.86Z" fill="white"/>
<path d="M333.465 256.959C333.333 256.719 333.111 256.541 332.848 256.464C332.585 256.387 332.302 256.416 332.061 256.546L330.642 257.322L316.175 265.201C315.936 265.333 315.758 265.554 315.682 265.816C315.605 266.078 315.636 266.36 315.767 266.6C315.898 266.84 316.118 267.018 316.381 267.096C316.643 267.174 316.925 267.145 317.166 267.016L333.052 258.361C333.292 258.229 333.47 258.007 333.547 257.745C333.625 257.482 333.595 257.2 333.465 256.959Z" fill="#E6E6E6"/>
<path d="M338.876 257.978C338.811 257.859 338.723 257.754 338.618 257.67C338.513 257.585 338.392 257.522 338.262 257.484C338.132 257.446 337.995 257.435 337.861 257.45C337.726 257.465 337.596 257.507 337.478 257.572L317.849 268.262C317.73 268.327 317.625 268.415 317.54 268.52C317.455 268.626 317.392 268.747 317.354 268.877C317.316 269.007 317.304 269.143 317.319 269.277C317.333 269.412 317.374 269.542 317.439 269.661C317.504 269.78 317.592 269.884 317.698 269.969C317.803 270.054 317.925 270.117 318.055 270.155C318.185 270.193 318.321 270.205 318.456 270.191C318.591 270.176 318.721 270.135 318.84 270.07L319.753 269.572L325.464 266.462H325.471L338.462 259.38C338.582 259.316 338.688 259.229 338.775 259.123C338.861 259.018 338.925 258.896 338.963 258.766C339.002 258.635 339.014 258.498 338.999 258.363C338.984 258.228 338.942 258.097 338.876 257.978Z" fill="#E6E6E6"/>
<path d="M317.543 275.016L311.311 263.608C311.246 263.493 311.139 263.409 311.012 263.373C310.885 263.337 310.749 263.352 310.634 263.415L307.611 265.059L306.042 265.914L297.622 270.497L295.989 271.387C295.874 271.451 295.789 271.559 295.753 271.685C295.717 271.812 295.733 271.948 295.796 272.063L296.196 272.796L302.028 283.472C302.091 283.586 302.197 283.67 302.323 283.706C302.449 283.742 302.583 283.727 302.698 283.664L312.751 278.191L314.32 277.337L317.343 275.693C317.401 275.662 317.452 275.619 317.493 275.568C317.535 275.518 317.565 275.459 317.584 275.396C317.603 275.333 317.608 275.267 317.601 275.202C317.594 275.137 317.574 275.074 317.543 275.016Z" fill="#E6E6E6"/>
<path d="M341.341 271.435C341.21 271.196 340.989 271.018 340.727 270.941C340.465 270.863 340.183 270.893 339.943 271.023L318.396 282.759C318.206 282.863 318.054 283.024 317.96 283.22C317.867 283.415 317.837 283.635 317.876 283.848C317.891 283.958 317.928 284.065 317.983 284.161C318.038 284.259 318.107 284.348 318.19 284.424L318.197 284.431C318.357 284.575 318.557 284.665 318.77 284.691C318.983 284.716 319.199 284.675 319.388 284.574L340.934 272.838C341.053 272.772 341.158 272.684 341.243 272.578C341.328 272.473 341.391 272.351 341.429 272.221C341.467 272.091 341.479 271.954 341.463 271.819C341.448 271.685 341.406 271.554 341.341 271.435Z" fill="#E6E6E6"/>
<path d="M346.759 272.454C346.694 272.335 346.605 272.231 346.499 272.146C346.393 272.061 346.272 271.998 346.141 271.961C346.011 271.923 345.874 271.911 345.739 271.926C345.604 271.941 345.473 271.983 345.354 272.048L320.065 285.82C319.875 285.92 319.722 286.079 319.628 286.272C319.534 286.465 319.505 286.684 319.544 286.895V286.902C319.559 287.012 319.596 287.119 319.651 287.215C319.706 287.317 319.779 287.408 319.865 287.485C320.023 287.632 320.223 287.724 320.437 287.75C320.651 287.775 320.868 287.733 321.056 287.628L346.346 273.856C346.586 273.724 346.765 273.503 346.842 273.24C346.92 272.977 346.89 272.695 346.759 272.454Z" fill="#E6E6E6"/>
<path d="M311.182 294.182C313.604 294.182 315.567 292.223 315.567 289.805C315.567 287.388 313.604 285.428 311.182 285.428C308.76 285.428 306.797 287.388 306.797 289.805C306.797 292.223 308.76 294.182 311.182 294.182Z" fill="#E6E6E6"/>
<path d="M344.44 222.079L341.464 223.699L304.808 243.664L301.833 245.284C300.389 246.073 299.318 247.401 298.854 248.977C298.39 250.553 298.571 252.248 299.357 253.691L326.654 303.631C327.444 305.072 328.774 306.141 330.353 306.605C331.932 307.068 333.63 306.887 335.076 306.102L335.084 306.098L377.675 282.901L377.683 282.896C379.126 282.108 380.198 280.78 380.662 279.204C381.126 277.628 380.945 275.933 380.158 274.49L352.861 224.55C352.072 223.109 350.741 222.039 349.163 221.576C347.584 221.113 345.885 221.293 344.44 222.079Z" fill="#CCCCCC"/>
<path d="M345.299 223.643L341.775 225.562L306.216 244.929L302.692 246.848C301.664 247.41 300.901 248.355 300.57 249.478C300.24 250.6 300.369 251.807 300.929 252.835L328.226 302.775C328.788 303.801 329.736 304.563 330.86 304.893C331.984 305.223 333.194 305.094 334.223 304.535L334.231 304.531L376.822 281.333L376.83 281.329C377.858 280.768 378.621 279.822 378.951 278.7C379.282 277.577 379.153 276.37 378.593 275.342L351.296 225.403C350.733 224.376 349.786 223.615 348.662 223.285C347.537 222.955 346.328 223.084 345.299 223.643Z" fill="white"/>
<path d="M346.297 237.742C346.165 237.502 345.943 237.325 345.68 237.247C345.417 237.17 345.134 237.2 344.893 237.329L337.577 241.315L335.538 242.425L329.007 245.984C328.768 246.116 328.591 246.337 328.514 246.599C328.437 246.861 328.468 247.143 328.599 247.383C328.73 247.623 328.95 247.801 329.213 247.879C329.475 247.957 329.757 247.928 329.998 247.799L337.699 243.607L339.31 242.724L345.884 239.144C346.124 239.012 346.302 238.791 346.379 238.528C346.457 238.266 346.427 237.983 346.297 237.742Z" fill="#CCCCCC"/>
<path d="M351.707 238.761C351.643 238.642 351.555 238.538 351.45 238.453C351.345 238.368 351.224 238.305 351.094 238.267C350.964 238.229 350.827 238.218 350.693 238.233C350.558 238.248 350.428 238.29 350.31 238.356L340.107 243.914L338.538 244.768L330.681 249.046C330.562 249.111 330.457 249.198 330.372 249.304C330.287 249.409 330.224 249.53 330.186 249.66C330.148 249.79 330.136 249.926 330.151 250.061C330.165 250.195 330.206 250.325 330.271 250.444C330.336 250.563 330.424 250.668 330.53 250.752C330.635 250.837 330.757 250.9 330.887 250.938C331.017 250.976 331.153 250.988 331.288 250.974C331.423 250.959 331.553 250.918 331.672 250.853L339.53 246.576L341.098 245.722L351.294 240.163C351.414 240.099 351.52 240.012 351.606 239.906C351.693 239.801 351.757 239.679 351.795 239.549C351.834 239.418 351.846 239.281 351.831 239.146C351.816 239.011 351.774 238.88 351.707 238.761Z" fill="#CCCCCC"/>
<path d="M330.375 255.8L325.405 246.704L324.55 245.138L324.143 244.391C324.078 244.276 323.971 244.192 323.844 244.156C323.717 244.12 323.581 244.135 323.466 244.199L313.377 249.693L308.821 252.17C308.706 252.235 308.622 252.342 308.585 252.468C308.549 252.595 308.565 252.731 308.628 252.846L309.035 253.586L309.477 254.405L309.89 255.152V255.159L314.86 264.255C314.923 264.369 315.03 264.453 315.155 264.489C315.281 264.525 315.416 264.51 315.53 264.447L330.175 256.476C330.233 256.445 330.284 256.403 330.325 256.352C330.367 256.301 330.397 256.242 330.416 256.179C330.435 256.116 330.441 256.051 330.433 255.985C330.426 255.92 330.406 255.857 330.375 255.8Z" fill="#FDE14E"/>
<path d="M354.175 252.219C354.045 251.979 353.824 251.801 353.562 251.724C353.3 251.647 353.018 251.676 352.778 251.806L346.339 255.315L344.771 256.169L338.554 259.549L331.231 263.542C331.112 263.607 331.006 263.695 330.921 263.801C330.836 263.906 330.772 264.028 330.734 264.158C330.695 264.288 330.683 264.424 330.697 264.559C330.712 264.694 330.753 264.825 330.818 264.944C330.883 265.063 330.971 265.169 331.077 265.254C331.182 265.339 331.304 265.403 331.434 265.441C331.565 265.479 331.702 265.492 331.837 265.477C331.972 265.463 332.103 265.422 332.222 265.357L345.762 257.984L347.331 257.13L353.769 253.621C353.888 253.556 353.993 253.468 354.078 253.362C354.163 253.256 354.226 253.134 354.264 253.004C354.302 252.874 354.313 252.737 354.298 252.603C354.283 252.468 354.241 252.337 354.175 252.219Z" fill="#CCCCCC"/>
<path d="M359.595 253.237C359.529 253.118 359.441 253.014 359.335 252.929C359.229 252.844 359.107 252.781 358.977 252.744C358.846 252.706 358.709 252.694 358.574 252.71C358.439 252.725 358.309 252.766 358.19 252.831L348.016 258.376L346.447 259.23L332.9 266.603C332.781 266.668 332.675 266.755 332.59 266.861C332.504 266.966 332.44 267.088 332.402 267.218C332.363 267.348 332.351 267.484 332.365 267.619C332.38 267.754 332.421 267.885 332.486 268.004C332.551 268.123 332.639 268.228 332.745 268.313C332.851 268.398 332.973 268.461 333.104 268.499C333.234 268.537 333.371 268.548 333.506 268.533C333.641 268.518 333.772 268.477 333.891 268.411L347.431 261.038L349 260.184L359.181 254.639C359.422 254.507 359.6 254.286 359.678 254.023C359.755 253.761 359.725 253.478 359.595 253.237Z" fill="#CCCCCC"/>
<path d="M324.014 274.968C326.436 274.968 328.399 273.008 328.399 270.59C328.399 268.173 326.436 266.213 324.014 266.213C321.592 266.213 319.629 268.173 319.629 270.59C319.629 273.008 321.592 274.968 324.014 274.968Z" fill="#CCCCCC"/>
<path d="M326.959 295.199C327.697 295.271 328.428 295.402 329.146 295.589L378.877 251.551L375.661 235.752L398.912 227.791L407.328 255.207C408.008 257.422 407.95 259.797 407.162 261.976C406.375 264.155 404.901 266.021 402.961 267.292L339.737 308.728C339.83 311.579 339.051 314.39 337.505 316.789C335.958 319.187 333.717 321.059 331.079 322.154C328.44 323.25 325.53 323.518 322.736 322.923C319.941 322.328 317.395 320.897 315.434 318.822C313.474 316.746 312.193 314.124 311.763 311.304C311.332 308.485 311.771 305.601 313.022 303.036C314.273 300.472 316.276 298.348 318.766 296.948C321.256 295.548 324.113 294.938 326.959 295.199Z" fill="#FFB8B8"/>
<path d="M413.113 231.735L399.024 204.875C397.574 200.79 394.591 197.427 390.704 195.496C386.817 193.565 382.33 193.217 378.191 194.527C378.034 194.569 377.884 194.619 377.727 194.676C373.533 196.14 370.092 199.205 368.159 203.198C366.226 207.192 365.959 211.788 367.417 215.978L373.071 245.664C373.233 246.513 373.577 247.318 374.079 248.023C374.581 248.728 375.23 249.317 375.981 249.749C376.801 250.228 377.726 250.502 378.675 250.546C379.457 250.595 380.24 250.487 380.978 250.226L384.002 249.172L403.409 242.425L409.755 240.219C410.573 239.933 411.321 239.475 411.946 238.875C412.571 238.276 413.059 237.549 413.378 236.744C413.697 235.939 413.838 235.075 413.792 234.211C413.746 233.346 413.515 232.502 413.113 231.735Z" fill="#FDE14E"/>
<path d="M466.297 335.341H0.712992C0.523894 335.341 0.342542 335.266 0.20883 335.133C0.075118 334.999 0 334.818 0 334.63C0 334.441 0.075118 334.26 0.20883 334.126C0.342542 333.993 0.523894 333.918 0.712992 333.918H466.297C466.486 333.918 466.667 333.993 466.801 334.126C466.934 334.26 467.01 334.441 467.01 334.63C467.01 334.818 466.934 334.999 466.801 335.133C466.667 335.266 466.486 335.341 466.297 335.341Z" fill="#3F3D56"/>
<path d="M80.9219 322.174V322.53C80.9244 324.943 81.6283 327.303 82.9484 329.324C84.2684 331.346 86.1478 332.941 88.3585 333.917C89.9442 334.625 91.6623 334.989 93.3992 334.985H208.547V322.174H80.9219Z" fill="#3F3D56"/>
<path d="M288.942 237.742C287.115 233.977 284.302 230.775 280.8 228.476C279.213 227.427 277.5 226.58 275.702 225.956C273.252 225.102 270.676 224.667 268.081 224.668H157.567C151.423 224.675 145.533 227.114 141.189 231.451C136.845 235.787 134.402 241.666 134.395 247.799V311.854C134.393 312.753 134.445 313.651 134.552 314.544C134.708 315.879 134.98 317.198 135.364 318.487C135.745 319.756 136.237 320.99 136.833 322.174C138.752 326.023 141.71 329.262 145.373 331.525C149.036 333.789 153.259 334.987 157.567 334.985H268.081C271.124 334.986 274.138 334.388 276.949 333.226C279.761 332.064 282.316 330.36 284.468 328.212C286.62 326.064 288.327 323.514 289.491 320.707C290.655 317.9 291.254 314.892 291.253 311.854V247.799C291.258 244.315 290.468 240.876 288.942 237.742Z" fill="#3F3D56"/>
<path d="M218.888 285.52C222.038 285.52 224.591 282.971 224.591 279.827C224.591 276.682 222.038 274.133 218.888 274.133C215.737 274.133 213.184 276.682 213.184 279.827C213.184 282.971 215.737 285.52 218.888 285.52Z" fill="white"/>
</g>
<defs>
<clipPath id="clip0_615_411">
<rect width="510" height="430" fill="white"/>
</clipPath>
</defs>
</svg>
