<svg width="50" height="50" viewBox="0 0 50 50" fill="none" xmlns="http://www.w3.org/2000/svg">
<circle cx="25" cy="25" r="25" fill="#FDE14E"/>
<path d="M25.002 27.381C26.317 27.381 27.383 26.3151 27.383 25.0001C27.383 23.6851 26.317 22.6191 25.002 22.6191C23.6871 22.6191 22.6211 23.6851 22.6211 25.0001C22.6211 26.3151 23.6871 27.381 25.002 27.381Z" stroke="#121212" stroke-width="2" stroke-linecap="round" stroke-linejoin="round"/>
<path d="M30.0475 19.9521C30.7116 20.6154 31.2385 21.4032 31.5979 22.2703C31.9574 23.1375 32.1424 24.0669 32.1424 25.0056C32.1424 25.9443 31.9574 26.8738 31.5979 27.7409C31.2385 28.608 30.7116 29.3958 30.0475 30.0592M19.9523 30.0473C19.2881 29.3839 18.7613 28.5961 18.4018 27.729C18.0424 26.8619 17.8574 25.9324 17.8574 24.9937C17.8574 24.055 18.0424 23.1256 18.4018 22.2584C18.7613 21.3913 19.2881 20.6035 19.9523 19.9402M33.4165 16.583C35.6483 18.8155 36.9021 21.843 36.9021 24.9997C36.9021 28.1564 35.6483 31.1839 33.4165 33.4163M16.5832 33.4163C14.3514 31.1839 13.0977 28.1564 13.0977 24.9997C13.0977 21.843 14.3514 18.8155 16.5832 16.583" stroke="#121212" stroke-width="2" stroke-linecap="round" stroke-linejoin="round"/>
</svg>
