<svg width="50" height="50" viewBox="0 0 50 50" fill="none" xmlns="http://www.w3.org/2000/svg">
<circle cx="25" cy="25" r="25" fill="#FDE14E"/>
<path d="M25.0015 11.9043C22.4115 11.9043 19.8797 12.6723 17.7262 14.1112C15.5727 15.5502 13.8942 17.5954 12.9031 19.9882C11.9119 22.381 11.6526 25.0141 12.1579 27.5543C12.6632 30.0945 13.9104 32.4279 15.7418 34.2593C17.5732 36.0907 19.9065 37.3379 22.4467 37.8432C24.987 38.3484 27.62 38.0891 30.0128 37.098C32.4057 36.1068 34.4509 34.4284 35.8898 32.2749C37.3287 30.1214 38.0967 27.5895 38.0967 24.9995C38.0967 21.5265 36.7171 18.1956 34.2612 15.7398C31.8054 13.284 28.4746 11.9043 25.0015 11.9043ZM25.0015 35.7138C22.8824 35.7138 20.8109 35.0854 19.049 33.9081C17.287 32.7308 15.9137 31.0575 15.1028 29.0997C14.2918 27.1419 14.0797 24.9876 14.4931 22.9093C14.9065 20.8309 15.9269 18.9218 17.4253 17.4234C18.9238 15.925 20.8329 14.9045 22.9112 14.4911C24.9896 14.0777 27.1439 14.2899 29.1017 15.1008C31.0595 15.9118 32.7328 17.285 33.9101 19.047C35.0874 20.809 35.7158 22.8804 35.7158 24.9995C35.7158 27.8411 34.587 30.5664 32.5776 32.5757C30.5683 34.585 27.8431 35.7138 25.0015 35.7138ZM27.3824 19.0472V17.8567C27.3824 17.5409 27.257 17.2381 27.0338 17.0149C26.8105 16.7916 26.5077 16.6662 26.192 16.6662C25.8762 16.6662 25.5734 16.7916 25.3502 17.0149C25.1269 17.2381 25.0015 17.5409 25.0015 17.8567V19.0472H23.811V17.8567C23.811 17.5409 23.6856 17.2381 23.4623 17.0149C23.2391 16.7916 22.9363 16.6662 22.6205 16.6662C22.3048 16.6662 22.002 16.7916 21.7787 17.0149C21.5555 17.2381 21.4301 17.5409 21.4301 17.8567V19.0472H20.2396C19.9239 19.0472 19.6211 19.1726 19.3978 19.3958C19.1745 19.6191 19.0491 19.9219 19.0491 20.2376C19.0491 20.5534 19.1745 20.8562 19.3978 21.0794C19.6211 21.3027 19.9239 21.4281 20.2396 21.4281H21.4301V28.571H20.2396C19.9239 28.571 19.6211 28.6964 19.3978 28.9196C19.1745 29.1429 19.0491 29.4457 19.0491 29.7614C19.0491 30.0772 19.1745 30.38 19.3978 30.6032C19.6211 30.8265 19.9239 30.9519 20.2396 30.9519H21.4301V32.1424C21.4301 32.4581 21.5555 32.7609 21.7787 32.9842C22.002 33.2074 22.3048 33.3329 22.6205 33.3329C22.9363 33.3329 23.2391 33.2074 23.4623 32.9842C23.6856 32.7609 23.811 32.4581 23.811 32.1424V30.9519H25.0015V32.1424C25.0015 32.4581 25.1269 32.7609 25.3502 32.9842C25.5734 33.2074 25.8762 33.3329 26.192 33.3329C26.5077 33.3329 26.8105 33.2074 27.0338 32.9842C27.257 32.7609 27.3824 32.4581 27.3824 32.1424V30.9519C28.3296 30.9519 29.2381 30.5756 29.9078 29.9059C30.5776 29.2361 30.9539 28.3277 30.9539 27.3805C30.9519 26.501 30.6255 25.6533 30.0372 24.9995C30.6255 24.3458 30.9519 23.498 30.9539 22.6186C30.9539 21.6714 30.5776 20.763 29.9078 20.0932C29.2381 19.4234 28.3296 19.0472 27.3824 19.0472ZM27.3824 28.571H23.811V26.19H27.3824C27.6982 26.19 28.001 26.3154 28.2242 26.5387C28.4475 26.762 28.5729 27.0648 28.5729 27.3805C28.5729 27.6962 28.4475 27.999 28.2242 28.2223C28.001 28.4455 27.6982 28.571 27.3824 28.571ZM27.3824 23.8091H23.811V21.4281H27.3824C27.6982 21.4281 28.001 21.5535 28.2242 21.7768C28.4475 22 28.5729 22.3028 28.5729 22.6186C28.5729 22.9343 28.4475 23.2371 28.2242 23.4604C28.001 23.6836 27.6982 23.8091 27.3824 23.8091Z" fill="black"/>
</svg>
