<svg width="50" height="50" viewBox="0 0 50 50" fill="none" xmlns="http://www.w3.org/2000/svg">
<circle cx="25" cy="25" r="25" fill="#FDE14E"/>
<path d="M23.8119 15.4756H15.4786C14.8471 15.4756 14.2415 15.7264 13.795 16.173C13.3485 16.6195 13.0977 17.2251 13.0977 17.8565V34.5232C13.0977 35.1547 13.3485 35.7603 13.795 36.2068C14.2415 36.6533 14.8471 36.9042 15.4786 36.9042H32.1453C32.7767 36.9042 33.3823 36.6533 33.8289 36.2068C34.2754 35.7603 34.5262 35.1547 34.5262 34.5232V26.1899" stroke="#121212" stroke-width="2" stroke-linecap="round" stroke-linejoin="round"/>
<path d="M32.7402 13.6899C33.2138 13.2163 33.8562 12.9502 34.5259 12.9502C35.1957 12.9502 35.8381 13.2163 36.3117 13.6899C36.7853 14.1635 37.0513 14.8058 37.0513 15.4756C37.0513 16.1453 36.7853 16.7877 36.3117 17.2613L25.0021 28.5708L20.2402 29.7613L21.4307 24.9994L32.7402 13.6899Z" stroke="#121212" stroke-width="2" stroke-linecap="round" stroke-linejoin="round"/>
</svg>
