<svg width="50" height="50" viewBox="0 0 50 50" fill="none" xmlns="http://www.w3.org/2000/svg">
<circle cx="25" cy="25" r="25" fill="#FDE14E"/>
<path d="M16.6691 30.9518H15.4786C14.8471 30.9518 14.2415 30.701 13.795 30.2545C13.3485 29.8079 13.0977 29.2023 13.0977 28.5709V16.6661C13.0977 16.0346 13.3485 15.429 13.795 14.9825C14.2415 14.536 14.8471 14.2852 15.4786 14.2852H34.5262C35.1577 14.2852 35.7633 14.536 36.2098 14.9825C36.6563 15.429 36.9072 16.0346 36.9072 16.6661V28.5709C36.9072 29.2023 36.6563 29.8079 36.2098 30.2545C35.7633 30.701 35.1577 30.9518 34.5262 30.9518H33.3358" stroke="#121212" stroke-width="2" stroke-linecap="round" stroke-linejoin="round"/>
<path d="M24.9993 28.5713L30.9516 35.7141H19.0469L24.9993 28.5713Z" stroke="#121212" stroke-width="2" stroke-linecap="round" stroke-linejoin="round"/>
</svg>
