<svg width="50" height="50" viewBox="0 0 50 50" fill="none" xmlns="http://www.w3.org/2000/svg">
<circle cx="25" cy="25" r="25" fill="#FDE14E"/>
<path d="M26.4885 18.8098C27.6512 19.0366 28.7199 19.6053 29.5576 20.443C30.3953 21.2807 30.964 22.3494 31.1908 23.5121M26.4885 14.0479C28.9043 14.3162 31.157 15.3981 32.8768 17.1157C34.5967 18.8334 35.6813 21.0848 35.9527 23.5002M34.7623 33.0002V36.5717C34.7636 36.9032 34.6957 37.2314 34.5629 37.5352C34.43 37.839 34.2352 38.1116 33.9909 38.3358C33.7466 38.5599 33.4582 38.7306 33.1441 38.8368C32.83 38.943 32.4972 38.9825 32.167 38.9526C28.5037 38.5546 24.9849 37.3028 21.8932 35.2979C19.0168 33.4701 16.5781 31.0314 14.7504 28.155C12.7384 25.0493 11.4864 21.5133 11.0956 17.8336C11.0659 17.5044 11.105 17.1726 11.2105 16.8593C11.316 16.5461 11.4856 16.2582 11.7084 16.0141C11.9313 15.7699 12.2025 15.5749 12.5049 15.4413C12.8072 15.3078 13.1341 15.2386 13.4646 15.2383H17.0361C17.6138 15.2326 18.1739 15.4372 18.612 15.814C19.05 16.1907 19.3362 16.7139 19.417 17.2859C19.5678 18.4289 19.8473 19.5511 20.2504 20.6312C20.4105 21.0573 20.4452 21.5204 20.3503 21.9656C20.2553 22.4108 20.0347 22.8194 19.7146 23.1431L18.2027 24.655C19.8975 27.6354 22.3652 30.1031 25.3456 31.7979L26.8575 30.2859C27.1812 29.9659 27.5898 29.7453 28.035 29.6503C28.4802 29.5554 28.9433 29.5901 29.3694 29.7502C30.4495 30.1533 31.5717 30.4328 32.7146 30.5836C33.2929 30.6651 33.8211 30.9564 34.1986 31.402C34.5762 31.8476 34.7768 32.4164 34.7623 33.0002Z" stroke="#121212" stroke-width="2" stroke-linecap="round" stroke-linejoin="round"/>
</svg>
