<svg width="50" height="50" viewBox="0 0 50 50" fill="none" xmlns="http://www.w3.org/2000/svg">
<circle cx="25" cy="25" r="25" fill="#FDE14E"/>
<path d="M20.0003 30.9518H29.5241V30.2971C29.5241 29.4042 29.0876 28.6947 28.2146 28.1685C27.3415 27.6431 26.1908 27.3804 24.7622 27.3804C23.3336 27.3804 22.1828 27.6431 21.3098 28.1685C20.4368 28.6947 20.0003 29.4042 20.0003 30.2971V30.9518ZM24.7622 26.1899C25.4169 26.1899 25.9777 25.9566 26.4443 25.4899C26.9102 25.024 27.1431 24.4637 27.1431 23.809C27.1431 23.1542 26.9102 22.5935 26.4443 22.1268C25.9777 21.6609 25.4169 21.428 24.7622 21.428C24.1074 21.428 23.5471 21.6609 23.0812 22.1268C22.6146 22.5935 22.3812 23.1542 22.3812 23.809C22.3812 24.4637 22.6146 25.024 23.0812 25.4899C23.5471 25.9566 24.1074 26.1899 24.7622 26.1899ZM15.2384 35.7137C14.5836 35.7137 14.0233 35.4808 13.5574 35.0149C13.0908 34.5483 12.8574 33.9875 12.8574 33.3328V19.0471C12.8574 18.3923 13.0908 17.832 13.5574 17.3661C14.0233 16.8994 14.5836 16.6661 15.2384 16.6661H18.9884L21.1908 14.2852H28.3336L30.536 16.6661H34.286C34.9408 16.6661 35.5015 16.8994 35.9681 17.3661C36.434 17.832 36.6669 18.3923 36.6669 19.0471V33.3328C36.6669 33.9875 36.434 34.5483 35.9681 35.0149C35.5015 35.4808 34.9408 35.7137 34.286 35.7137H15.2384ZM34.286 33.3328V19.0471H29.4646L27.2919 16.6661H22.2324L20.0598 19.0471H15.2384V33.3328H34.286Z" fill="#121212"/>
</svg>
