<svg width="50" height="50" viewBox="0 0 50 50" fill="none" xmlns="http://www.w3.org/2000/svg">
<circle cx="25" cy="25" r="25" fill="#FDE14E"/>
<path d="M33.3329 27.3803V17.8565C33.3329 16.547 32.2614 15.4756 30.9519 15.4756H14.2852C12.9757 15.4756 11.9043 16.547 11.9043 17.8565V27.3803C11.9043 28.6899 12.9757 29.7613 14.2852 29.7613H30.9519C32.2614 29.7613 33.3329 28.6899 33.3329 27.3803ZM30.9519 27.3803H14.2852V17.8565H30.9519V27.3803ZM22.6186 19.047C20.6424 19.047 19.0472 20.6423 19.0472 22.6184C19.0472 24.5946 20.6424 26.1899 22.6186 26.1899C24.5948 26.1899 26.19 24.5946 26.19 22.6184C26.19 20.6423 24.5948 19.047 22.6186 19.047ZM38.0948 19.047V32.1423C38.0948 33.4518 37.0233 34.5232 35.7138 34.5232H15.4757V32.1423H35.7138V19.047H38.0948Z" fill="#121212"/>
</svg>
