<svg width="50" height="50" viewBox="0 0 50 50" fill="none" xmlns="http://www.w3.org/2000/svg">
<circle cx="25" cy="25" r="25" fill="#FDE14E"/>
<path d="M34.5243 19.0479H15.4767C14.1617 19.0479 13.0957 20.1138 13.0957 21.4288V33.3336C13.0957 34.6485 14.1617 35.7145 15.4767 35.7145H34.5243C35.8392 35.7145 36.9052 34.6485 36.9052 33.3336V21.4288C36.9052 20.1138 35.8392 19.0479 34.5243 19.0479Z" stroke="#121212" stroke-width="2" stroke-linecap="round" stroke-linejoin="round"/>
<path d="M29.7621 35.7137V16.6661C29.7621 16.0346 29.5112 15.429 29.0647 14.9825C28.6182 14.536 28.0126 14.2852 27.3811 14.2852H22.6192C21.9878 14.2852 21.3822 14.536 20.9356 14.9825C20.4891 15.429 20.2383 16.0346 20.2383 16.6661V35.7137" stroke="#121212" stroke-width="2" stroke-linecap="round" stroke-linejoin="round"/>
</svg>
