<svg width="30" height="40" viewBox="0 0 30 40" fill="none" xmlns="http://www.w3.org/2000/svg">
<path d="M30 40H0.884086V32.2817L13.556 21.9155C14.6955 20.9765 15.6582 20.1315 16.444 19.3803C17.2299 18.5915 17.8585 17.8404 18.3301 17.1268C18.8409 16.3756 19.1945 15.6432 19.391 14.9296C19.6267 14.216 19.7446 13.446 19.7446 12.6197V11.831C19.7446 11.0798 19.5874 10.4225 19.2731 9.85915C18.9587 9.29577 18.5462 8.82629 18.0354 8.45071C17.5246 8.07512 16.9352 7.79343 16.2672 7.60563C15.6385 7.41784 14.9902 7.32394 14.3222 7.32394C13.3399 7.32394 12.4754 7.47418 11.7289 7.77465C11.0216 8.07512 10.3929 8.48826 9.84283 9.01408C9.33202 9.50235 8.8998 10.0845 8.54617 10.7606C8.19253 11.3991 7.91748 12.0939 7.72102 12.8451L0 10.0282C0.471513 8.67606 1.11984 7.39906 1.94499 6.19718C2.77014 4.95775 3.79175 3.88733 5.00982 2.98592C6.26719 2.04695 7.74067 1.31455 9.43025 0.788732C11.1198 0.262911 13.0255 0 15.1473 0C17.387 0 19.3713 0.30047 21.1002 0.90141C22.8291 1.50235 24.2829 2.32864 25.4617 3.38028C26.6798 4.43192 27.6031 5.69014 28.2318 7.15493C28.8605 8.58216 29.1749 10.1408 29.1749 11.831C29.1749 13.5211 28.8802 15.061 28.2908 16.4507C27.7014 17.8404 26.8959 19.1549 25.8743 20.3944C24.8919 21.5962 23.7328 22.7418 22.3969 23.831C21.0609 24.9202 19.666 26.0282 18.2122 27.1549L10.5501 32.9014H30V40Z" fill="white"/>
</svg>
