<svg width="30" height="40" viewBox="0 0 30 40" fill="none" xmlns="http://www.w3.org/2000/svg">
<path d="M14.1109 15.9557C16.2524 15.9557 17.8011 15.5679 18.7572 14.7922C19.7514 13.9797 20.2486 12.9825 20.2486 11.8006V11.4127C20.2486 10.0092 19.7706 8.88273 18.8145 8.03324C17.8968 7.18375 16.5774 6.759 14.8566 6.759C13.2505 6.759 11.74 7.16528 10.325 7.97784C8.91013 8.75346 7.70554 9.87996 6.71128 11.3573L1.31931 6.48199C2.08413 5.5217 2.90631 4.65374 3.78585 3.87812C4.66539 3.06556 5.65966 2.38227 6.76864 1.82825C7.87763 1.2373 9.12046 0.794091 10.4971 0.498615C11.8738 0.166205 13.4226 0 15.1434 0C17.2849 0 19.2161 0.240074 20.9369 0.720222C22.696 1.20037 24.1874 1.90212 25.4111 2.82548C26.673 3.71191 27.6291 4.78301 28.2792 6.03878C28.9675 7.29455 29.3117 8.69806 29.3117 10.2493C29.3117 11.4681 29.1013 12.5762 28.6807 13.5734C28.2983 14.5706 27.7438 15.4386 27.0172 16.1773C26.3289 16.916 25.5258 17.5254 24.608 18.0055C23.6902 18.4488 22.7151 18.7627 21.6826 18.9474V19.2798C22.8681 19.5014 23.9579 19.8707 24.9522 20.3878C25.9847 20.868 26.8642 21.4958 27.5908 22.2715C28.3556 23.0471 28.9484 23.9705 29.369 25.0416C29.7897 26.0757 30 27.2576 30 28.5873C30 30.3232 29.6367 31.8929 28.9101 33.2964C28.1836 34.6999 27.1511 35.9003 25.8126 36.8975C24.4742 37.8947 22.8681 38.6704 20.9943 39.2244C19.1205 39.7415 17.0555 40 14.7992 40C12.7725 40 10.9751 39.7969 9.40727 39.3906C7.83939 38.9843 6.46272 38.4488 5.27725 37.7839C4.13002 37.0822 3.11663 36.2881 2.23709 35.4017C1.39579 34.5152 0.650096 33.5734 0 32.5762L6.36711 27.8116C7.24665 29.3998 8.3174 30.711 9.57935 31.7452C10.8795 32.7424 12.6195 33.241 14.7992 33.241C16.7495 33.241 18.26 32.7793 19.3308 31.856C20.4398 30.8957 20.9943 29.603 20.9943 27.9778V27.6454C20.9943 26.0572 20.3633 24.8753 19.1013 24.0997C17.8776 23.2872 16.1759 22.8809 13.9962 22.8809H10.3824V15.9557H14.1109Z" fill="white"/>
</svg>
