<svg width="30" height="40" viewBox="0 0 30 40" fill="none" xmlns="http://www.w3.org/2000/svg">
<path d="M27.6209 7.38028H9.22631L8.3559 19.831H8.82012C9.20696 18.892 9.63249 18.0469 10.0967 17.2958C10.5996 16.507 11.1799 15.8498 11.8375 15.3239C12.4952 14.7606 13.2882 14.3286 14.2166 14.0282C15.1451 13.7277 16.2476 13.5775 17.5242 13.5775C19.265 13.5775 20.8897 13.8592 22.3985 14.4225C23.9072 14.9859 25.2224 15.8122 26.3443 16.9014C27.4662 17.9531 28.3559 19.2676 29.0135 20.8451C29.6712 22.385 30 24.1315 30 26.0845C30 28.0751 29.6518 29.9343 28.9555 31.662C28.2979 33.3521 27.2921 34.8169 25.9381 36.0563C24.6228 37.2958 22.9981 38.2723 21.0638 38.9859C19.1296 39.662 16.9246 40 14.4487 40C12.4758 40 10.735 39.7934 9.22631 39.3803C7.7176 38.9671 6.38298 38.4225 5.22244 37.7465C4.0619 37.0329 3.05609 36.2253 2.20503 35.3239C1.35396 34.4225 0.618955 33.4648 0 32.4507L6.32495 27.6056C7.2147 29.1455 8.27853 30.4601 9.51644 31.5493C10.7544 32.6009 12.4178 33.1268 14.5068 33.1268C16.5957 33.1268 18.1625 32.5446 19.207 31.3803C20.2901 30.216 20.8317 28.6761 20.8317 26.7606V26.3099C20.8317 24.507 20.2901 23.0798 19.207 22.0282C18.1238 20.9765 16.6344 20.4507 14.7389 20.4507C13.1528 20.4507 11.8375 20.77 10.793 21.4085C9.78723 22.0094 9.01354 22.6103 8.47195 23.2113L1.33462 22.2535L2.84333 0H27.6209V7.38028Z" fill="white"/>
</svg>
