<svg width="30" height="40" viewBox="0 0 30 40" fill="none" xmlns="http://www.w3.org/2000/svg">
<path d="M15 40C12.6336 40 10.5153 39.6432 8.64504 38.9296C6.77481 38.1784 5.19084 37.1268 3.89313 35.7746C2.63359 34.385 1.66031 32.7324 0.973282 30.8169C0.324427 28.9014 0 26.7606 0 24.3944C0 21.6526 0.419847 19.061 1.25954 16.6197C2.1374 14.1408 3.24427 11.8685 4.58015 9.80281C5.9542 7.69953 7.48092 5.8216 9.1603 4.16901C10.8779 2.51643 12.5954 1.12676 14.313 0H26.1641C23.7214 1.7277 21.5267 3.38028 19.5802 4.95775C17.6336 6.49765 15.9351 8.05634 14.4847 9.6338C13.0725 11.2113 11.8893 12.8263 10.9351 14.4789C10.0191 16.0939 9.37023 17.8404 8.98855 19.7183L9.50382 19.8873C9.84733 19.1362 10.2481 18.4038 10.7061 17.6901C11.2023 16.9765 11.7939 16.3568 12.4809 15.831C13.2061 15.2676 14.0458 14.8169 15 14.4789C15.9542 14.1408 17.0611 13.9718 18.3206 13.9718C19.9618 13.9718 21.4885 14.2723 22.9008 14.8732C24.3511 15.4366 25.5916 16.2441 26.6221 17.2958C27.6908 18.3474 28.5114 19.6432 29.084 21.1831C29.6947 22.6854 30 24.3568 30 26.1972C30 28.2254 29.6374 30.0845 28.9122 31.7746C28.2252 33.4648 27.2137 34.9296 25.8779 36.169C24.5802 37.3709 23.0153 38.3099 21.1832 38.9859C19.3511 39.662 17.2901 40 15 40ZM15 33.4085C16.9084 33.4085 18.3969 32.9014 19.4656 31.8873C20.5343 30.8357 21.0687 29.3521 21.0687 27.4366V26.4225C21.0687 24.507 20.5343 23.0423 19.4656 22.0282C18.3969 20.9765 16.9084 20.4507 15 20.4507C13.0916 20.4507 11.6031 20.9765 10.5344 22.0282C9.46565 23.0423 8.9313 24.507 8.9313 26.4225V27.4366C8.9313 29.3521 9.46565 30.8357 10.5344 31.8873C11.6031 32.9014 13.0916 33.4085 15 33.4085Z" fill="white"/>
</svg>
