<svg width="40" height="41" viewBox="0 0 40 41" fill="none" xmlns="http://www.w3.org/2000/svg">
<g clip-path="url(#clip0_643_545)">
<path d="M20 0.5C16.0444 0.5 12.1776 1.67298 8.8886 3.87061C5.59962 6.06824 3.03617 9.19181 1.52242 12.8463C0.00866572 16.5009 -0.387401 20.5222 0.384303 24.4018C1.15601 28.2814 3.06082 31.8451 5.85787 34.6421C8.65492 37.4392 12.2186 39.344 16.0982 40.1157C19.9778 40.8874 23.9992 40.4913 27.6537 38.9776C31.3082 37.4638 34.4318 34.9004 36.6294 31.6114C38.827 28.3224 40 24.4556 40 20.5C39.9943 15.1974 37.8853 10.1137 34.1358 6.3642C30.3863 2.61471 25.3026 0.505735 20 0.5V0.5ZM34.4117 12.1667H29.0433C27.8416 9.38164 26.2593 6.77681 24.3417 4.42667C28.5858 5.58155 32.2039 8.36245 34.4117 12.1667V12.1667ZM27.5 20.5C27.4863 22.1969 27.2189 23.8822 26.7067 25.5H13.2933C12.7811 23.8822 12.5137 22.1969 12.5 20.5C12.5137 18.8031 12.7811 17.1178 13.2933 15.5H26.7067C27.2189 17.1178 27.4863 18.8031 27.5 20.5V20.5ZM14.63 28.8333H25.37C23.9554 31.6262 22.1469 34.2014 20 36.48C17.8523 34.202 16.0437 31.6267 14.63 28.8333V28.8333ZM14.63 12.1667C16.0446 9.37379 17.8531 6.7986 20 4.52C22.1477 6.79795 23.9563 9.37326 25.37 12.1667H14.63ZM15.6667 4.42667C13.7461 6.77631 12.161 9.38116 10.9567 12.1667H5.58834C7.7981 8.36072 11.4194 5.57959 15.6667 4.42667V4.42667ZM4.10168 15.5H9.83334C9.40127 17.1319 9.17727 18.8119 9.16668 20.5C9.17727 22.1881 9.40127 23.8681 9.83334 25.5H4.10168C3.07724 22.2454 3.07724 18.7546 4.10168 15.5V15.5ZM5.58834 28.8333H10.9567C12.161 31.6188 13.7461 34.2237 15.6667 36.5733C11.4194 35.4204 7.7981 32.6393 5.58834 28.8333V28.8333ZM24.3417 36.5733C26.2593 34.2232 27.8416 31.6184 29.0433 28.8333H34.4117C32.2039 32.6376 28.5858 35.4185 24.3417 36.5733V36.5733ZM35.8983 25.5H30.1667C30.5987 23.8681 30.8227 22.1881 30.8333 20.5C30.8227 18.8119 30.5987 17.1319 30.1667 15.5H35.895C36.9194 18.7546 36.9194 22.2454 35.895 25.5H35.8983Z" fill="#121212"/>
</g>
<defs>
<clipPath id="clip0_643_545">
<rect width="40" height="40" fill="white" transform="translate(0 0.5)"/>
</clipPath>
</defs>
</svg>
