<svg width="40" height="41" viewBox="0 0 40 41" fill="none" xmlns="http://www.w3.org/2000/svg">
<g clip-path="url(#clip0_643_541)">
<path d="M8.56728e-08 37.1663H40V40.4996H8.56728e-08V37.1663ZM40 13.6813V17.1663H35V30.4996H38.3333V33.833H1.66667V30.4996H5V17.1663H8.56728e-08V13.6813C-0.000166174 12.783 0.241658 11.9013 0.700055 11.1288C1.15845 10.3563 1.81649 9.72156 2.605 9.29129L17.605 1.10962C18.3393 0.707723 19.1629 0.49707 20 0.49707C20.8371 0.49707 21.6607 0.707723 22.395 1.10962L37.395 9.29129C38.1835 9.72156 38.8415 10.3563 39.2999 11.1288C39.7583 11.9013 40.0002 12.783 40 13.6813ZM8.33333 30.4996H13.3333V17.1663H8.33333V30.4996ZM16.6667 17.1663V30.4996H23.3333V17.1663H16.6667ZM31.6667 17.1663H26.6667V30.4996H31.6667V17.1663ZM36.6667 13.6813C36.6667 13.3819 36.5861 13.088 36.4333 12.8305C36.2805 12.573 36.0612 12.3614 35.7983 12.218L20.7983 4.03629C20.5535 3.90267 20.279 3.83265 20 3.83265C19.721 3.83265 19.4465 3.90267 19.2017 4.03629L4.20167 12.218C3.93883 12.3614 3.71948 12.573 3.56668 12.8305C3.41389 13.088 3.33328 13.3819 3.33333 13.6813V13.833H36.6667V13.6813Z" fill="#121212"/>
</g>
<defs>
<clipPath id="clip0_643_541">
<rect width="40" height="40" fill="white" transform="translate(0 0.5)"/>
</clipPath>
</defs>
</svg>
