<svg width="40" height="41" viewBox="0 0 40 41" fill="none" xmlns="http://www.w3.org/2000/svg">
<g clip-path="url(#clip0_643_537)">
<path d="M6.66667 22.1667H11.6667V25.5H6.66667V22.1667ZM15 25.5H20V22.1667H15V25.5ZM6.66667 32.1667H11.6667V28.8333H6.66667V32.1667ZM15 32.1667H20V28.8333H15V32.1667ZM6.66667 12.1667H11.6667V8.83333H6.66667V12.1667ZM15 12.1667H20V8.83333H15V12.1667ZM6.66667 18.8333H11.6667V15.5H6.66667V18.8333ZM15 18.8333H20V15.5H15V18.8333ZM40 13.8333V40.5H0V5.5C0 4.17392 0.526784 2.90215 1.46447 1.96447C2.40215 1.02678 3.67392 0.5 5 0.5L21.6667 0.5C22.9927 0.5 24.2645 1.02678 25.2022 1.96447C26.1399 2.90215 26.6667 4.17392 26.6667 5.5V8.83333H35C36.3261 8.83333 37.5979 9.36012 38.5355 10.2978C39.4732 11.2355 40 12.5073 40 13.8333ZM23.3333 5.5C23.3333 5.05797 23.1577 4.63405 22.8452 4.32149C22.5326 4.00893 22.1087 3.83333 21.6667 3.83333H5C4.55797 3.83333 4.13405 4.00893 3.82149 4.32149C3.50893 4.63405 3.33333 5.05797 3.33333 5.5V37.1667H23.3333V5.5ZM36.6667 13.8333C36.6667 13.3913 36.4911 12.9674 36.1785 12.6548C35.866 12.3423 35.442 12.1667 35 12.1667H26.6667V37.1667H36.6667V13.8333ZM30 25.5H33.3333V22.1667H30V25.5ZM30 32.1667H33.3333V28.8333H30V32.1667ZM30 18.8333H33.3333V15.5H30V18.8333Z" fill="#121212"/>
</g>
<defs>
<clipPath id="clip0_643_537">
<rect width="40" height="40" fill="white" transform="translate(0 0.5)"/>
</clipPath>
</defs>
</svg>
