<svg width="40" height="41" viewBox="0 0 40 41" fill="none" xmlns="http://www.w3.org/2000/svg">
<g clip-path="url(#clip0_643_534)">
<path d="M29.9993 0.5H13.3327C11.7131 0.502131 10.1292 0.976176 8.7747 1.86417C7.42022 2.75215 6.35386 4.0156 5.70602 5.5H3.33268C2.89065 5.5 2.46673 5.67559 2.15417 5.98816C1.84161 6.30072 1.66602 6.72464 1.66602 7.16667C1.66602 7.60869 1.84161 8.03262 2.15417 8.34518C2.46673 8.65774 2.89065 8.83333 3.33268 8.83333H4.99935V12.1667H3.33268C2.89065 12.1667 2.46673 12.3423 2.15417 12.6548C1.84161 12.9674 1.66602 13.3913 1.66602 13.8333C1.66602 14.2754 1.84161 14.6993 2.15417 15.0118C2.46673 15.3244 2.89065 15.5 3.33268 15.5H4.99935V18.8333H3.33268C2.89065 18.8333 2.46673 19.0089 2.15417 19.3215C1.84161 19.634 1.66602 20.058 1.66602 20.5C1.66602 20.942 1.84161 21.3659 2.15417 21.6785C2.46673 21.9911 2.89065 22.1667 3.33268 22.1667H4.99935V25.5H3.33268C2.89065 25.5 2.46673 25.6756 2.15417 25.9882C1.84161 26.3007 1.66602 26.7246 1.66602 27.1667C1.66602 27.6087 1.84161 28.0326 2.15417 28.3452C2.46673 28.6577 2.89065 28.8333 3.33268 28.8333H4.99935V32.1667H3.33268C2.89065 32.1667 2.46673 32.3423 2.15417 32.6548C1.84161 32.9674 1.66602 33.3913 1.66602 33.8333C1.66602 34.2754 1.84161 34.6993 2.15417 35.0118C2.46673 35.3244 2.89065 35.5 3.33268 35.5H5.70602C6.35386 36.9844 7.42022 38.2478 8.7747 39.1358C10.1292 40.0238 11.7131 40.4979 13.3327 40.5H29.9993C32.2087 40.4974 34.3268 39.6185 35.889 38.0563C37.4512 36.4941 38.33 34.376 38.3327 32.1667V8.83333C38.33 6.62401 37.4512 4.50593 35.889 2.9437C34.3268 1.38147 32.2087 0.502646 29.9993 0.5V0.5ZM34.9993 32.1667C34.9993 33.4927 34.4726 34.7645 33.5349 35.7022C32.5972 36.6399 31.3254 37.1667 29.9993 37.1667H13.3327C12.0066 37.1667 10.7348 36.6399 9.79715 35.7022C8.85947 34.7645 8.33268 33.4927 8.33268 32.1667V8.83333C8.33268 7.50725 8.85947 6.23548 9.79715 5.2978C10.7348 4.36012 12.0066 3.83333 13.3327 3.83333H29.9993C31.3254 3.83333 32.5972 4.36012 33.5349 5.2978C34.4726 6.23548 34.9993 7.50725 34.9993 8.83333V32.1667ZM21.666 20.5C22.9921 20.5 24.2639 19.9732 25.2015 19.0355C26.1392 18.0979 26.666 16.8261 26.666 15.5C26.666 14.1739 26.1392 12.9021 25.2015 11.9645C24.2639 11.0268 22.9921 10.5 21.666 10.5C20.3399 10.5 19.0682 11.0268 18.1305 11.9645C17.1928 12.9021 16.666 14.1739 16.666 15.5C16.666 16.8261 17.1928 18.0979 18.1305 19.0355C19.0682 19.9732 20.3399 20.5 21.666 20.5ZM29.9993 30.5C29.9993 30.942 29.8238 31.366 29.5112 31.6785C29.1986 31.9911 28.7747 32.1667 28.3327 32.1667C27.8907 32.1667 27.4667 31.9911 27.1542 31.6785C26.8416 31.366 26.666 30.942 26.666 30.5C26.666 29.1739 26.1392 27.9021 25.2015 26.9645C24.2639 26.0268 22.9921 25.5 21.666 25.5C20.3399 25.5 19.0682 26.0268 18.1305 26.9645C17.1928 27.9021 16.666 29.1739 16.666 30.5C16.666 30.942 16.4904 31.366 16.1779 31.6785C15.8653 31.9911 15.4414 32.1667 14.9993 32.1667C14.5573 32.1667 14.1334 31.9911 13.8208 31.6785C13.5083 31.366 13.3327 30.942 13.3327 30.5C13.6843 19.4867 29.651 19.49 29.9993 30.5Z" fill="#121212"/>
</g>
<defs>
<clipPath id="clip0_643_534">
<rect width="40" height="40" fill="white" transform="translate(0 0.5)"/>
</clipPath>
</defs>
</svg>
