<svg width="60" height="60" viewBox="0 0 60 60" fill="none" xmlns="http://www.w3.org/2000/svg">
<circle cx="30" cy="30" r="30" fill="#FDE14E"/>
<path fill-rule="evenodd" clip-rule="evenodd" d="M40.2988 16.5856C39.5446 16.7957 39.0229 17.4309 38.9039 18.2837L38.8252 18.8479L38.3404 19.1292C35.8835 20.5549 35.4006 24.0157 37.3782 26.0255C40.1682 28.8611 44.9158 26.9352 44.9158 22.968C44.9158 21.5334 44.2856 20.2425 43.1952 19.4435L42.7679 19.1304L42.7365 18.5284C42.6633 17.1246 41.5497 16.2371 40.2988 16.5856ZM41.1703 18.0732C41.5296 18.4347 41.4253 18.5989 40.8541 18.5708C40.2763 18.5423 40.2085 18.5003 40.3248 18.2435C40.4901 17.8786 40.8957 17.7968 41.1703 18.0732ZM18.2603 18.6982C15.955 19.3729 14.5816 21.7621 15.1731 24.069C16.2495 28.2673 22.1477 28.5077 23.5756 24.4115C24.7341 21.0885 21.6008 17.7204 18.2603 18.6982ZM20.3939 20.0912C22.5263 20.8379 23.1206 23.6789 21.4588 25.1822C20.8003 25.778 20.384 25.9326 19.4372 25.9326C18.4341 25.9326 17.9039 25.715 17.2738 25.0446C15.1357 22.7697 17.4682 19.0667 20.3939 20.0912ZM41.1236 20.0135C41.3283 20.1906 39.913 21.6774 39.1783 22.057C38.7302 22.2885 37.778 22.6345 37.5888 22.6345C37.4751 22.6345 37.6002 22.1667 37.8597 21.6212C38.2708 20.7573 39.1034 20.1256 40.0253 19.9784C40.3839 19.9212 41.0411 19.9422 41.1236 20.0135ZM42.7908 20.9484C43.0864 21.2898 43.3829 21.8698 43.4599 22.257L43.5082 22.5001L43.1879 22.3357C43.0117 22.2452 42.6761 21.9875 42.4421 21.7629L42.0166 21.3545L42.2179 20.9941C42.4618 20.557 42.4526 20.5577 42.7908 20.9484ZM29.2984 21.4516C26.3017 21.987 24.7087 25.1989 26.1061 27.8881C27.9556 31.4473 33.2432 30.8267 34.2442 26.9331C35.0225 23.9057 32.3209 20.9115 29.2984 21.4516ZM42.6863 23.6197C43.4132 23.9716 43.4265 23.9993 43.1223 24.5329C42.1706 26.2026 39.593 26.4662 38.3285 25.023C37.9761 24.6207 37.7016 24.1228 37.7913 24.0484C37.8249 24.0206 38.0845 23.9387 38.3681 23.8666C39.0481 23.6935 40.1017 23.1849 40.649 22.7654L41.0885 22.4286L41.5654 22.8682C41.874 23.1528 42.2694 23.4179 42.6863 23.6197ZM30.7109 22.8977C33.2352 23.5591 33.8119 26.8553 31.6636 28.3426C30.1623 29.3819 28.0549 28.7868 27.2604 27.0992C26.9084 26.3515 26.9111 25.2735 27.2666 24.5467C27.9114 23.2287 29.3484 22.5407 30.7109 22.8977ZM17.2291 28.3773C14.9624 28.8817 13.2271 30.5188 12.5392 32.8018C12.3819 33.3241 12.3749 33.4778 12.3491 36.9953L12.3223 40.6467L12.542 40.8678L12.7617 41.0888H17.8079H22.854L22.8773 42.3554L22.9006 43.6219L23.1072 43.8006L23.3139 43.9793H30.0058H36.6977L36.8884 43.7512C37.0766 43.5262 37.0791 43.5074 37.0791 42.306V41.0888H42.1572H47.2352L47.4419 40.91L47.6486 40.7312L47.671 37.4452C47.695 33.9337 47.6604 33.3982 47.3507 32.4821C46.714 30.5983 45.3349 29.2207 43.4134 28.5488L42.7137 28.3042H40.5777H38.4417L37.7788 28.5387C36.1588 29.1118 34.8789 30.1837 34.156 31.5728L33.9592 31.9509L33.4384 31.7092C32.4889 31.2686 32.1922 31.2176 30.3455 31.1777C28.2163 31.1318 27.4225 31.2532 26.2952 31.7968C26.0951 31.8933 25.9983 31.9097 25.9785 31.8503C25.9626 31.8033 25.8225 31.5532 25.6671 31.2945C24.8146 29.8753 23.4466 28.8532 21.857 28.4474C21.0163 28.2328 18.0784 28.1883 17.2291 28.3773ZM20.2899 30.435C19.4949 33.3806 19.3624 33.8223 19.3114 33.6981C19.253 33.5556 18.2235 29.7897 18.2235 29.7184C18.2235 29.6947 18.7346 29.6753 19.3592 29.6753H20.495L20.2899 30.435ZM41.5721 29.7566C41.5721 29.9662 40.751 33.3419 40.6787 33.4296C40.5692 33.5624 40.2866 33.5563 40.1733 33.4188C40.1232 33.3581 39.8923 32.491 39.6601 31.4918L39.2381 29.6753H40.4051C41.2027 29.6753 41.5721 29.701 41.5721 29.7566ZM22.6322 30.2257C23.4441 30.6397 24.3329 31.5907 24.7103 32.4492L24.8622 32.7947L24.4545 33.2379C23.2789 34.5155 22.8637 35.86 22.8637 38.389V39.6807H21.4643H20.0649V38.1134V36.5461L20.9563 33.2775C21.4466 31.4797 21.8621 29.9851 21.8796 29.956C21.9173 29.8936 22.131 29.9702 22.6322 30.2257ZM43.8185 30.257C44.7799 30.7573 45.6317 31.7849 46.0497 32.9485L46.2449 33.4922L46.2698 36.5864L46.2948 39.6807H43.7125H41.1301V37.2423V34.8038L41.388 34.6507C41.8152 34.3971 42.0457 33.9348 42.3088 32.8044C42.4389 32.2451 42.6445 31.3611 42.7658 30.8399C43.0191 29.7511 42.9354 29.7974 43.8185 30.257ZM17.7562 33.3116L18.6603 36.6049L18.6628 38.1428L18.6654 39.6807H16.198H13.7305V36.765C13.7305 34.1058 13.7433 33.7991 13.8758 33.2779C14.2209 31.9204 15.0789 30.8383 16.3498 30.1585C16.5448 30.0541 16.7376 29.9798 16.7783 29.9935C16.819 30.0071 17.2591 31.5003 17.7562 33.3116ZM38.3368 31.9427C38.8194 34.0203 38.92 34.2661 39.4361 34.6251L39.7251 34.8262L39.7279 37.2534L39.7307 39.6807H38.4126H37.0947L37.0589 37.9575C37.0108 35.638 36.7306 34.7307 35.6494 33.3945C35.2619 32.9155 35.16 32.7405 35.1926 32.6097C35.275 32.2794 35.955 31.3358 36.4076 30.9237C36.7943 30.5716 37.8044 29.9357 37.8708 30.0026C37.8819 30.0137 38.0916 30.8868 38.3368 31.9427ZM31.2611 32.6213C31.2627 32.7333 30.1922 36.1973 30.1561 36.1973C30.1267 36.1973 29.2176 33.2741 29.0682 32.6989C29.036 32.5751 29.1118 32.5657 30.1469 32.5657C30.7594 32.5657 31.2608 32.5907 31.2611 32.6213ZM28.5625 35.8453L29.4966 38.9025L29.4762 40.7553L29.4558 42.6082H26.8779H24.3V39.5695C24.3 36.8312 24.3133 36.4873 24.4352 36.09C24.8536 34.7257 25.7349 33.6594 26.9475 33.0504C27.2333 32.9069 27.5034 32.7891 27.5477 32.7888C27.5921 32.7884 28.0487 34.1639 28.5625 35.8453ZM34.2762 33.978C34.9255 34.6314 35.3166 35.3116 35.5334 36.1644C35.6673 36.6912 35.6797 36.9895 35.6797 39.6936V42.6472L33.2675 42.6277L30.8553 42.6082L30.8355 40.7609L30.8158 38.9135L31.5948 36.3511C32.0232 34.9418 32.441 33.5794 32.5233 33.3238L32.6729 32.8589L33.1963 33.1385C33.5341 33.3189 33.917 33.6166 34.2762 33.978ZM21.339 33.3442C20.9178 33.6411 20.9847 34.266 21.4644 34.5157C21.8871 34.7356 22.9492 34.6628 23.2146 34.3956C23.497 34.1115 23.4938 33.6577 23.2079 33.4102C22.9521 33.1889 21.6258 33.1421 21.339 33.3442ZM42.6401 33.5446C42.3221 33.7281 42.2059 34.161 42.3845 34.4968C42.6622 35.0191 44.6066 35.0191 44.8843 34.4968C45.0279 34.2269 44.9729 33.9012 44.7449 33.6717C44.5308 33.4564 44.5244 33.4551 43.6585 33.4573C43.1422 33.4587 42.7273 33.4942 42.6401 33.5446ZM32.2563 36.7346C31.9515 37.0012 31.9306 37.3802 32.2038 37.688L32.4266 37.939H33.3593H34.2921L34.5151 37.688C34.7885 37.3802 34.7678 37.0013 34.4627 36.7346C34.287 36.581 34.2002 36.5679 33.3595 36.5679C32.5189 36.5679 32.4321 36.581 32.2563 36.7346Z" fill="#121212"/>
</svg>
