<svg width="60" height="60" viewBox="0 0 60 60" fill="none" xmlns="http://www.w3.org/2000/svg">
<circle cx="30" cy="30" r="30" fill="#FDE14E"/>
<path fill-rule="evenodd" clip-rule="evenodd" d="M29.3101 10.1095C28.9605 10.2039 21.9496 14.0363 21.6795 14.2807C21.3739 14.5573 21.6232 15.1758 22.0403 15.1758C22.1623 15.1758 23.6285 14.4048 25.8851 13.154L29.5325 11.1321L30.0069 11.1312L30.4812 11.1304L37.0768 14.7866C40.7044 16.7974 44.1968 18.7327 44.8378 19.0871L46.0033 19.7314L38.0048 19.7499C33.6056 19.7601 26.4104 19.7601 22.0156 19.7499L14.0249 19.7314L17.0911 18.0316C18.7774 17.0967 20.1976 16.2832 20.247 16.2237C20.4978 15.9214 20.2238 15.3687 19.8245 15.3717C19.6093 15.3733 11.8173 19.6482 11.5114 19.9325C11.3022 20.1269 11.2654 21.9432 11.4575 22.5903C11.688 23.3665 12.516 24.0119 13.4114 24.1132L13.8355 24.1613L14.7753 25.4815L15.7152 26.8018L15.7179 33.5173L15.7206 40.2329L14.7578 41.5899L13.7949 42.947H13.0791C11.6149 42.947 11.3474 43.2859 11.3474 45.1414C11.3474 46.3743 11.4108 46.6543 11.7614 46.9714C12.1705 47.3413 11.0775 47.3204 30.0062 47.3204C45.653 47.3204 47.6058 47.3082 47.8448 47.2083C48.5361 46.9194 48.6614 46.5998 48.6635 45.1202C48.666 43.2889 48.3939 42.947 46.9334 42.947H46.2176L45.2547 41.5899L44.2919 40.2329L44.2946 33.5173L44.2973 26.8018L45.2379 25.4804L46.1785 24.1591L46.5289 24.11C47.235 24.0108 47.5867 23.8465 48.0201 23.413C48.5775 22.8556 48.6651 22.5511 48.6651 21.1704C48.6651 19.8954 48.7219 19.9767 47.2802 19.1869C46.739 18.8904 42.8742 16.7503 38.6918 14.431C30.1206 9.67818 30.4117 9.8123 29.3101 10.1095ZM29.564 13.3542C27.6025 13.6861 26.8326 16.1684 28.2512 17.587C29.2405 18.5764 30.772 18.5764 31.7613 17.587C33.4777 15.8706 31.9607 12.9485 29.564 13.3542ZM30.6576 14.5793C31.3029 14.8954 31.5945 15.8034 31.2608 16.4573C30.5876 17.7765 28.6214 17.3078 28.6214 15.8282C28.6214 14.7395 29.6708 14.0959 30.6576 14.5793ZM47.5718 21.4831C47.5718 22.2279 47.4671 22.5162 47.0932 22.8014L46.8178 23.0115H29.999H13.1803L12.979 22.8612C12.5523 22.5427 12.4791 22.3653 12.4521 21.585L12.4271 20.8612H29.9994H47.5718V21.4831ZM21.0685 25.1253L20.3731 26.1093H18.4613H16.5494L15.8981 25.1852C15.5399 24.6769 15.2359 24.2341 15.2226 24.2011C15.2092 24.1683 16.6755 24.1413 18.481 24.1413H21.7638L21.0685 25.1253ZM37.8666 25.493L38.8255 26.8447V30.2444C38.8255 33.6346 38.8259 33.6446 38.9839 33.8128C39.1773 34.0187 39.4772 34.0308 39.7102 33.8422L39.8823 33.7029L39.9027 30.4528L39.9231 27.2027H41.5609H43.1986V33.5441V39.8856H41.5587H39.9187V37.921C39.9187 35.8393 39.8939 35.6636 39.5793 35.5202C39.3295 35.4064 39.2366 35.418 39.0175 35.5904L38.8255 35.7414L38.8254 37.9776L38.8253 40.2136L37.8596 41.5769L36.894 42.9402H30.0062H23.1185L22.1529 41.5769L21.1872 40.2136L21.1871 33.5291L21.187 26.8447L22.1459 25.493L23.1047 24.1413H30.0062H36.9077L37.8666 25.493ZM44.7899 24.2011C44.7766 24.2341 44.4726 24.6769 44.1143 25.1852L43.4631 26.1093H41.5512H39.6394L38.944 25.1253L38.2487 24.1413H41.5315C43.337 24.1413 44.8033 24.1683 44.7899 24.2011ZM20.0938 33.5441V39.8856H18.4538H16.8139V33.5441V27.2027H18.4538H20.0938V33.5441ZM28.7307 27.3918C24.4207 28.3492 22.3722 33.271 24.7609 36.9302C27.5393 41.1865 34.0039 40.5124 35.8435 35.7745C37.1705 32.357 35.2391 28.5122 31.6826 27.4913C30.9479 27.2804 29.4581 27.2302 28.7307 27.3918ZM31.1216 28.4848C34.3682 29.2022 36.0797 32.7507 34.6341 35.7673C32.7742 39.6482 27.2607 39.6482 25.3765 35.7673C23.5002 31.9029 26.9278 27.5582 31.1216 28.4848ZM29.6259 29.2983C29.5646 29.3684 29.493 29.5461 29.4667 29.6931C29.4233 29.9353 29.3921 29.9649 29.1351 30.0084C28.6657 30.0877 28.231 30.4147 28.0126 30.8531C27.7864 31.3069 27.7305 32.6073 27.9179 33.0545C28.1444 33.5949 28.7343 34.0544 29.2016 34.0544H29.4232V35.002C29.4232 35.8973 29.4152 35.9495 29.2791 35.9495C29.1027 35.9495 28.9452 35.7119 28.8818 35.3503C28.7584 34.6465 27.8189 34.7294 27.8201 35.444C27.8213 36.2474 28.5056 37.0429 29.1952 37.0429C29.3893 37.0429 29.4151 37.0713 29.4595 37.3342C29.5857 38.0809 30.4268 38.0809 30.553 37.3342C30.5958 37.0803 30.627 37.0427 30.7962 37.0413C31.2761 37.0373 31.8689 36.5816 32.0946 36.043C32.282 35.5958 32.2261 34.2954 31.9999 33.8416C31.7812 33.4026 31.3468 33.0762 30.8752 32.9965L30.5893 32.9482V32.007C30.5893 31.274 30.6107 31.0659 30.686 31.0659C30.846 31.0659 31.0995 31.3902 31.0995 31.595C31.0995 32.0887 31.7638 32.3814 32.0584 32.0175C32.5398 31.423 31.7999 30.1642 30.8774 30.0084C30.6204 29.9649 30.5892 29.9353 30.5458 29.6931C30.4787 29.318 30.3265 29.1707 30.0062 29.1707C29.8412 29.1707 29.6943 29.22 29.6259 29.2983ZM29.4232 32.0135C29.4232 33.0356 29.3781 33.1346 29.0587 32.8152C28.8351 32.5916 28.8441 31.4766 29.0714 31.2345C29.3837 30.9022 29.4232 30.9896 29.4232 32.0135ZM30.9075 34.2055C31.2904 34.5067 31.1444 35.9495 30.731 35.9495C30.598 35.9495 30.5893 35.8917 30.5893 35.002C30.5893 34.0015 30.6034 33.9663 30.9075 34.2055ZM21.0931 41.963L21.7726 42.9106L20.09 42.9302C19.1645 42.9409 17.676 42.9409 16.782 42.9302L15.1566 42.9106L15.8476 41.9436L16.5385 40.9766L18.4761 40.996L20.4137 41.0154L21.0931 41.963ZM44.1657 41.9448L44.8559 42.9106L43.184 42.9302C42.2646 42.9409 40.7757 42.9409 39.8756 42.9302L38.2389 42.9106L38.7599 42.1817C39.0464 41.7808 39.3605 41.3462 39.4577 41.2159L39.6346 40.979H41.5551H43.4757L44.1657 41.9448ZM47.5353 45.1337V46.1906H30.0062H12.4772L12.4568 45.2102C12.4455 44.6711 12.4527 44.1872 12.4727 44.135C12.5025 44.0573 15.6895 44.0434 30.0222 44.0584L47.5353 44.0768V45.1337Z" fill="#121212"/>
</svg>
