<svg width="60" height="60" viewBox="0 0 60 60" fill="none" xmlns="http://www.w3.org/2000/svg">
<circle cx="30" cy="30" r="30" fill="#FDE14E"/>
<path fill-rule="evenodd" clip-rule="evenodd" d="M27.7725 13.4795C24.6159 13.8746 21.9678 15.7415 20.6392 18.5085C20.4747 18.851 20.3195 19.2136 20.2943 19.3141L20.2485 19.497L19.1135 19.5218C18.0103 19.5459 17.9652 19.5527 17.5094 19.7645C16.8572 20.0675 16.4503 20.459 16.1344 21.0874L15.8722 21.609L15.8534 31.2737C15.8328 41.9229 15.8213 41.6063 16.2644 42.697C17.0015 44.5116 18.489 45.8153 20.4693 46.3821C20.997 46.5332 21.0026 46.5333 29.0287 46.5535C36.0149 46.571 37.1418 46.5598 37.6882 46.4671C40.0474 46.0668 41.9366 44.3545 42.5997 42.0154C42.7235 41.5786 42.752 41.2432 42.7792 39.9025L42.8115 38.3087L43.2958 38.2351C44.6857 38.0236 45.8532 36.9177 46.1006 35.5785C46.1464 35.3303 46.1659 34.0057 46.1528 32.0235L46.132 28.8642L45.8921 28.4292C45.4274 27.5865 44.8807 27.2987 43.6638 27.2558L42.8103 27.2258L42.7812 25.3874C42.7533 23.6221 42.7447 23.5271 42.5657 22.9968C41.8934 21.0043 40.1006 19.6498 37.9783 19.5309L37.2668 19.491L37.1909 19.2419C36.5304 17.0745 34.2289 14.8289 31.7744 13.9571C30.6713 13.5652 28.8367 13.3464 27.7725 13.4795ZM30.3351 14.7045C34.386 15.5791 37.0482 19.2281 36.5504 23.2239L36.4625 23.9287H35.8662C35.369 23.9287 35.2764 23.9117 35.3096 23.8267C35.42 23.5439 35.5092 22.4458 35.47 21.8537C35.3596 20.1878 34.724 18.8247 33.4936 17.6141C29.385 13.572 22.3792 16.1915 22.0373 21.8975C22.0002 22.5156 22.0879 23.5361 22.2033 23.8319C22.2338 23.9103 22.1275 23.9287 21.646 23.9287H21.0509L20.9715 23.32C20.4158 19.0607 23.3238 15.2924 27.6927 14.6103C28.2453 14.524 29.747 14.5775 30.3351 14.7045ZM30.0904 16.9118C32.2109 17.4808 33.6255 18.8798 34.219 20.995C34.3651 21.5159 34.3681 23.0393 34.2239 23.549L34.1263 23.8942L32.8549 23.913L31.5835 23.9317L31.5463 23.5283C31.5102 23.1374 31.3099 22.6406 31.0884 22.3928C30.9911 22.2841 30.9911 22.2599 31.0884 22.1512C31.8824 21.2631 31.5736 19.6716 30.5163 19.2028C30.2437 19.082 30.2298 19.0609 30.2298 18.7703C30.2298 18.3503 29.9174 18.0235 29.5775 18.088C29.2753 18.1454 29.1064 18.3612 29.1064 18.6903V18.9587H28.7554H28.4044V18.6903C28.4044 18.3612 28.2355 18.1454 27.9333 18.088C27.6194 18.0284 27.281 18.352 27.281 18.7118V18.9587H26.7864C26.3548 18.9587 26.2698 18.9803 26.1194 19.1282C25.7039 19.5366 26.0203 20.0631 26.6811 20.0631H27.0704V21.9971V23.931L25.2274 23.9126L23.3845 23.8942L23.2938 23.549C22.5973 20.8966 24.2586 17.9261 26.9195 17.0662C27.95 16.7332 29.198 16.6724 30.0904 16.9118ZM30.176 20.3233C30.3733 20.5175 30.4053 20.5968 30.4053 20.8915C30.4053 21.1862 30.3733 21.2655 30.176 21.4596L29.9466 21.6853L29.0702 21.7082L28.1937 21.7311V20.8915V20.0519L29.0702 20.0747L29.9466 20.0977L30.176 20.3233ZM19.86 21.0468C19.7875 21.6037 19.7878 22.9428 19.8606 23.5029L19.9174 23.9398L19.0122 23.917C18.1464 23.8951 18.0922 23.8851 17.7638 23.6853C16.8257 23.1144 16.6929 21.9052 17.4831 21.13C17.9263 20.6951 18.1328 20.6312 19.1228 20.6224L19.9161 20.6154L19.86 21.0468ZM39.0293 20.8454C40.2088 21.2663 40.9939 22.039 41.4524 23.2301C41.6143 23.6505 41.6308 23.8 41.6585 25.0973L41.6886 26.5074L41.3396 26.0951C40.5337 25.143 39.2886 24.3808 38.0902 24.106C37.5413 23.98 37.576 24.0501 37.676 23.2685C37.7589 22.6217 37.7358 21.4659 37.6279 20.8633L37.5797 20.5936L38.0796 20.6393C38.3546 20.6644 38.782 20.7572 39.0293 20.8454ZM30.1695 23.0781C30.3476 23.2533 30.3937 23.3574 30.3988 23.5958L30.4053 23.8942L29.2995 23.9132L28.1937 23.9322V23.3726V22.813L29.0702 22.8358L29.9466 22.8588L30.1695 23.0781ZM17.487 24.7948L17.9082 24.9986L27.7374 25.0331L37.5666 25.0676L38.1282 25.2557C40.1883 25.9455 41.5385 27.6906 41.6543 29.8133L41.6948 30.5553H39.5558C37.1307 30.5553 36.8181 30.5923 36.0081 30.9745C33.1092 32.3424 33.1092 36.4994 36.0081 37.8673C36.8179 38.2494 37.1309 38.2864 39.5528 38.2864H41.6888L41.6577 39.8568C41.6287 41.3236 41.6143 41.4636 41.4414 41.9794C40.9329 43.495 39.6891 44.7201 38.1282 45.2427L37.5666 45.4308H29.3171H21.0676L20.5059 45.2427C18.9468 44.7207 17.7037 43.4967 17.1917 41.9794C17.0127 41.4488 17.0042 41.3547 16.9761 39.5807L16.9469 37.7342H19.4812H22.0154V38.9453C22.0154 40.1392 22.0179 40.1589 22.1878 40.3258L22.3601 40.4953H24.7378H27.1156L27.2667 40.8232C27.9013 42.2003 29.6404 42.565 30.84 41.5726C31.4956 41.0301 31.7433 39.7938 31.353 39.0112C30.5131 37.3268 28.0586 37.3394 27.2805 39.0321L27.1156 39.3909H25.1272H23.1387V38.1798C23.1387 36.9859 23.1363 36.9662 22.9664 36.7992L22.7941 36.6298H19.8772H16.9604V36.0775V35.5253H22.038H27.1156L27.2667 35.8532C27.9013 37.2303 29.6404 37.595 30.84 36.6026C31.4956 36.0601 31.7433 34.8238 31.353 34.0412C30.5131 32.3568 28.0586 32.3694 27.2805 34.0621L27.1156 34.4209H22.038H16.9604V33.8687V33.3164H19.8772H22.7941L22.9664 33.147C23.1387 32.9776 23.1387 32.9774 23.1387 31.4903V30.0031H25.1272H27.1156L27.2667 30.331C27.9013 31.7081 29.6404 32.0728 30.84 31.0804C31.4956 30.5379 31.7433 29.3016 31.353 28.519C30.5131 26.8346 28.0586 26.8472 27.2805 28.5399L27.1156 28.8987H24.7378H22.3601L22.1878 29.0681C22.0154 29.2375 22.0154 29.2377 22.0154 30.7248V32.212H19.4879H16.9604V28.3752C16.9604 26.265 16.9841 24.5503 17.0131 24.5648C17.042 24.5792 17.2553 24.6827 17.487 24.7948ZM29.7614 28.4406C30.4827 28.7369 30.6586 29.6667 30.0977 30.2183C29.6449 30.6634 29.0231 30.6655 28.5507 30.2236C27.6562 29.387 28.6179 27.9708 29.7614 28.4406ZM44.5255 28.5233C45.2031 29.0213 45.2031 29.8805 44.5255 30.3785C44.3635 30.4976 44.2067 30.5246 43.5645 30.5442L42.7971 30.5676V29.4509V28.3342L43.5645 28.3576C44.2067 28.3772 44.3635 28.4042 44.5255 28.5233ZM45.0308 33.4717L45.0086 35.5598L44.7687 35.9948C44.5023 36.4779 44.2837 36.6859 43.7524 36.9614L43.3939 37.1475H40.2345H37.0751L36.6061 36.929C34.3917 35.8976 34.3917 32.9442 36.6061 31.9128L37.0751 31.6943L40.761 31.6598C44.0105 31.6293 44.476 31.6116 44.6927 31.5101C44.8279 31.4468 44.9642 31.3924 44.9957 31.3893C45.0272 31.3862 45.043 32.3233 45.0308 33.4717ZM37.0832 32.5971C36.5739 32.757 36.0323 33.3142 35.8776 33.8372C35.3027 35.7818 37.6681 37.1947 39.1157 35.7714C40.5804 34.3313 39.0703 31.973 37.0832 32.5971ZM38.3323 33.8649C38.6521 34.1793 38.6467 34.6677 38.32 34.989C37.7926 35.5075 36.9347 35.1582 36.9347 34.4251C36.9347 33.6715 37.7879 33.3296 38.3323 33.8649ZM29.7614 33.9628C30.4827 34.2591 30.6586 35.1889 30.0977 35.7405C29.6449 36.1856 29.0231 36.1877 28.5507 35.7458C27.6562 34.9092 28.6179 33.493 29.7614 33.9628ZM29.7614 38.9328C30.4827 39.2291 30.6586 40.1589 30.0977 40.7105C29.6449 41.1555 29.0231 41.1577 28.5507 40.7158C27.6562 39.8792 28.6179 38.463 29.7614 38.9328Z" fill="#121212"/>
</svg>
